<svg id="_ÎÓÈ_1" data-name="—ÎÓÈ_1" xmlns="http://www.w3.org/2000/svg" xmlns:xlink="http://www.w3.org/1999/xlink" viewBox="0 0 316.57 272"><defs><style>.cls-1{fill:none;}.cls-2,.cls-4{fill:#173d7a;}.cls-2,.cls-8{opacity:0.5;}.cls-3{fill:#396caa;}.cls-5{fill:#5793ce;}.cls-6,.cls-8{fill:#d4ecff;}.cls-7{fill:#fff;}.cls-9{fill:#1d4260;}.cls-10{fill:#295b8d;}.cls-11{fill:#983be9;}.cls-12{opacity:0.3;}.cls-13{clip-path:url(#clip-path);}.cls-14{fill:#79b1e0;}.cls-15{fill:#ff2c9c;}.cls-16{fill:#d3008d;}.cls-17{clip-path:url(#clip-path-2);}.cls-18{fill:#25557c;}</style><clipPath id="clip-path" transform="translate(0 0)"><polygon class="cls-1" points="95.19 150.08 155.97 183.74 236.28 137.52 246.01 157.5 119.26 230.45 72.89 206.77 95.19 150.08"/></clipPath><clipPath id="clip-path-2" transform="translate(0 0)"><polygon class="cls-1" points="89.22 146.77 155.97 183.74 248.52 130.48 249.95 50.4 188.35 40.38 91.93 107.62 89.22 146.77"/></clipPath></defs><path class="cls-2" d="M305.2,149.06,217.35,98.19c-4.77-2.76-13.12-2.43-18.63.75L14.35,205c-5.52,3.18-6.13,8-1.36,10.76l87.85,50.87c4.77,2.76,13.12,2.43,18.64-.75l184.36-106.1C309.36,156.64,310,151.83,305.2,149.06Z" transform="translate(0 0)"/><path class="cls-3" d="M98.29,247.82,6.86,194.88c-3-1.74-4.4-4.08-4.3-6.52h0l0-13.26,5.08,6c.33-.21.66-.43,1-.64l187-107.63c7.42-4.27,18.65-4.72,25.07-1L310.92,124c1.82-2,5.65-6.21,5.65-6.21l-.05,13h0c.14,2.93-1.95,6-6.14,8.46l-187,107.63C115.93,251.09,104.71,251.54,98.29,247.82Z" transform="translate(0 0)"/><path class="cls-4" d="M48.85,215.35l5.27,3c.69.4,1.26,0,1.26-1h0A3.05,3.05,0,0,0,54.12,215l-5.27-3c-.7-.4-1.27,0-1.27,1h0A3,3,0,0,0,48.85,215.35Z" transform="translate(0 0)"/><path class="cls-5" d="M195.71,72.78c7.42-4.27,18.65-4.72,25.07-1L310.92,124c1.82-2,5.65-6.21,5.65-6.21l-.05,13h0c.14,2.93-1.95,6-6.14,8.46l-187,107.63a29,29,0,0,1-13.5,3.51L110,122.08Z" transform="translate(0 0)"/><path class="cls-6" d="M312.24,111.38,220.82,58.44c-6.43-3.72-17.65-3.27-25.07,1L8.72,167.07C1.3,171.35.48,177.83,6.9,181.54l91.42,53c6.42,3.72,17.65,3.27,25.07-1l187-107.63C317.84,121.58,318.66,115.1,312.24,111.38Z" transform="translate(0 0)"/><path class="cls-7" d="M98.26,235.9,6.83,183c-3.31-1.92-4.68-4.57-4.23-7.27.16,2.19,1.57,4.27,4.3,5.85l91.42,53c6.42,3.72,17.65,3.27,25.07-1l187-107.63c3.6-2.07,5.63-4.66,6.05-7.2.22,3-1.85,6.16-6.12,8.62l-187,107.63C115.9,239.17,104.68,239.62,98.26,235.9Z" transform="translate(0 0)"/><path class="cls-4" d="M305.2,113.47,217.35,62.59c-4.77-2.76-13.12-2.43-18.63.75L14.35,169.45c-5.52,3.17-6.13,8-1.36,10.75l87.85,50.87c4.77,2.77,13.12,2.43,18.64-.74L303.84,124.22C309.36,121,310,116.23,305.2,113.47Z" transform="translate(0 0)"/><polygon class="cls-6" points="122.97 204.65 60.98 168.86 64.94 166.58 126.93 202.37 122.97 204.65"/><polygon class="cls-6" points="79.84 194.22 48.45 176.09 52.41 173.81 83.8 191.93 79.84 194.22"/><polygon class="cls-6" points="95.07 203.01 84.89 197.13 88.85 194.85 99.03 200.73 95.07 203.01"/><polygon class="cls-7" points="110.44 211.88 100.26 206.01 104.22 203.72 114.4 209.6 110.44 211.88"/><polygon class="cls-7" points="80.19 187.19 54.72 172.48 58.67 170.19 84.15 184.9 80.19 187.19"/><polygon class="cls-6" points="111.29 205.14 85.81 190.43 89.77 188.15 115.24 202.85 111.29 205.14"/><path class="cls-6" d="M92.43,173.7a5.12,5.12,0,0,1-4.62,0c-1.27-.74-1.27-1.93,0-2.67a5.15,5.15,0,0,1,4.62,0C93.7,171.77,93.7,173,92.43,173.7Z" transform="translate(0 0)"/><path class="cls-7" d="M99.32,177.68a5.06,5.06,0,0,1-4.61,0c-1.28-.73-1.28-1.93,0-2.66a5.06,5.06,0,0,1,4.61,0C100.6,175.75,100.6,177,99.32,177.68Z" transform="translate(0 0)"/><path class="cls-6" d="M106.22,181.66a5.06,5.06,0,0,1-4.61,0c-1.28-.73-1.28-1.93,0-2.66a5.06,5.06,0,0,1,4.61,0C107.5,179.73,107.5,180.93,106.22,181.66Z" transform="translate(0 0)"/><path class="cls-6" d="M113.12,185.65a5.15,5.15,0,0,1-4.62,0c-1.27-.74-1.27-1.93,0-2.67a5.08,5.08,0,0,1,4.62,0C114.39,183.72,114.39,184.91,113.12,185.65Z" transform="translate(0 0)"/><path class="cls-7" d="M120,189.63a5.15,5.15,0,0,1-4.62,0c-1.27-.74-1.27-1.93,0-2.67a5.15,5.15,0,0,1,4.62,0C121.29,187.7,121.29,188.89,120,189.63Z" transform="translate(0 0)"/><polygon class="cls-6" points="258.66 113.86 248.22 107.83 252.28 105.49 262.72 111.52 258.66 113.86"/><polygon class="cls-7" points="273.19 122.25 262.76 116.22 266.81 113.88 277.25 119.91 273.19 122.25"/><polygon class="cls-7" points="212.04 86.69 201.6 80.66 205.66 78.32 216.1 84.35 212.04 86.69"/><polygon class="cls-7" points="256.33 119.93 241.8 111.54 245.86 109.2 260.39 117.59 256.33 119.93"/><polygon class="cls-6" points="266.77 125.96 260.39 122.28 264.45 119.93 270.83 123.61 266.77 125.96"/><path class="cls-2" d="M183.34,262.35l36.38-21c2.87-1.66,7.53-1.75,11.31-.41l10-5.86c-9.39-7-10.24-16.58-2.55-24a20.89,20.89,0,0,0,6.72,5.84c12.05,7,31.58,7,43.63,0,4.7-2.71,7.54-6.09,8.57-9.61,13.74,8.4,13.5,21.64-.74,29.86-14.07,8.12-36.6,8.34-51.17.7l-10.09,5.91c1.7,2,1.32,4.41-1.29,5.92l-36.37,21c-3.45,2-9.46,1.74-13.43-.55S179.9,264.34,183.34,262.35Z" transform="translate(0 0)"/><path class="cls-8" d="M288.83,196.35c-12.05-6.95-31.58-6.95-43.63,0-5,2.89-7.91,6.51-8.76,10.27.75,3.31,3.11,6.52,7.09,9.21a25.36,25.36,0,0,1,3.36-2.32c12.05-6.95,31.58-6.95,43.63,0,.59.35,1.15.7,1.68,1.07a14.71,14.71,0,0,0,5.4-8C296.74,202.86,293.83,199.24,288.83,196.35Z" transform="translate(0 0)"/><path class="cls-9" d="M235.7,212.17l4.71-6.14,14.29-6.64L267,198.3l14.42,1.76,10,5.17,6.39,4.08,1.15-6.64L296.82,195s-5.46-3.61-5.8-4-12.78-4.79-12.78-4.79l-12.44-.84-10,1.26-10.18,3-6.72,4.71-5,6.39-.57,8Z" transform="translate(0 0)"/><polygon class="cls-9" points="302.43 204.29 302.43 217.21 298.98 211.61 302.43 204.29"/><path class="cls-10" d="M245.2,205c12.05-7,31.58-7,43.63,0a19.15,19.15,0,0,1,7.79,7.58c1.06-.95,2.43-1.7,3-3a24.4,24.4,0,0,0-7.56-6.47c-13.83-8-36.26-8-50.09,0a25.15,25.15,0,0,0-7.09,5.86,10.59,10.59,0,0,0,2.53,3.6A19.11,19.11,0,0,1,245.2,205Z" transform="translate(0 0)"/><path class="cls-8" d="M288.83,196.35c-12.05-6.95-31.58-6.95-43.63,0-5,2.89-7.91,6.51-8.76,10.27.85,3.75,3.77,7.38,8.76,10.26,12.05,7,31.58,7,43.63,0,5-2.88,7.91-6.51,8.77-10.26C296.74,202.86,293.83,199.24,288.83,196.35Z" transform="translate(0 0)"/><path class="cls-9" d="M299.62,209.56a4.46,4.46,0,0,1-1.08,1.4v-.14l-3.2,1.91-3.92,3.64L286,218.78l-7.5,2.69L271.8,223l-9.19.39-5.95-.61-11.76-3.08L237.23,213c.06-.13.11-.27.18-.4a10.59,10.59,0,0,1-2.53-3.6c-.21.25-.4.52-.59.78l-2.69-5.6v13.42h0c0,5.24,3.44,10.48,10.36,14.47,13.83,8,36.26,8,50.09,0C302.57,225.94,305.09,217,299.62,209.56Z" transform="translate(0 0)"/><path class="cls-10" d="M240,215.4,237.23,213c.06-.13.11-.27.18-.4a10.59,10.59,0,0,1-2.53-3.6c-.21.25-.4.52-.59.78l-2.69-5.6v13.42h0c0,4.71,2.79,9.41,8.38,13.22Z" transform="translate(0 0)"/><path class="cls-10" d="M292.06,189.83c-13.83-8-36.26-8-50.09,0s-13.83,20.93,0,28.92,36.26,8,50.09,0S305.89,197.81,292.06,189.83Zm-3.23,27c-12.05,7-31.58,7-43.63,0s-12-18.23,0-25.19,31.58-6.95,43.63,0S300.88,209.93,288.83,216.88Z" transform="translate(0 0)"/><polygon class="cls-6" points="218.81 233.4 238.44 221.98 241.05 226.21 221.33 237.69 218.81 233.4"/><path class="cls-11" d="M221.83,236.56c0,1.12-.79,1.58-1.76,1a3.9,3.9,0,0,1-1.76-3.05c0-1.12.79-1.58,1.76-1A3.9,3.9,0,0,1,221.83,236.56Z" transform="translate(0 0)"/><path class="cls-11" d="M221.83,236.56c0,1.12-.79,1.58-1.76,1a3.9,3.9,0,0,1-1.76-3.05c0-1.12.79-1.58,1.76-1A3.9,3.9,0,0,1,221.83,236.56Z" transform="translate(0 0)"/><path class="cls-6" d="M241.46,225.13c0,1.13-.78,1.58-1.76,1a3.9,3.9,0,0,1-1.76-3.05c0-1.12.79-1.57,1.76-1A3.86,3.86,0,0,1,241.46,225.13Z" transform="translate(0 0)"/><path class="cls-5" d="M231.48,237.39a16.72,16.72,0,0,0-7.57-13.11c-2.14-1.24-4.07-1.32-5.44-.47h0L177,247.93l10.85,18.45,41.06-23.9a3.47,3.47,0,0,0,.79-.46l0,0h0A5.64,5.64,0,0,0,231.48,237.39Z" transform="translate(0 0)"/><path class="cls-6" d="M180,253l46.45-26.82a12.2,12.2,0,0,0-2.5-1.94c-2.14-1.24-4.07-1.32-5.44-.47h0L177,247.93Z" transform="translate(0 0)"/><ellipse class="cls-6" cx="182.38" cy="257.16" rx="6.18" ry="10.71" transform="translate(-104.15 125.65) rotate(-30)"/><path class="cls-5" d="M183.81,259.27a4.94,4.94,0,1,1-4.93-4.93A4.93,4.93,0,0,1,183.81,259.27Z" transform="translate(0 0)"/><path class="cls-7" d="M178,257.46a1.46,1.46,0,1,1-1.45-1.45A1.45,1.45,0,0,1,178,257.46Z" transform="translate(0 0)"/><path class="cls-7" d="M182.94,248.09c-2.23-1.29-4.24-1.32-5.63-.34,1.35-.63,3.12-.46,5.07.66A16.74,16.74,0,0,1,190,261.53c0,2.24-.74,3.86-2,4.71,1.53-.72,2.5-2.46,2.5-5A16.72,16.72,0,0,0,182.94,248.09Z" transform="translate(0 0)"/><path class="cls-7" d="M288.83,191.69c-12.05-6.95-31.58-6.95-43.63,0-6.27,3.62-9.27,8.42-9,13.16.24-4.36,3.24-8.69,9-12,12.05-7,31.58-7,43.63,0,5.77,3.33,8.77,7.66,9,12C298.1,200.11,295.1,195.32,288.83,191.69Z" transform="translate(0 0)"/><path class="cls-7" d="M292.06,218.75c-13.83,8-36.26,8-50.09,0-6.66-3.85-10.11-8.85-10.35-13.9-.26,5.42,3.19,10.89,10.35,15,13.83,8,36.26,8,50.09,0,7.17-4.14,10.61-9.6,10.35-15C302.17,209.9,298.73,214.9,292.06,218.75Z" transform="translate(0 0)"/><g class="cls-12"><g class="cls-13"><path class="cls-6" d="M150.38,164.24c-3.33,1.92-3.33,5,0,7l56.53,32.64a3.71,3.71,0,0,0,3.31,0,1,1,0,0,0,0-1.92L153.69,169.3c-1.5-.87-1.5-2.28,0-3.14l5.48-3.17c-.61-.91-1.16-1.86-1.7-2.84Z" transform="translate(0 0)"/><path class="cls-5" d="M230.44,190.26l-56.53-32.64a13.35,13.35,0,0,0-12.06,0l-4.38,2.53c.54,1,1.09,1.93,1.7,2.84l6-3.46a6.06,6.06,0,0,1,5.44,0l56.53,32.64a3.64,3.64,0,0,0,3.31,0A1,1,0,0,0,230.44,190.26Z" transform="translate(0 0)"/><polygon class="cls-5" points="231.12 191.28 231.13 111.8 171.89 78.77 163.6 78.22 155.59 83.41 150.68 87.69 208.39 179.22 227.24 190.33 231.12 191.28"/><polygon class="cls-14" points="209.21 201.32 226.92 191.1 226.92 114.28 208.66 122.76 209.21 201.32"/><polygon class="cls-6" points="147.88 88.31 147.88 167.67 210.07 203.24 210.9 202.91 210.9 123.43 147.88 88.31"/><path class="cls-7" d="M182.86,89l-12.36-7.1a6.08,6.08,0,0,0-5.11.16l-11.47,6.62a1.76,1.76,0,0,0-1.09,1.88l31.24,18.67,25.08,15.39,17.77-10.3Z" transform="translate(0 0)"/><path class="cls-5" d="M208.66,122.18v82.06a3.53,3.53,0,0,0,1.56-.39,1.17,1.17,0,0,0,.68-.94h0v0h0V123.43Z" transform="translate(0 0)"/><polygon class="cls-7" points="231.13 112.79 231.13 111.8 230.81 111.8 230.71 112.47 231.13 112.79"/><polygon class="cls-7" points="210.9 124.46 210.9 123.44 210.6 123.88 210.9 124.46"/><path class="cls-6" d="M206.91,124.37,150.38,91.73c-3.33-1.92-3.33-5,0-7l11.47-6.62a13.35,13.35,0,0,1,12.06,0l56.53,32.63a1,1,0,0,1,0,1.92,3.71,3.71,0,0,1-3.31,0L170.6,80.06a6,6,0,0,0-5.44,0l-11.47,6.62c-1.5.87-1.5,2.28,0,3.14l56.53,32.64a1,1,0,0,1,0,1.91A3.64,3.64,0,0,1,206.91,124.37Z" transform="translate(0 0)"/><polygon class="cls-7" points="192.17 162 162.8 145.04 162.8 115.59 192.17 132.55 192.17 162"/><path class="cls-7" d="M230.44,112.7a3.71,3.71,0,0,1-3.31,0L170.6,80.06a6,6,0,0,0-5.44,0l-11.47,6.62c-1,.57-1.32,1.37-1,2.1a2.24,2.24,0,0,1,1-1l11.47-6.62a6,6,0,0,1,5.44,0l56.53,32.63a3.64,3.64,0,0,0,3.31,0c.69-.4.86-1,.5-1.48A1.56,1.56,0,0,1,230.44,112.7Z" transform="translate(0 0)"/><path class="cls-7" d="M210.22,124.37a3.64,3.64,0,0,1-3.31,0L150.38,91.73a4.51,4.51,0,0,1-2.44-3c-.27,1.43.54,2.91,2.44,4l56.53,32.64a3.64,3.64,0,0,0,3.31,0c.69-.4.86-1,.5-1.48A1.66,1.66,0,0,1,210.22,124.37Z" transform="translate(0 0)"/><path class="cls-15" d="M124.39,179.63c-3.33,1.92-3.33,5.05,0,7l56.53,32.63a3.64,3.64,0,0,0,3.31,0,1,1,0,0,0,0-1.91L127.7,184.68c-1.5-.86-1.5-2.27,0-3.14l5.48-3.16c-.61-.92-1.16-1.87-1.7-2.84Z" transform="translate(0 0)"/><path class="cls-16" d="M204.45,205.65,147.92,173a13.35,13.35,0,0,0-12.06,0l-4.38,2.53c.54,1,1.09,1.92,1.7,2.84l6-3.46a6,6,0,0,1,5.44,0l56.53,32.64a3.71,3.71,0,0,0,3.31,0A1,1,0,0,0,204.45,205.65Z" transform="translate(0 0)"/><polygon class="cls-5" points="205.13 206.67 205.14 127.18 145.9 94.16 137.61 93.61 129.6 98.8 124.69 103.08 182.4 194.61 201.25 205.71 205.13 206.67"/><polygon class="cls-14" points="183.22 216.71 200.93 206.49 200.93 129.66 182.68 138.15 183.22 216.71"/><polygon class="cls-6" points="121.9 103.69 121.9 183.05 184.08 218.62 184.91 218.29 184.91 138.82 121.9 103.69"/><path class="cls-7" d="M156.87,104.35l-12.36-7.1a6.08,6.08,0,0,0-5.11.15L127.93,104c-.89.51-1.25,1.21-1.08,1.88l31.23,18.66L183.16,140l17.77-10.31Z" transform="translate(0 0)"/><path class="cls-5" d="M182.68,137.57v82.05a3.27,3.27,0,0,0,1.55-.39,1.17,1.17,0,0,0,.68-.94h0V138.82Z" transform="translate(0 0)"/><polygon class="cls-7" points="205.14 128.17 205.14 127.18 204.82 127.18 204.72 127.85 205.14 128.17"/><polygon class="cls-7" points="184.91 139.85 184.91 138.83 184.61 139.26 184.91 139.85"/><path class="cls-15" d="M180.92,139.76l-56.53-32.64c-3.33-1.92-3.33-5,0-7l11.47-6.63a13.35,13.35,0,0,1,12.06,0l56.53,32.64a1,1,0,0,1,0,1.91,3.64,3.64,0,0,1-3.31,0L144.61,95.45a6,6,0,0,0-5.44,0l-11.47,6.62c-1.5.86-1.5,2.27,0,3.14l56.53,32.64a1,1,0,0,1,0,1.91A3.64,3.64,0,0,1,180.92,139.76Z" transform="translate(0 0)"/><polygon class="cls-7" points="166.19 177.38 136.81 160.42 136.81 130.97 166.19 147.93 166.19 177.38"/><path class="cls-7" d="M204.45,128.08a3.64,3.64,0,0,1-3.31,0L144.61,95.45a6,6,0,0,0-5.44,0l-11.47,6.62c-1,.57-1.32,1.36-1,2.09a2.22,2.22,0,0,1,1-1l11.47-6.63a6.06,6.06,0,0,1,5.44,0l56.53,32.64a3.64,3.64,0,0,0,3.31,0c.69-.4.86-1,.5-1.48A1.54,1.54,0,0,1,204.45,128.08Z" transform="translate(0 0)"/><path class="cls-7" d="M184.23,139.76a3.64,3.64,0,0,1-3.31,0l-56.53-32.64a4.58,4.58,0,0,1-2.44-3c-.27,1.43.55,2.91,2.44,4l56.53,32.63a3.64,3.64,0,0,0,3.31,0c.69-.4.86-1,.5-1.47A1.67,1.67,0,0,1,184.23,139.76Z" transform="translate(0 0)"/><path class="cls-6" d="M97.68,205.4c-3.32,1.92-3.32,5,0,7L154.21,245a3.64,3.64,0,0,0,3.31,0,1,1,0,0,0,0-1.91L101,210.45c-1.5-.86-1.5-2.27,0-3.14l5.47-3.16c-.61-.91-1.16-1.87-1.7-2.84Z" transform="translate(0 0)"/><path class="cls-5" d="M177.75,231.42l-56.53-32.64a13.35,13.35,0,0,0-12.06,0l-4.39,2.53c.54,1,1.09,1.93,1.7,2.84l6-3.46a6,6,0,0,1,5.44,0l56.52,32.64a3.66,3.66,0,0,0,3.32,0A1,1,0,0,0,177.75,231.42Z" transform="translate(0 0)"/><polygon class="cls-5" points="178.43 232.44 178.43 152.95 119.19 119.93 110.91 119.38 102.9 124.57 97.98 128.85 155.7 220.38 174.54 231.48 178.43 232.44"/><polygon class="cls-14" points="156.52 242.48 174.22 232.26 174.22 155.44 155.97 163.92 156.52 242.48"/><polygon class="cls-6" points="95.19 129.47 95.19 208.82 157.38 244.39 158.21 244.06 158.21 164.59 95.19 129.47"/><path class="cls-7" d="M130.17,130.12,117.81,123a6.1,6.1,0,0,0-5.12.15l-11.47,6.63a1.75,1.75,0,0,0-1.08,1.88l31.23,18.66,25.09,15.4,17.76-10.31Z" transform="translate(0 0)"/><path class="cls-5" d="M156,163.34v82a3.24,3.24,0,0,0,1.55-.39,1.19,1.19,0,0,0,.69-.94h0V164.59Z" transform="translate(0 0)"/><polygon class="cls-7" points="178.43 153.94 178.43 152.95 178.12 152.95 178.02 153.63 178.43 153.94"/><polygon class="cls-7" points="158.21 165.62 158.21 164.6 157.9 165.03 158.21 165.62"/><path class="cls-6" d="M154.21,165.53,97.68,132.89c-3.32-1.92-3.32-5,0-7l11.48-6.63a13.35,13.35,0,0,1,12.06,0l56.53,32.64a1,1,0,0,1,0,1.91,3.66,3.66,0,0,1-3.32,0l-56.52-32.63a6,6,0,0,0-5.44,0L101,127.84c-1.5.87-1.5,2.27,0,3.14l56.52,32.64a1,1,0,0,1,0,1.91A3.64,3.64,0,0,1,154.21,165.53Z" transform="translate(0 0)"/><polygon class="cls-6" points="139.48 203.15 110.11 186.19 110.11 156.75 139.48 173.71 139.48 203.15"/><path class="cls-7" d="M177.75,153.85a3.66,3.66,0,0,1-3.32,0l-56.52-32.63a6,6,0,0,0-5.44,0L101,127.84c-1,.57-1.32,1.37-1,2.09a2.3,2.3,0,0,1,1-1l11.47-6.63a6.06,6.06,0,0,1,5.44,0l56.52,32.64a3.66,3.66,0,0,0,3.32,0c.69-.4.85-1,.5-1.48A1.53,1.53,0,0,1,177.75,153.85Z" transform="translate(0 0)"/><path class="cls-7" d="M157.52,165.53a3.64,3.64,0,0,1-3.31,0L97.68,132.89a4.58,4.58,0,0,1-2.44-3c-.26,1.43.55,2.92,2.44,4l56.53,32.64a3.71,3.71,0,0,0,3.31,0c.7-.4.86-1,.51-1.48A1.73,1.73,0,0,1,157.52,165.53Z" transform="translate(0 0)"/></g></g><g class="cls-17"><path class="cls-6" d="M150.38,147.21c-3.33,1.92-3.33,5,0,7l56.53,32.64a3.71,3.71,0,0,0,3.31,0,1,1,0,0,0,0-1.92l-56.53-32.63c-1.5-.87-1.5-2.28,0-3.14l5.48-3.17c-.61-.91-1.16-1.86-1.7-2.84Z" transform="translate(0 0)"/><path class="cls-5" d="M230.44,173.23l-56.53-32.64a13.35,13.35,0,0,0-12.06,0l-4.38,2.53c.54,1,1.09,1.93,1.7,2.84l6-3.46a6.06,6.06,0,0,1,5.44,0l56.53,32.64a3.64,3.64,0,0,0,3.31,0A1,1,0,0,0,230.44,173.23Z" transform="translate(0 0)"/><polygon class="cls-5" points="231.12 174.25 231.13 94.77 171.89 61.74 163.6 61.2 155.59 66.38 150.68 70.66 208.39 162.19 227.24 173.3 231.12 174.25"/><polygon class="cls-14" points="209.21 184.29 226.92 174.07 226.92 97.25 208.66 105.73 209.21 184.29"/><polygon class="cls-6" points="147.88 71.28 147.88 150.64 210.07 186.21 210.9 185.88 210.9 106.4 147.88 71.28"/><path class="cls-7" d="M182.86,71.93l-12.36-7.1a6.08,6.08,0,0,0-5.11.16l-11.47,6.62a1.76,1.76,0,0,0-1.09,1.88l31.24,18.67,25.08,15.39,17.77-10.3Z" transform="translate(0 0)"/><path class="cls-5" d="M208.66,105.15v82.06a3.53,3.53,0,0,0,1.56-.39,1.17,1.17,0,0,0,.68-.94h0v0h0V106.4Z" transform="translate(0 0)"/><polygon class="cls-7" points="231.13 95.76 231.13 94.77 230.81 94.77 230.71 95.44 231.13 95.76"/><polygon class="cls-7" points="210.9 107.43 210.9 106.42 210.6 106.85 210.9 107.43"/><path class="cls-6" d="M206.91,107.34,150.38,74.7c-3.33-1.92-3.33-5,0-7l11.47-6.62a13.35,13.35,0,0,1,12.06,0l56.53,32.63a1,1,0,0,1,0,1.92,3.71,3.71,0,0,1-3.31,0L170.6,63a6,6,0,0,0-5.44,0l-11.47,6.62c-1.5.87-1.5,2.28,0,3.14l56.53,32.64a1,1,0,0,1,0,1.91A3.64,3.64,0,0,1,206.91,107.34Z" transform="translate(0 0)"/><polygon class="cls-7" points="192.17 144.97 162.8 128.01 162.8 98.56 192.17 115.52 192.17 144.97"/><path class="cls-7" d="M230.44,95.67a3.71,3.71,0,0,1-3.31,0L170.6,63a6,6,0,0,0-5.44,0l-11.47,6.62c-1,.57-1.32,1.37-1,2.1a2.24,2.24,0,0,1,1-1l11.47-6.62a6,6,0,0,1,5.44,0l56.53,32.63a3.64,3.64,0,0,0,3.31,0c.69-.4.86-1,.5-1.48A1.56,1.56,0,0,1,230.44,95.67Z" transform="translate(0 0)"/><path class="cls-7" d="M210.22,107.34a3.64,3.64,0,0,1-3.31,0L150.38,74.7a4.51,4.51,0,0,1-2.44-3c-.27,1.43.54,2.91,2.44,4l56.53,32.64a3.64,3.64,0,0,0,3.31,0c.69-.4.86-1,.5-1.48A1.66,1.66,0,0,1,210.22,107.34Z" transform="translate(0 0)"/><path class="cls-15" d="M124.39,179.63c-3.33,1.92-3.33,5.05,0,7l56.53,32.63a3.64,3.64,0,0,0,3.31,0,1,1,0,0,0,0-1.91L127.7,184.68c-1.5-.86-1.5-2.27,0-3.14l5.48-3.16c-.61-.92-1.16-1.87-1.7-2.84Z" transform="translate(0 0)"/><path class="cls-16" d="M204.45,205.65,147.92,173a13.35,13.35,0,0,0-12.06,0l-4.38,2.53c.54,1,1.09,1.92,1.7,2.84l6-3.46a6,6,0,0,1,5.44,0l56.53,32.64a3.71,3.71,0,0,0,3.31,0A1,1,0,0,0,204.45,205.65Z" transform="translate(0 0)"/><polygon class="cls-9" points="205.13 206.67 205.14 127.18 145.9 94.16 137.61 93.61 129.6 98.8 124.69 103.08 182.4 194.61 201.25 205.71 205.13 206.67"/><polygon class="cls-14" points="183.22 216.71 200.93 206.49 200.93 129.66 182.68 138.15 183.22 216.71"/><polygon class="cls-10" points="121.9 103.69 121.9 183.05 184.08 218.62 184.91 218.29 184.91 138.82 121.9 103.69"/><path class="cls-7" d="M156.87,104.35l-12.36-7.1a6.08,6.08,0,0,0-5.11.15L127.93,104c-.89.51-1.25,1.21-1.08,1.88l31.23,18.66L183.16,140l17.77-10.31Z" transform="translate(0 0)"/><path class="cls-9" d="M182.68,137.57v82.05a3.27,3.27,0,0,0,1.55-.39,1.17,1.17,0,0,0,.68-.94h0V138.82Z" transform="translate(0 0)"/><polygon class="cls-7" points="205.14 128.17 205.14 127.18 204.82 127.18 204.72 127.85 205.14 128.17"/><polygon class="cls-7" points="184.91 139.85 184.91 138.83 184.61 139.26 184.91 139.85"/><path class="cls-10" d="M180.92,139.76l-56.53-32.64c-3.33-1.92-3.33-5,0-7l11.47-6.63a13.35,13.35,0,0,1,12.06,0l56.53,32.64a1,1,0,0,1,0,1.91,3.64,3.64,0,0,1-3.31,0L144.61,95.45a6,6,0,0,0-5.44,0l-11.47,6.62c-1.5.86-1.5,2.27,0,3.14l56.53,32.64a1,1,0,0,1,0,1.91A3.64,3.64,0,0,1,180.92,139.76Z" transform="translate(0 0)"/><polygon class="cls-7" points="166.19 177.38 136.81 160.42 136.81 130.97 166.19 147.93 166.19 177.38"/><path class="cls-7" d="M204.45,128.08a3.64,3.64,0,0,1-3.31,0L144.61,95.45a6,6,0,0,0-5.44,0l-11.47,6.62c-1,.57-1.32,1.36-1,2.09a2.22,2.22,0,0,1,1-1l11.47-6.63a6.06,6.06,0,0,1,5.44,0l56.53,32.64a3.64,3.64,0,0,0,3.31,0c.69-.4.86-1,.5-1.48A1.54,1.54,0,0,1,204.45,128.08Z" transform="translate(0 0)"/><path class="cls-7" d="M184.23,139.76a3.64,3.64,0,0,1-3.31,0l-56.53-32.64a4.58,4.58,0,0,1-2.44-3c-.27,1.43.55,2.91,2.44,4l56.53,32.63a3.64,3.64,0,0,0,3.31,0c.69-.4.86-1,.5-1.47A1.67,1.67,0,0,1,184.23,139.76Z" transform="translate(0 0)"/><path class="cls-6" d="M97.68,204.1c-3.32,1.92-3.32,5.05,0,7l56.53,32.63a3.64,3.64,0,0,0,3.31,0,1,1,0,0,0,0-1.91L101,209.15c-1.5-.86-1.5-2.27,0-3.14l5.47-3.16c-.61-.92-1.16-1.87-1.7-2.84Z" transform="translate(0 0)"/><path class="cls-5" d="M177.75,230.12l-56.53-32.64a13.35,13.35,0,0,0-12.06,0L104.77,200c.54,1,1.09,1.92,1.7,2.84l6-3.46a6,6,0,0,1,5.44,0L174.43,232a3.73,3.73,0,0,0,3.32,0A1,1,0,0,0,177.75,230.12Z" transform="translate(0 0)"/><polygon class="cls-5" points="178.43 231.14 178.43 151.65 119.19 118.63 110.91 118.08 102.9 123.27 97.98 127.55 155.7 219.08 174.54 230.18 178.43 231.14"/><polygon class="cls-14" points="156.52 241.18 174.22 230.96 174.22 154.13 155.97 162.62 156.52 241.18"/><polygon class="cls-6" points="95.19 128.16 95.19 207.52 157.38 243.09 158.21 242.76 158.21 163.29 95.19 128.16"/><path class="cls-7" d="M130.17,128.82l-12.36-7.1a6.1,6.1,0,0,0-5.12.15l-11.47,6.63a1.75,1.75,0,0,0-1.08,1.88L131.37,149l25.09,15.4,17.76-10.31Z" transform="translate(0 0)"/><path class="cls-5" d="M156,162v82.05a3.24,3.24,0,0,0,1.55-.39,1.19,1.19,0,0,0,.69-.94h0V163.29Z" transform="translate(0 0)"/><polygon class="cls-7" points="178.43 152.64 178.43 151.65 178.12 151.65 178.02 152.32 178.43 152.64"/><polygon class="cls-7" points="158.21 164.32 158.21 163.3 157.9 163.73 158.21 164.32"/><path class="cls-6" d="M154.21,164.23,97.68,131.59c-3.32-1.92-3.32-5,0-7L109.16,118a13.35,13.35,0,0,1,12.06,0l56.53,32.64a1,1,0,0,1,0,1.91,3.66,3.66,0,0,1-3.32,0l-56.52-32.63a6,6,0,0,0-5.44,0L101,126.54c-1.5.86-1.5,2.27,0,3.14l56.52,32.64a1,1,0,0,1,0,1.91A3.64,3.64,0,0,1,154.21,164.23Z" transform="translate(0 0)"/><polygon class="cls-7" points="139.48 201.85 110.11 184.89 110.11 155.44 139.48 172.4 139.48 201.85"/><path class="cls-7" d="M177.75,152.55a3.66,3.66,0,0,1-3.32,0l-56.52-32.63a6,6,0,0,0-5.44,0L101,126.54c-1,.57-1.32,1.36-1,2.09a2.25,2.25,0,0,1,1-1L112.47,121a6.06,6.06,0,0,1,5.44,0l56.52,32.64a3.66,3.66,0,0,0,3.32,0c.69-.4.85-1,.5-1.48A1.66,1.66,0,0,1,177.75,152.55Z" transform="translate(0 0)"/><path class="cls-7" d="M157.52,164.23a3.64,3.64,0,0,1-3.31,0L97.68,131.59a4.58,4.58,0,0,1-2.44-3c-.26,1.43.55,2.91,2.44,4l56.53,32.63a3.64,3.64,0,0,0,3.31,0c.7-.4.86-1,.51-1.47A1.73,1.73,0,0,1,157.52,164.23Z" transform="translate(0 0)"/></g><polygon class="cls-2" points="288.64 88.52 275.09 80.7 288.64 72.88 302.19 80.7 288.64 88.52"/><polygon class="cls-9" points="302.19 70.77 288.64 78.59 288.64 62.95 302.19 55.13 302.19 70.77"/><polygon class="cls-18" points="288.64 62.95 275.09 55.13 288.64 47.3 302.19 55.13 288.64 62.95"/><polygon class="cls-10" points="288.64 78.59 275.09 70.77 275.09 55.13 288.64 62.95 288.64 78.59"/><polygon class="cls-7" points="283.76 70.14 279.97 67.95 279.97 63.58 283.76 65.77 283.76 70.14"/><polygon class="cls-2" points="14.11 270.87 0 262.73 14.1 254.58 28.21 262.73 14.11 270.87"/><polygon class="cls-4" points="28.21 252.39 14.11 260.53 14.11 244.25 28.21 236.1 28.21 252.39"/><polygon class="cls-6" points="14.11 244.25 0 236.1 14.1 227.96 28.21 236.1 14.11 244.25"/><polygon class="cls-5" points="14.11 260.53 0 252.39 0 236.1 14.11 244.25 14.11 260.53"/><polygon class="cls-7" points="9.03 251.73 5.08 249.46 5.08 244.9 9.03 247.18 9.03 251.73"/><path class="cls-10" d="M145.22,20.68,110,.33a1.83,1.83,0,0,0-1.83-.15v0l-3.42,2,2.4.87V28.68A6.76,6.76,0,0,0,110,34.09l33.68,19.45v3l3.45-2h0a2.51,2.51,0,0,0,1-2.26V26.09A6.79,6.79,0,0,0,145.22,20.68Z" transform="translate(0 0)"/><path class="cls-10" d="M141.74,56.45,106.49,36.1a6.8,6.8,0,0,1-2.83-5.42V4.48c0-2.09,1.27-3.05,2.83-2.14l35.25,20.34a6.81,6.81,0,0,1,2.83,5.42V54.3C144.57,56.39,143.3,57.35,141.74,56.45Z" transform="translate(0 0)"/><path class="cls-7" d="M142.6,22.06,107.36,1.71a1.66,1.66,0,0,0-2.37.34,2,2,0,0,1,1.5.29l35.25,20.34a6.81,6.81,0,0,1,2.83,5.42V54.3a3.14,3.14,0,0,1-.47,1.81c.8-.21,1.34-1.08,1.34-2.43V27.48A6.78,6.78,0,0,0,142.6,22.06Z" transform="translate(0 0)"/><path class="cls-7" d="M118.35,27.07c0,1.52-1.07,2.13-2.38,1.37a5.25,5.25,0,0,1-2.38-4.11c0-1.52,1.07-2.14,2.38-1.38A5.28,5.28,0,0,1,118.35,27.07Z" transform="translate(0 0)"/><path class="cls-7" d="M125.55,31.23c0,1.52-1.07,2.13-2.38,1.37a5.27,5.27,0,0,1-2.38-4.12c0-1.51,1.07-2.13,2.38-1.37A5.27,5.27,0,0,1,125.55,31.23Z" transform="translate(0 0)"/><path class="cls-7" d="M132.75,35.39c0,1.52-1.06,2.13-2.38,1.37A5.26,5.26,0,0,1,128,32.64c0-1.51,1.06-2.13,2.37-1.37A5.24,5.24,0,0,1,132.75,35.39Z" transform="translate(0 0)"/></svg>