<svg id="Layer_1" data-name="Layer 1" xmlns="http://www.w3.org/2000/svg" viewBox="0 0 495.21 476"><defs><style>.cls-1{fill:#d3ebfe;}.cls-2{fill:#8a9ebc;}.cls-3{fill:#295b8d;}.cls-4{fill:#295a8c;}.cls-5{fill:#173d79;}.cls-6{fill:#295b8c;}.cls-7{fill:#56cbf1;}.cls-8{fill:#5792cd;}.cls-9{fill:#5793cd;}.cls-10{fill:#396caa;}.cls-11{fill:#20496b;}.cls-12{fill:#fdfdfe;}.cls-13{fill:#396ba9;}.cls-14{fill:#fec2b0;}.cls-15{fill:#274f88;}.cls-16{fill:#e99c92;}.cls-17{fill:#fdfefe;}.cls-18{fill:#fec1af;}.cls-19{fill:#5893cd;}.cls-20{fill:#5a94ce;}.cls-21{fill:#fefefe;}.cls-22{fill:#d3ebfd;}.cls-23{fill:#fec2af;}.cls-24{fill:#d1e9fb;}.cls-25{fill:#3a6caa;}.cls-26{fill:#396baa;}.cls-27{fill:#fdfdfd;}.cls-28{fill:#d2eafd;}.cls-29{fill:#183e7b;}.cls-30{fill:#e6f3fe;}.cls-31{fill:#7fa3c5;}.cls-32{fill:#fcfdfd;}.cls-33{fill:#fefcfc;}.cls-34{fill:#fbfcfd;}.cls-35{fill:#d1eafd;}</style></defs><g id="yPgnBo.tif"><path class="cls-1" d="M226.55,191.48a5.13,5.13,0,0,1-5.19-3.68,25.45,25.45,0,0,1-1-12.37c.1-.72.42-.58.82-.37,1.79.94,3.33.22,4.71-.86,3.46-2.7,7.51-3.78,11.72-4.53a18.89,18.89,0,0,1,10.95,1c4.36,1.86,6.69,5.52,8.28,9.76a23.37,23.37,0,0,1,1.21,4.48c.09.5.13.95.78.93a26.46,26.46,0,0,1,7.77,1.16,17,17,0,0,1-3.56-5.79c-1.5-4.21-1-8.4,0-12.65,2.4-10.61,4.63-21.25,6.95-31.88,1.62-7.4,3.3-14.79,4.94-22.18q3.58-16.31,7.16-32.62c2.7-12.28,5.37-24.57,8.12-36.84.83-3.7,3-6.29,6.84-7.18,2.45-.48,4.35.83,6.31,2q16.54,9.51,33.05,19.08,16.17,9.34,32.35,18.71,21.6,12.44,43.18,24.9c12.82,7.37,25.61,14.81,38.43,22.2,6.7,3.86,13.3,7.91,20.13,11.54s9.14,11.37,7.62,18.32q-4.19,19.17-8.42,38.34c-3.55,16-7,32-10.58,48.06-2.69,12.22-5.41,24.43-8,36.67-.68,3.21-1.58,6.22-3.75,8.75a6.87,6.87,0,0,1-7,1.15c.42.62.93,1.16.85,1.94a7.58,7.58,0,0,1-3.43,4.27c-7.44,4.44-15,8.7-22.49,13q-10.46,6-20.9,12.07Q370,333,345.68,347c-8.13,4.7-16.23,9.44-24.41,14.06a21.88,21.88,0,0,1-17.87,1.86c-2.38-.74-4.41-2.3-6.56-3.55q-20.58-12-41.25-23.82c-8.14-4.68-16.24-9.44-24.38-14.12a3.49,3.49,0,0,1-1.58-1.21c0-.67.54-.83,1-1.1C236.84,315,243.08,311,249.43,307c5.41-3.34,8.5-8.35,10.32-14.29a15.09,15.09,0,0,1,.69-2.23c1.68-1.74,1.86-3.86,1.88-6.17.05-5-.54-10,0-15.06a1.57,1.57,0,0,1,1.15-1.27,77.53,77.53,0,0,1,8.41,4.67c10.16,5.77,20.23,11.68,30.35,17.51a3,3,0,0,0,3.22.1c2.64-1.44,5.2-3,7.84-4.47,1.29-.7,1.27-1.17,0-1.92q-16.43-9.54-32.9-19c-4.06-2.32-8.07-4.72-12.14-7a2.31,2.31,0,0,1-1.08-1.08,1.1,1.1,0,0,1,.32-1.28c2.09.16,3.79-.79,5.46-1.86,1.22-.79,2.52-1.45,3.77-2.18,1.56-.9,1.56-1.23.09-2.18a50.18,50.18,0,0,1-4.9-3,1.62,1.62,0,0,1-.18-.89c.15-.87.68-1,1.35-.62a3.57,3.57,0,0,0,3.83-.26q2.9-1.68,5.78-3.37c1.11-.65,1.14-1.13.05-1.78-2.13-1.28-4.32-2.48-6.45-3.77a2.53,2.53,0,0,0-2.65.14c-1,.48-1.79,1.28-2.94,1.34-.51-.24-.53-.71-.57-1.18a2,2,0,0,1,1-1.8c.82-.56.65-1-.09-1.54a8.43,8.43,0,0,1-1.68-1.11,1.56,1.56,0,0,1-.4-1c.09-.79.59-.93,1.22-.69a3.15,3.15,0,0,0,2.8-.48c2.08-1.16,4.16-2.32,6.2-3.55,1.15-.7,1.13-1,0-1.73-1.74-1.11-3.61-2-5.34-3.16a3.82,3.82,0,0,0-4.74.06c-.77.54-1.59,1.21-2.69.92a2.29,2.29,0,0,1-.77-1.86c.22-.64.8-.9,1.32-1.25,1.23-.82,1.23-1,0-1.8-1.36-.86-2.79-1.59-4.17-2.42-.68-.86-1.76-1.48-1.66-2.8,1-.38,1.69.39,2.37.85a3.42,3.42,0,0,0,4.3,0c1.8-1.22,3.79-2.15,5.64-3.3,1.31-.81,1.33-1.13.06-1.91-1.94-1.2-4-2.29-5.93-3.42a3.15,3.15,0,0,0-3.4,0c-1.82,1.1-3.69,2.12-5.53,3.19a4.37,4.37,0,0,1-1.84.78,2.42,2.42,0,0,1-1.68-1.11c0-.79.65-1,1.17-1.29,1.78-1,3.58-2.06,5.36-3.1,1.28-.75,1.27-1.21,0-1.94-1.65-.95-3.31-1.92-4.94-2.9-1-.62-1.79-.77-2.75.12-.7.65-1.6,1.05-2.38,0a6,6,0,0,0-1.22-2.94,2.11,2.11,0,0,1,1.13-3.45c1.06-.36,1.71-.8,1.28-2-.31-.85-1.72-1.08-2.71-.46a7.45,7.45,0,0,0-1.74,2c-1.56,2-2.23,2.08-4.11.4a5.84,5.84,0,0,0-1.22-.94c-3.29-1.34-6.62-.93-9.94-.18-1.57.35-3.08.92-4.61,1.42C227.84,191.67,227.19,192,226.55,191.48Z" transform="translate(-1.89 -14)"/><path class="cls-2" d="M450.33,347c0,.84.79.9,1.27,1.19,2.72,1.61,5.45,3.21,8.22,4.74,2.19,1.22,3.65,2.82,3.6,5.51s-1.49,4.12-3.62,5.34q-28.65,16.5-57.26,33.06-24.43,14.12-48.9,28.21c-14.42,8.32-28.78,16.74-43.28,24.91A19.82,19.82,0,0,1,290,450c-18.31-10.38-36.49-21-54.72-31.52l-46.89-27.06-52-30c-5-2.9-10-5.82-15.11-8.67-2.15-1.22-3.51-2.81-3.51-5.42s1.42-4.19,3.55-5.39c2.93-1.66,5.84-3.37,8.75-5.07.35-.2.8-.3.88-.8.64-.25,1.08.19,1.56.46q20.66,11.92,41.3,23.9c4.26,2.46,8.53,4.91,12.78,7.39.66.39,1.44.67,1.51,1.61-1,2.63-2.33,5.09-3.11,7.79a20.13,20.13,0,0,0-1,6.58c.12,2.44,1.3,3.6,3.73,3.58a6.54,6.54,0,0,0,4.95-2.24,66.5,66.5,0,0,0,5.73-7.35,5.43,5.43,0,0,1,1.36-1.69,1.58,1.58,0,0,1,1.46.17c1.24.71,2.45,1.46,3.69,2.17a1.43,1.43,0,0,1,.8,1.22c-.34,2-1.61,3.57-2.21,5.45a40.12,40.12,0,0,0-1.65,6.47c-.25,1.87-.19,3.88,1.46,4.95s3.7.71,5.49-.22a8.43,8.43,0,0,0,2.67-2.34,74.71,74.71,0,0,0,5-6.71c.3-.48.59-1,1.2-1.15a13.06,13.06,0,0,1,4,2q21.42,12.36,42.82,24.76,14.21,8.19,28.39,16.45a6.29,6.29,0,0,0,2,.92c1.11.41,1.81,1.48,3,1.83,1.68,1.3,3.21.57,4.74-.33,5.95-3.49,11.95-6.92,17.93-10.37q19.35-11.16,38.72-22.3,17.52-10.12,35.07-20.22,20.37-11.73,40.74-23.46c4.41-2.53,8.84-5,13.22-7.62C448.88,347.4,449.44,346.7,450.33,347Z" transform="translate(-1.89 -14)"/><path class="cls-3" d="M294.89,430.4c-.58.7-.93-.06-1.28-.27q-16.25-9.33-32.47-18.73-21.33-12.34-42.65-24.72c-.22-.13-.42-.29-.63-.44-.48-.92.3-1.45.68-2.05,1.54-2.39,2.36-4.85,1.18-7.64-.38-.9-.81-1.74-2-1.65a1.8,1.8,0,0,1-.06-1.63c.74-.81,1.43-.24,2.08.13,5.17,3,10.3,6,15.47,9,15.85,9.14,31.67,18.34,47.52,27.47,4.67,2.69,9.35,5.38,14,8.12a4,4,0,0,0,1.55.69c3.75-1.8,7.24-4.05,10.84-6.1,11.15-6.34,22.25-12.74,33.38-19.11q18.3-10.5,36.6-21c11-6.34,22.12-12.54,33.08-19q21.21-12.48,42.31-25.13c4.56-2.73,6.87-7.1,7.25-12.4a37.87,37.87,0,0,0,0-4.52c-.07-1.63-.49-1.86-1.89-1.07-6,3.38-12,6.88-18,10.32-13.42,7.69-26.79,15.46-40.21,23.16-11.79,6.77-23.55,13.6-35.35,20.37q-19.38,11.13-38.73,22.3c-8.41,4.83-16.79,9.74-25.24,14.52-1.26.72-2.54,1.21-4,.48a1.21,1.21,0,0,1-.66-.9A9,9,0,0,1,302,390.09q17.77-10.26,35.56-20.49l69.9-40.3q26.47-15.24,53-30.44a13.2,13.2,0,0,1,4.65-1.68c5.56-.85,9.3,1.45,10.66,6.84a30.4,30.4,0,0,1-.61,16.59c-2.64,8.52-7.3,15.68-14.88,20.62-3.21,2.09-6.63,3.85-10,5.76l-37.28,21.52q-26.32,15.18-52.66,30.36T307.7,429.18c-2,1.17-4.05,2.31-6.06,3.49a3,3,0,0,1-4-.35c-1.42-1.54-1-3.33-.46-5a9.58,9.58,0,0,1,4.1-5.51c4.56-2.78,9.24-5.36,13.87-8,12.26-7.11,24.56-14.14,36.82-21.23,13-7.52,26-15,39-22.46s26.26-15.13,39.4-22.68c9.55-5.47,19.12-10.9,28.57-16.53a15.15,15.15,0,0,0,7.76-13.68c0-1.3,0-2.6,0-3.9a4.1,4.1,0,0,0-2.07-3.6c.5,4.08.89,8.08-.76,12a16.91,16.91,0,0,1-7.21,8.5c-6.27,3.57-12.51,7.19-18.76,10.8q-13.43,7.72-26.84,15.47c-12.88,7.38-25.71,14.83-38.59,22.23q-13.37,7.66-26.71,15.38c-11.69,6.73-23.35,13.52-35.08,20.19-3.57,2-7.07,4.16-10.65,6.15a10.23,10.23,0,0,0-5.05,6.95C294.73,428.38,295.34,429.4,294.89,430.4Z" transform="translate(-1.89 -14)"/><path class="cls-4" d="M269.23,230.43l.35.95c1.07,1.29.82,2.85.88,4.35.16.4,0,.91.36,1.25a17.08,17.08,0,0,1,1.25,7.51c0,.3-.22.58,0,.89l.13.85a8,8,0,0,1,.86,5.19c-.07.83-.79,1.14-1.52,1.34-1.38.38-2.78.71-4.2,1a31.75,31.75,0,0,1-10.95.54c-.81-.13-1,.18-1,.91,0,1.5,0,3,0,4.51a5.54,5.54,0,0,1-1.67,4.2c-2.07,2.18-4.37,4.12-6.58,6.15-4.26,3.93-8.64,7.74-12.85,11.73a23.89,23.89,0,0,1-3.08,2.61c-1.2.82-2.47,1.58-4.05,1-3.72-2-7.34-4.29-11.07-6.34a3.11,3.11,0,0,1-.85-.68,6.55,6.55,0,0,1-1.23-4.85c.37-4.43.4-8.89,1-13.31,0-.1,0-.2.05-.3a160.14,160.14,0,0,0,3.06-16.24c.06-.46.2-.9.28-1.36.32-.95-.31-1.23-1-1.57a30.87,30.87,0,0,1-8.66-6,11.47,11.47,0,0,1-1.16-1.35c-2-1.8-2.41-3.74-.93-6.14a30.9,30.9,0,0,0,2.18-4.1c.75-.87-.42-2.22.74-3A7.83,7.83,0,0,0,212,218c1.87-2.85,3.79-5.67,5.93-8.34,1.67-2.08,3.14-4.36,5.27-6.05,1.71-2.86,4.66-3.23,7.54-3.76a1,1,0,0,1,1,.21,16.61,16.61,0,0,0,4.67,2.56c.33.12.65.32.58.77-.49,1.05-1.59,1.63-2.05,2.71a6.39,6.39,0,0,0,1.48,7.44c2.63,2.71,3,5.73,1.74,9.15-1.92,5.2-4,10.36-5.94,15.55a3.89,3.89,0,0,0-.09,2.71c1.14,3.4,2.14,6.84,3.28,10.23.5,1.49.79,1.55,1.76.35,2-2.55,3.93-5.22,6-7.78a3.29,3.29,0,0,0,.63-2.49c-.53-5.26-1.18-10.5-1.81-15.75-.14-1.18-.22-2.37-.32-3.56-.17-1.95,2.49-4.67,4.55-4.71a8.31,8.31,0,0,0,5.07-1.69,5.9,5.9,0,0,0,1.42-8.4c-.56-.87-1.37-1.56-1.86-2.47.05-.71.55-.74,1-.51,1.28.7,2.72,1.19,3.56,2.53l1.5,1c2,.75,3.18,2.38,4.36,4l1.87,2.52a11.29,11.29,0,0,1,2.82,5.59l.65,1.82a2.28,2.28,0,0,1,.76,1C268.14,225.16,269.26,227.65,269.23,230.43Z" transform="translate(-1.89 -14)"/><path class="cls-1" d="M223.15,203.63c-3.39,4.37-7,8.59-10,13.23-.9,1.38-1.67,2.88-3.36,3.53-.42.16-.9.67-.47,1.1.74.75.11,1.19-.19,1.74-.1.05-.22.12-.3.08-2-1.07-3.63,0-5.31,1-2,1.2-4.06,2.3-6,3.54-1.24.77-1.26,1.09,0,1.8,2,1.21,4.09,2.45,6.19,3.6a2.61,2.61,0,0,0,2.66.09,1.45,1.45,0,0,1,1.61-.11l1,1.22a8,8,0,0,1-.33,4.15c-1.6,5.7-.87,11.42-.37,17.14.42,4.8.7,9.61,1.12,14.41.15,1.69.61,3.39.17,5.1-.61,1.08-1.33.41-1.95,0l-11.68-6.73c-4.35-2.5-8.59-5.17-13.07-7.45-2-.1-3,.78-3,2.79-.06,4,0,8,0,11.94,0,4.29,0,8.58,0,12.87,0,.75.15,1.57-.51,2.18l-22.45-12.94c-7.22-4.15-14.45-8.27-21.67-12.42-1.57-.91-3.15-1.8-4.64-2.83-2.22-1.53-2.28-3-.46-5s4.4-3.07,6.71-4.42c7.09-4.16,14.22-8.26,21.35-12.36,6-3.43,11.94-6.81,17.9-10.24,6.72-3.87,13.42-7.78,20.14-11.66q12.83-7.43,25.66-14.81A11.74,11.74,0,0,1,223.15,203.63Z" transform="translate(-1.89 -14)"/><path class="cls-4" d="M440.93,289.64c0-1-.79-1.52-1.29-2.57,2.82,1.19,5.24.48,7.57-.84a2.62,2.62,0,0,1,1.41-1.1,4.08,4.08,0,0,1,1.35.13c1.71,1.7,4,2.54,6,3.75,3.72,2.25,7.51,4.38,11.26,6.67-4.25-.86-7.85.74-11.37,2.77q-44.44,25.64-88.91,51.25-33.75,19.46-67.5,38.88a13.47,13.47,0,0,0-3.6,3.58c-.7.42-1.19-.12-1.7-.41-7.1-4-14.11-8.12-21.17-12.18-11.29-6.49-22.54-13.05-33.83-19.54q-10-5.77-20.07-11.62a2.32,2.32,0,0,1-1.2-1.17c-.12-3-.44-6-.47-9a68.73,68.73,0,0,0-.23-8.24c-.3-2.2.55-3.17,3.38-4.34a2.33,2.33,0,0,1,1.57.56c22.3,13,44.7,25.76,67,38.75,4.13,2.41,8.33,4.69,12.42,7.14,1.45.87,1.62.76,1.63-.93,0-1.35,0-2.7,0-4,0-.61-.11-1.28.55-1.68a4.51,4.51,0,0,1,2.27.31,22.89,22.89,0,0,0,11.58-.85,3.75,3.75,0,0,1,1.64-.38c.75.32.59,1,.61,1.61.05,1.3,0,2.6,0,3.9,0,1.86.07,1.92,1.73.92,2.63-1.57,5.31-3,8-4.58l36-20.78q24.41-14.09,48.81-28.17c7.47-4.3,14.89-8.66,22.37-12.93,2.76-1.57,4.46-3.83,4.17-7.23-.14-1.7.2-3.43-.26-5.11A4.62,4.62,0,0,1,440.93,289.64Z" transform="translate(-1.89 -14)"/><path class="cls-1" d="M448.13,52.57A36.25,36.25,0,0,1,447,59q-2.79,14.8-5.83,29.57c-.33,1.58-.39,3.28-1.41,4.7a3.22,3.22,0,0,1-4.31,1c-8.74-5-17.45-10.13-26.19-15.17Q397.66,72.36,386,65.71a7.55,7.55,0,0,1-3.65-8c2.16-11,4.37-21.93,6.49-32.9.31-1.62.73-3.22,1-4.85a5.08,5.08,0,0,1,2.5-3.37c.41-.3.77-.09,1.17,0a18.15,18.15,0,0,1,4.13,2.13Q408.31,24.9,419,31.1l18.67,10.81c2.24,1.29,4.5,2.54,6.71,3.89C447.11,47.48,448.11,49.36,448.13,52.57Z" transform="translate(-1.89 -14)"/><path class="cls-4" d="M186.27,120.4c.35-3.06,1.16-6.34,1.81-9.64,1.8-9.25,3.65-18.5,5.48-27.75.1-.51.18-1,.32-1.52.89-3.11,2.86-3.94,5.63-2.34q15.77,9.07,31.5,18.19l17,9.77c3.51,2,4.82,4.87,4,8.88-.6,3.1-1.24,6.2-1.85,9.3q-2.64,13.33-5.28,26.68a11.1,11.1,0,0,1-.48,1.8c-1,2.6-2.89,3.25-5.3,1.86q-24.43-14.12-48.9-28.2C187.55,125.89,186.4,123.65,186.27,120.4Z" transform="translate(-1.89 -14)"/><path class="cls-5" d="M221,325.76c-.13.07-.27.16-.41.22-2.37,1.09-3.77,2.64-2.72,5.46a4.17,4.17,0,0,1,0,1.54c-.22,4.87.36,9.73.32,14.59a3.25,3.25,0,0,1,.48,2.21,53.71,53.71,0,0,0,.16,6.47c.29,3,.09,6,.13,9,0,2,.57,3.89,0,5.84a3,3,0,0,1-1.11,2c-1.23,2.39-5.09,3.63-8,2.56a5.79,5.79,0,0,1-1.24-.63,5.13,5.13,0,0,1-2.06-3.51c-.43-2.35-.5-4.73-.84-7.08-.83-4.69-1.33-9.43-2-14.14-.11-.77-.24-1.54-.32-2.31a2.7,2.7,0,0,0-1.49-2c-.68-.41-1.06-.37-1,.53,0,1.71,0,3.41.12,5.12a45.15,45.15,0,0,1-.18,11.14,4,4,0,0,1-.7,1.34c-2.18,3.23-5.37,3.16-8.69,2.65.08,2,.72,2.86,2.51,3.34a7.68,7.68,0,0,0,2.78.2c2-.21,2.91-1.22,3-3.25a4.54,4.54,0,0,1,.33-2.57c1.21-.35,1.71.56,2.15,1.34a8.5,8.5,0,0,1-2.36,10.6,58.84,58.84,0,0,1-7.24,9.46,6.68,6.68,0,0,1-5,2,3.64,3.64,0,0,1-4-3.77c-.24-3.67.93-7,2.28-10.35a19.65,19.65,0,0,1,2.11-4.29,5.5,5.5,0,0,1,1.2-3,1.63,1.63,0,0,0,.29-1.72c-1.28-2.68-1.24-5.62-1.58-8.48a7.51,7.51,0,0,0-.27-2c-.85-4.69-1.27-9.43-2-14.14-.21-1.44-.43-2.87-.61-4.31-.12-2.6-.77-5.14-1-7.74-.41-3.43-.86-6.86-1.35-10.27a15.48,15.48,0,0,1,2.81-11.87c1.29-1.67,2.94-3,4.21-4.7a1.74,1.74,0,0,1,1-.63l.32-.35c.62-.25,1.1.12,1.58.4,7.26,4.23,14.58,8.36,21.79,12.66,1.71,1,3.58,1.63,5.35,2.49,1.25.6,2.44-.07,3.53-.69,4.06-2.29,8-4.71,12.1-7,3.25-1.85,6.44-3.79,9.73-5.54,1.88-1,2.93-2.23,2.51-4.42a1.83,1.83,0,0,0-1.14-1.53c-.76-.44-1.53-.86-2.27-1.32-.46-.28-1.06-.53-.84-1.28,1.52-.88,3.24-.43,4.85-.62a38.67,38.67,0,0,0,11-2.6c.39-.17,1-.75,1.32.15-1.63,7.27-5.25,13.07-11.82,17s-12.7,8.15-19,12.24c-.41.86-1.31,1.11-2,1.6-1.65,1.05-3.27,2.17-4.91,3.24A3,3,0,0,1,221,325.76Z" transform="translate(-1.89 -14)"/><path class="cls-6" d="M7,313c-2.41-2.57-4.55-5.31-4.92-9a44.8,44.8,0,0,1,0-7.77,5,5,0,0,0,.08-1.08c-.88-6,2.12-10.26,6.57-13.7,5-3.87,10.82-5.86,17-6.91,10.23-1.74,20.26-1.07,29.94,2.91a26.86,26.86,0,0,1,10.07,6.86c4.72,5.32,4.84,11.76.24,17.2a27.67,27.67,0,0,1-13.28,8.32,53.45,53.45,0,0,1-36.42-.92c-5.2-2-9.82-5-12.65-10.05-.45-.8-.77-1.68-1.25-2.5a8.38,8.38,0,0,0,1.24,3.89c2.6,4.6,6.7,7.53,11.43,9.44,14.41,5.82,28.82,5.73,43-.82A20.3,20.3,0,0,0,67.87,300a12.74,12.74,0,0,0,1.2-3.43c.91,6.45,0,12.05-4.82,16.46-.13.75-.74,1.1-1.27,1.5a38.12,38.12,0,0,1-15.56,6.73,54.05,54.05,0,0,1-31.73-2.53,28.29,28.29,0,0,1-7.63-4.43C7.63,313.9,7.13,313.58,7,313Z" transform="translate(-1.89 -14)"/><path class="cls-2" d="M201.4,472.82a6.24,6.24,0,0,1-3.56,4.64c-5.83,3.18-11.78,3.73-17.75.29l-42.41-24.49c-3.09-1.79-3.71-3.5-2.31-6.67.25-.57.17-.83-.31-1.12-3.58-2.09-7.16-4.18-10.73-6.3a1.36,1.36,0,0,0-1.44.08c-11.11,5.47-23,6.86-35.12,6.06-9.56-.63-18.72-2.95-27-8.07-4.61-2.85-8.52-6.42-10.67-11.58a15.13,15.13,0,0,1-.71-9.73,6.78,6.78,0,0,0,.21-2,.42.42,0,0,1,.51.24,25.75,25.75,0,0,0,8,9.1,1.49,1.49,0,0,1,.45.62,15.89,15.89,0,0,0,4.57,5.81c6,5,13.11,7.47,20.69,8.65a60.55,60.55,0,0,0,26.63-1.5c6-1.77,11.64-4.39,16-9.17a4.19,4.19,0,0,0,1.17-1.62,1.14,1.14,0,0,1,.54-.72c2.18-1.06,3.82-2.91,6-4a7.6,7.6,0,0,1,3.95,2.59c-.43,3-2.11,5.37-4,7.58a34.26,34.26,0,0,1-3.31,3.29c-.58.51-.61.89.11,1.29,3.26,1.81,6.43,3.8,9.68,5.64a1.77,1.77,0,0,0,1.5.19c1.68-.61,3.48-.51,5.18-1A20,20,0,0,1,151,443c14.66,8.58,29.36,17.09,44,25.66.7.4,1.24,1.13,2.15,1.16a11.63,11.63,0,0,0,3.58,1.77C201.44,471.69,201.65,472.15,201.4,472.82Z" transform="translate(-1.89 -14)"/><path class="cls-1" d="M404.12,419.6A29.53,29.53,0,0,0,410.7,416a4.22,4.22,0,0,1,1.32-.75c3.45-.08,5.78,1.93,7.81,4.33a16.06,16.06,0,0,1,4.08,10.29,5.49,5.49,0,0,1-1.36,3.85c-2.79,1.67-5.57,3.35-8.37,5q-8.34,4.94-16.71,9.84-10.5,6.15-21,12.3-8,4.73-16,9.48c-3.25,1.91-6.48,3.86-9.76,5.72-2.36,1.35-5.75.4-7.57-2,.33-1.32,1.55-1.38,2.53-1.78,3.41.36,4.45-.89,3.4-4.18a9.91,9.91,0,0,0-4.49-5.73c-2.3-1.35-3.7-.7-4.16,1.94a3.3,3.3,0,0,1-.19.75c-.65.69-1.26,1.45-2.38,1.22-.16-1.38-.31-2.75-.34-4.15a5.1,5.1,0,0,1,2.92-4.73l3.32-2c.56.6.85,1.39,1.66,1.8,1.37.7,2.35.29,2.57-1.24.15-1,0-2.08.07-3.11,0-.56-.08-1.17.5-1.55a2,2,0,0,0,2.14-.32c4.42-2.7,8.92-5.27,13.38-7.91a3.64,3.64,0,0,1,1.26-.59,1.65,1.65,0,0,1,.9.22c2.22,1.3,4.36.71,6.34-.46,10.24-6,20.52-12,30.73-18,.27-.16.54-.31.8-.49,1.55-1.05,1.64-2.15.31-3.53A.76.76,0,0,1,404.12,419.6Z" transform="translate(-1.89 -14)"/><path class="cls-3" d="M186.08,305.82c-3.26,4.12-3.54,8.83-2.75,13.77.45,2.77.8,5.56,1.19,8.35-.64.27-1.08-.19-1.56-.46-8.76-5-17.43-10.1-26.16-15.11-14.86-8.53-29.65-17.16-44.49-25.72a60.64,60.64,0,0,1-6-3.58,7.54,7.54,0,0,1,3.25-3.82c6.07-3.55,12.19-7,18.28-10.51.52-.06.6.36.65.69.39,2.67,2.18,4.18,4.42,5.32a14.08,14.08,0,0,1,1.61.9q15.59,9,31.22,18c6.5,3.74,13,7.48,19.49,11.29A1.74,1.74,0,0,1,186.08,305.82Z" transform="translate(-1.89 -14)"/><path class="cls-7" d="M217.64,373.09a5.26,5.26,0,0,0,1.05-3.36c-.06-4.51-.25-9-.4-13.52.17-1.57.31-1.65,1.79-.8,8.91,5.13,17.79,10.3,26.69,15.43,14.52,8.37,29,16.83,43.53,25.17a36,36,0,0,1,4.87,3,5.74,5.74,0,0,0,2.54,1.53l.52.56a2.86,2.86,0,0,1,.52,2.06c0,4.62,0,9.24,0,13.86a3.56,3.56,0,0,1-.46,2.09c-3.83-1.84-7.41-4.13-11.08-6.24q-18.73-10.77-37.41-21.64l-30.27-17.53a2.75,2.75,0,0,0-1.71-.63Z" transform="translate(-1.89 -14)"/><path class="cls-3" d="M134,421.49a34.92,34.92,0,0,1-6.22,4.52,3.63,3.63,0,0,1-1.9,1.53,65.08,65.08,0,0,1-20.49,6.15,74.82,74.82,0,0,1-15.53.57c-10.21-.65-20-2.87-29-8.16a5.51,5.51,0,0,1-2.56-2.19c-3.64-2.68-6.81-5.78-8.71-10a17.24,17.24,0,0,1-1.55-7.39c0-4.25,0-8.5,0-13,3.15,11.54,11.95,16.87,22,20.35a73.22,73.22,0,0,0,51.43-.81c6.07-2.32,11.53-5.69,15.63-10.9,2-2.49,3.55-5.22,3.77-8.52l0,0c.47.46.36,1.05.36,1.61,0,3.78,0,7.56,0,11.34a18.76,18.76,0,0,1-2.58,9.45c-.46.82-1,.25-1.44,0-1.5-.71-2.86-1.67-4.31-2.47a2.08,2.08,0,0,0-2.82.26,4,4,0,0,0-1.3,3.63c.11.55.61.81,1.07,1.06,1,.58,2.06,1.2,3.07,1.83C133.39,420.7,133.94,420.86,134,421.49Z" transform="translate(-1.89 -14)"/><path class="cls-2" d="M353.12,490a7.1,7.1,0,0,1-4.33-.89c-2.51-1.54-2.58-3.84,0-5.34,4-2.36,8-4.63,12-6.94l55.9-32.3q26.19-15.13,52.39-30.27a10.92,10.92,0,0,1,8.52-1.2,6.43,6.43,0,0,1,1.59.63c2.84,1.59,2.9,3.91.09,5.59-3.83,2.29-7.7,4.49-11.57,6.72L420.77,453l-45.93,26.53q-7.47,4.32-14.94,8.65C357.09,489.85,356.73,490,353.12,490Z" transform="translate(-1.89 -14)"/><path class="cls-8" d="M248,298c.46,2.3-.45,3.66-2.54,4.82-7.39,4.09-14.66,8.4-22,12.63a4.81,4.81,0,0,1-5,.23c-9.46-4.61-18.2-10.5-27.46-15.45-3-1.76-6-3.58-9-5.24a5,5,0,0,1-2.9-4.11c0-9.13.07-18.26,0-27.39a2.86,2.86,0,0,1,1.84-2.75,1.63,1.63,0,0,1,2.23.2c-.38.81-.17,1.31.64,1.78,8.16,4.76,16.37,9.42,24.52,14.18,3.13,1.83,6.42,3.41,9.29,5.67a6,6,0,0,1,1.21,4.22q0,12.88,0,25.76c0,.29-.59,1.45.67.75,4.69-.94,8.33-4,12.38-6.21,5.17-2.82,10.3-5.74,15.27-8.9A1,1,0,0,1,248,298Z" transform="translate(-1.89 -14)"/><path class="cls-7" d="M185.45,335.75,188,354.44c.33,1.13-.26,1.16-1.05.82a34.61,34.61,0,0,1-3.67-2q-22.54-13.08-45.13-26.09c-7.81-4.51-15.61-9.05-23.44-13.54a14.31,14.31,0,0,1-1.46-.86c-1.19-.83-1.32-1.37-.71-2.87l.06-16.14c.69-.28,1.2.17,1.72.47,17.2,10,34.48,19.93,51.68,30,6.05,3.53,12.16,6.94,18.18,10.51A2.76,2.76,0,0,1,185.45,335.75Z" transform="translate(-1.89 -14)"/><path class="cls-3" d="M140.93,393.65c-1.11,2.25-1.94,4.64-3.53,6.65-4.51,5.76-10.53,9.36-17.26,11.75A74.15,74.15,0,0,1,69.08,412c-6.72-2.4-12.77-6-17.19-11.84-5.5-7.27-5-15.86,1.32-22.86a38.6,38.6,0,0,1,17-10.6c17.19-5.72,34.37-5.59,51.35.9,6.43,2.45,12.18,6,16.29,11.78A16.44,16.44,0,0,1,141,392.6a7.88,7.88,0,0,0-.06,1.09Z" transform="translate(-1.89 -14)"/><path class="cls-9" d="M197,470a50.18,50.18,0,0,1-6.61-3.68c-6.72-3.88-13.41-7.8-20.11-11.7L150.82,443.3c-1.25-.72-2.49-1.47-3.73-2.21a6.9,6.9,0,0,1-6-6.3,16.22,16.22,0,0,1,1-7.61,29.94,29.94,0,0,1,2.59-5.23,2.36,2.36,0,0,1,1.16-1.17l1.9-2.15c.79-.51,1.38.05,2,.39q11.4,6.54,22.79,13.12l28.16,16.26c.54.31,1.33.45,1.24,1.36-4.16,4.42-6.84,9.46-6.56,15.73a6.4,6.4,0,0,0,1.29,3.91C196.91,469.54,197.16,469.67,197,470Z" transform="translate(-1.89 -14)"/><path class="cls-1" d="M479.89,398q-8.46,5.33-16.92,10.65c-6.93,4.33-13.88,8.62-20.81,12.95-4.34,2.71-8.67,5.45-13,8.16a4.26,4.26,0,0,1-.75.31c3.1-7.57-4.41-18-10.95-17.82,1.34-.79,2.36-1.43,3.41-2l24.19-13.38c5.69-3.15,11.4-6.28,17.09-9.44,2.94-1.63,5.85-3.3,8.77-4.95,3-.16,5,1.56,6.71,3.62a14.45,14.45,0,0,1,3.39,7.4A5.37,5.37,0,0,1,479.89,398Z" transform="translate(-1.89 -14)"/><path class="cls-3" d="M115,313.33q14.65,8.46,29.33,16.92,21,12.13,42,24.24c.32.19,1.19,1.72,1.63-.05.3,2.21.57,4.43.89,6.64.2,1.34.14,2.79,1.26,3.84.35.32.19.63-.07.94a22.52,22.52,0,0,0-2.13,3.53c-.15-.5-.58-.71-1-.94l-30.65-17.72-25.38-14.68-24.14-14c-.3-.18-.67-.28-.82-.65,2.37-2.62,5.1-4.88,7.34-7.61C113.78,313.25,114.44,313.4,115,313.33Z" transform="translate(-1.89 -14)"/><path class="cls-10" d="M298,37.53c.65-.29,1.32-.55,1.95-.87,3-1.48,5.79-1,8.69.66q34.58,20.07,69.22,40l71.94,41.52q13.81,8,27.61,16A4.46,4.46,0,0,1,479,136a8.72,8.72,0,0,1-4.13,2.08,90.38,90.38,0,0,1-8-4.42q-22.9-13.26-45.83-26.46Q401.74,96,382.39,84.82,363.6,73.93,344.78,63.11q-20.83-12-41.65-24a8.55,8.55,0,0,0-3.68-1.16C299,37.86,298.39,38.06,298,37.53Z" transform="translate(-1.89 -14)"/><path class="cls-2" d="M7,313a37.43,37.43,0,0,0,16,7.6c11.52,2.56,22.79,1.93,33.71-2.81A34.62,34.62,0,0,0,64.25,313c2,3.94,1,8.63-2.59,12.36-3.8,3.93-8.61,6.09-13.8,7.38a47.93,47.93,0,0,1-27.71-1c-4.93-1.7-9.4-4.19-12.32-8.73A9.8,9.8,0,0,1,7,313Z" transform="translate(-1.89 -14)"/><path class="cls-11" d="M185.45,335.75q-13-7.49-26-15L113.7,294.29c-.36-.21-.73-.38-1.1-.57l-5.18-3.06c-2.11-1.25-2.64-2.45-2.15-4.88a7,7,0,0,1,1-2.71c1.93.39,3.43,1.65,5.07,2.58,8.35,4.76,16.64,9.63,24.95,14.46q14.55,8.44,29.1,16.88c6.36,3.67,12.73,7.3,19.1,10.95Z" transform="translate(-1.89 -14)"/><path class="cls-5" d="M450,285.26c-.4.13-.79.56-1.23.06a.91.91,0,0,1,.13-.59c2.46-3.12,2.86-7,3.66-10.64,5.08-23.52,10.31-47,15.45-70.52,3.63-16.57,7.25-33.14,11-49.68a10.74,10.74,0,0,1,.76-3.16,11.09,11.09,0,0,1,3.61-1.62c.28-.09.95-.53,1,.37-.11,3-1,5.81-1.66,8.69-3.56,16.4-7.2,32.78-10.81,49.17q-7.72,35.13-15.43,70.26C455.58,281.26,453.85,284.17,450,285.26Z" transform="translate(-1.89 -14)"/><path class="cls-11" d="M295.17,399c-2.13-.68-3.9-2-5.81-3.13q-31.23-18-62.41-36.12c-2.47-1.43-5-2.77-7.41-4.28-1.1-.69-1.14-.09-1.24.7-.28-2.88-.05-5.76-.12-8.64,4,2,7.7,4.4,11.56,6.59,6,3.41,12,6.91,18,10.38Q262.36,373,277,381.48q9.14,5.28,18.28,10.51a2.24,2.24,0,0,0,.59.17c-.7,1.86-1.62,3.68-1.08,5.76A10.73,10.73,0,0,0,295.17,399Z" transform="translate(-1.89 -14)"/><path class="cls-12" d="M479.92,150.67c-1.5,8.48-3.58,16.83-5.39,25.25-2.82,13.07-5.74,26.12-8.61,39.18q-6.32,28.77-12.64,57.54c-.47,2.18-1,4.35-1.42,6.53a11.91,11.91,0,0,1-3.12,6.15l-1.53.91c0-.09-.17-.23-.15-.24,3-3,3.24-7.05,4.12-10.83,1.54-6.68,2.94-13.4,4.41-20.1,2-9,3.92-18,5.91-27.05q3.38-15.25,6.78-30.5,3.75-17,7.47-34c.73-3.37,1.7-6.73,2.16-10.13.87-6.49-1.07-13.06-7.68-16.78-11.72-6.59-23.34-13.38-35-20.11q-16.74-9.66-33.46-19.36c-9.72-5.62-19.47-11.19-29.2-16.8-8.42-4.86-16.82-9.77-25.25-14.62S330.28,55.94,321.77,51q-10.42-6-20.8-12.1c-1.26-.74-2.71-.47-4-1l1-.36a9.31,9.31,0,0,1,5.89,1.52q32,18.56,64.12,37l72.73,42,31.78,18.35c.81.47,1.58,1,2.37,1.49a3.93,3.93,0,0,1,2.07,1.78,18.45,18.45,0,0,1,3.31,9.22A2.24,2.24,0,0,1,479.92,150.67Z" transform="translate(-1.89 -14)"/><path class="cls-1" d="M202,449.76a58.29,58.29,0,0,0-7.15-4.32q-22.71-13.15-45.48-26.24c-.48-.28-.9-.73-1.55-.57.87-.72,1.7-1.5,2.61-2.16,3.29-2.37,6.52-2.41,10.09-.26,8.72,5.25,17.57,10.28,26.36,15.41,6.52,3.8,13,7.63,19.54,11.43a40.07,40.07,0,0,1,4.37,2.59A13.19,13.19,0,0,0,202,449.76Z" transform="translate(-1.89 -14)"/><path class="cls-9" d="M441,93.3a13.41,13.41,0,0,0,1.18-4.11q3.56-17.84,7.06-35.67a7.53,7.53,0,0,0-3.76-8.29q-24.51-14.16-49-28.34a19.1,19.1,0,0,0-2.66-.83c1.32-.62,2.36-1.15,3.45-1.6a4.74,4.74,0,0,1,4.46.2q24.44,14.15,48.89,28.27a7.4,7.4,0,0,1,3.65,7.91q-3.68,18.6-7.36,37.19a5,5,0,0,1-3.22,4C442.73,92.42,441.86,92.88,441,93.3Z" transform="translate(-1.89 -14)"/><path class="cls-3" d="M244.78,155.08c1.56-2.72,1.67-5.51,2.21-8.18,2.12-10.41,4.12-20.84,6.2-31.25a8.19,8.19,0,0,0-4.12-9.15C232.88,97.34,216.8,88,200.7,78.65A12.57,12.57,0,0,0,198,77.6c1.67-.74,3.1-1.44,4.59-2a3.39,3.39,0,0,1,3,.55q17.35,10,34.74,20.06l14.26,8.26a7.45,7.45,0,0,1,3.75,8.16q-3.67,18.75-7.42,37.5a4.77,4.77,0,0,1-3.27,3.64C246.71,154.11,245.89,154.55,244.78,155.08Z" transform="translate(-1.89 -14)"/><path class="cls-13" d="M186.08,305.82,172.49,298q-9.75-5.61-19.5-11.22c-6.22-3.6-12.43-7.23-18.64-10.84a40.45,40.45,0,0,1-.12-6.51,1.43,1.43,0,0,1,.45-1.12q10,5.73,20,11.45l36.11,20.81Z" transform="translate(-1.89 -14)"/><path class="cls-14" d="M236.92,203.3a23.74,23.74,0,0,1-6.24-3.43c-2.06-2.34-3.75-4.86-4.09-8.07,1.4.22,2.5,1.34,4.07,1.16a44.88,44.88,0,0,0,6.39-1.08c2.14-.56,4.15-1.55,6.34-1.92a6.31,6.31,0,0,1,1.75,1.5c.86.8,1.62.8,2.33-.18.51-.71,1.06-1.4,1.57-2.12A2.84,2.84,0,0,1,251.9,188c1.15.11,1.45.85,1.48,1.81s-.16,1.55-1.34,1.65c-1.68.13-2.51,1.9-1.36,3a3.88,3.88,0,0,1,1.18,3.18c-.3,1.67-1.82,2.33-2.83,3.41a15.71,15.71,0,0,1-7.15,2.83c-1.21.13-2.3,2.44-1.7,3.47.38.65.94.3,1.38.11a13.21,13.21,0,0,0,6-4.73c.36-.54.55-1.43,1.53-1.28a4.42,4.42,0,0,1,.43,2.11,2.6,2.6,0,0,0,.93,2.64,4.57,4.57,0,0,1,.44.44c1.4,1.58,2.37,3.31,1.65,5.5a5.7,5.7,0,0,1-4.82,3.91A11.94,11.94,0,0,1,238.3,214a7.08,7.08,0,0,1-2.89-4.27c-.55-2.7.79-4.43,3-5.69C238,203.55,237.26,203.84,236.92,203.3Z" transform="translate(-1.89 -14)"/><path class="cls-9" d="M404.12,419.6c2.32,1.46,2.27,3.17-.17,4.6l-31,18.23c-2.54,1.5-5.13,1.89-7.76.23a2,2,0,0,1-1.17-.35,4.46,4.46,0,0,0-4.44.18c-2.77,1.51-5.43,3.19-8.13,4.81a5.48,5.48,0,0,0-2,2.49c-.24.5-.27,1.12-.77,1.48-.55,1.29-.24,2.65-.22,4s-.33,2.52-1.77,2.88c-1.08.26-2.81-1.44-3-2.75,0-2.89-.13-5.8,1.43-8.46A12.63,12.63,0,0,1,349.8,442c2.44-1.38,4.84-2.82,7.25-4.23,2.71-1.6,5.44-2,8.15,0,2.26,1.64,4.34,1,6.49-.29,10-5.94,20.09-11.82,30.13-17.75A2,2,0,0,1,404.12,419.6Z" transform="translate(-1.89 -14)"/><path class="cls-9" d="M479.89,398a11.94,11.94,0,0,0-8.78-15.31c-.08,0-.13-.14-.2-.22a48,48,0,0,1,23.39-6,2.49,2.49,0,0,1,2.39,1.38,2.6,2.6,0,0,1,0,2.79A48,48,0,0,1,479.89,398Z" transform="translate(-1.89 -14)"/><path class="cls-1" d="M197,470l-.29-.61c.25-.18.25-.4.13-.68-1.46-3.49-.72-6.94.57-10.23,1.79-4.54,4.51-8.46,8.88-10.95,2.21-1.26,4.59-1.88,6.92-.53,2.17,1.25,2.68,3.5,2.83,5.86.1,1.62-.34,3.17-.39,4.77-.64,0-1-.43-1.49-.74a6.1,6.1,0,0,0-8.84,2.1,6.16,6.16,0,0,0,3,8.59c.44.19,1.08.15,1.18.83-1.4.55-2.4,1.72-3.74,2.36a7,7,0,0,1-3.31,1.1c-.74,0-.72.61-1,.94-.08-.39,0-.87-.61-.91C199.25,471.81,198.14,470.86,197,470Z" transform="translate(-1.89 -14)"/><path class="cls-3" d="M337.81,466.24,340,465c1.48-2,3.33-2.16,5.13-.55a7.88,7.88,0,0,1,2.57,4.64,2.64,2.64,0,0,1-2.12,3.32L343.1,474,332.78,480c-.53.31-1.06.64-1.61.92a4.6,4.6,0,0,1-4.42-8.06c2.26-1.37,4.55-2.68,6.82-4C335,468,336.4,467.1,337.81,466.24Z" transform="translate(-1.89 -14)"/><path class="cls-9" d="M209.5,468.42c-3.58-1.3-5.27-3.27-5.35-6.22A6.52,6.52,0,0,1,214.94,457c.24.19.46.42.68.63,1.67,2.34,2.16,4.81.69,7.41S212.43,468.62,209.5,468.42Z" transform="translate(-1.89 -14)"/><path class="cls-1" d="M145.87,420.78a40,40,0,0,0-3.37,6.29c-1.36-1.34-3.28-1.84-4.66-3.14a17.71,17.71,0,0,0-3.84-2.44c-1.42-.84-2.79-1.77-4.27-2.5a2.31,2.31,0,0,1-1.24-3.2,5.15,5.15,0,0,1,1.59-2.43,2.08,2.08,0,0,1,2.68-.28c1.49.92,3,1.79,4.54,2.65.42.24.81.72,1.4.36,1,1.58,2.83,1.85,4.19,2.86C143.82,419.64,144.87,420.18,145.87,420.78Z" transform="translate(-1.89 -14)"/><path class="cls-9" d="M422.55,433.69a14.87,14.87,0,0,0-6.82-17.18c-1.18-.67-2.57-.6-3.71-1.29.28-.14.56-.27.82-.42,3.68-2.2,5.88-2,9.08.87a16.22,16.22,0,0,1,5.46,9.69c.65,4.13-.21,6-3.32,7.53C423.55,433.14,423.05,433.42,422.55,433.69Z" transform="translate(-1.89 -14)"/><path class="cls-15" d="M479.92,150.67a17.5,17.5,0,0,0-5-12.77L479,136c4.2,3.55,5.63,8.18,5.25,13.51-1.16-.4-1.93.6-2.93.8C480.88,150.37,480.45,150.73,479.92,150.67Z" transform="translate(-1.89 -14)"/><path class="cls-11" d="M115,313.33a6.62,6.62,0,0,0-2.06,1.42c-2,2.25-4.17,4.3-6.29,6.4-.17.17-.47.19-.71.28-1.2-1.18-1.06-2.67-.73-4.05.94-3.92,3.18-6.65,7.29-7.52C112.07,312,113.71,312.53,115,313.33Z" transform="translate(-1.89 -14)"/><path class="cls-9" d="M134.68,268.32c0,2.06,0,4.12,0,6.18,0,.49.16,1-.31,1.45-.94-.53-1.87-1.07-2.82-1.58a6,6,0,0,1-3.37-5,.79.79,0,0,0-.33-.65c.74-1.15.24-2.43.37-3.64a13.07,13.07,0,0,1,.15-1.77C129.75,266,132.5,266.78,134.68,268.32Z" transform="translate(-1.89 -14)"/><path class="cls-16" d="M243.39,190a32.51,32.51,0,0,1-9.75,3.08c-.75.13-1.52.23-2.28.31a5.25,5.25,0,0,1-4.77-1.55c0-.11,0-.21,0-.32,2.23-.64,4.43-1.41,6.7-1.9C236.64,188.85,240.07,188.31,243.39,190Z" transform="translate(-1.89 -14)"/><path class="cls-5" d="M298.91,48.2c2.21-1.6,4.35-.89,6.41.27,4.15,2.35,8.26,4.77,12.39,7.16L385.89,95,465,140.6c4.38,2.54,7.13,8.84,6,14.36-2.07,10-4.33,20-6.52,29.93q-5.68,26-11.38,51.93-3.78,17.25-7.6,34.48c-.57,2.59-1.63,4.93-4.21,6.2a6.67,6.67,0,0,1-5.48-.84q-33.11-19.11-66.21-38.21-25.49-14.7-51-29.43-20.82-12-41.68-24c-4.53-2.6-6.45-6.68-6.81-11.69-.28-3.91,1-7.59,1.78-11.33,2.71-12.58,5.5-25.14,8.27-37.71q5.29-24.11,10.6-48.21c1.55-7,3.15-14.08,4.63-21.14C295.92,52.34,296.59,49.83,298.91,48.2Z" transform="translate(-1.89 -14)"/><path class="cls-17" d="M227.53,321.42l2.18-1.26q10.48,6.06,21,12.1c5.43,3.13,10.86,6.22,16.29,9.35q9.48,5.46,18.95,10.94c5.46,3.16,10.88,6.39,16.38,9.48a12.8,12.8,0,0,0,5.81,1.47c4.15.15,8.21-.13,11.9-2.21,5.09-2.86,10.13-5.83,15.19-8.75s10.41-6,15.61-9l18.94-10.95,18.95-10.94,20.94-12.12c6-3.43,11.94-6.84,17.9-10.28,3.36-1.93,6.69-3.93,10.06-5.84,1.57-.9,2.37-2.41,3.33-3.8l.08,2.81c-.28,2.28-1.95,3.49-3.68,4.53-6.36,3.83-12.81,7.5-19.24,11.19-10.53,6.05-21,12.15-31.55,18.2q-24,13.77-47.86,27.62c-5.48,3.16-11,6.27-16.43,9.51a5.63,5.63,0,0,1-2.83,1.19,23.45,23.45,0,0,1-15.88.95,3,3,0,0,1-2-.61c-11.47-6.69-23-13.29-34.48-19.93q-18.79-10.85-37.58-21.69a15.76,15.76,0,0,1-1.7-1.08C227.45,322.1,227.19,321.82,227.53,321.42Z" transform="translate(-1.89 -14)"/><path class="cls-9" d="M267.47,257q22.48,13,45,26c.92.53,2.46.76,2.43,1.9s-1.55,1.33-2.46,1.87c-2.27,1.35-4.59,2.62-6.86,4a2.82,2.82,0,0,1-3.08,0l-38.23-22.08a5.58,5.58,0,0,1-.6-.49c0-.1,0-.24.08-.29,2.67-2.17,2.71-5.27,3-8.31A3.56,3.56,0,0,1,267.47,257Z" transform="translate(-1.89 -14)"/><path class="cls-18" d="M267.47,257c-.24,2-.49,4.09-.69,6.14a6.34,6.34,0,0,1-3.15,5,2.06,2.06,0,0,0-1,.85,11.74,11.74,0,0,1-3,2.19c-8,5.19-16,10.47-24,15.68a3.87,3.87,0,0,0-1.77,1.89,13.15,13.15,0,0,1-9.24,6.2,2.94,2.94,0,0,1-2.66-1.84,2.44,2.44,0,0,1,.73-2.54,14.54,14.54,0,0,1,2.37-2.26c-.47-.07-1.07,0-1.21-.63a1.34,1.34,0,0,1,.6-1.34,5.65,5.65,0,0,1,2.73-1.36c2,.45,3.4-.59,4.71-1.77,5.39-4.87,10.75-9.78,16.11-14.67,1.73-1.58,3.43-3.17,5.17-4.73a4.75,4.75,0,0,0,1.69-3.84c-.05-1.82,0-3.64,0-5.46,0-.57,0-1,.82-.8,3.83.86,7.63.26,11.42-.39,1.5.41,1,1.33.57,2.23C267.29,256,267.42,256.51,267.47,257Z" transform="translate(-1.89 -14)"/><path class="cls-8" d="M298.91,48.2c-3.51,3.93-3.5,9.08-4.61,13.78C292,71.74,290,81.56,287.83,91.36q-6.65,30.36-13.31,60.72c-1.24,5.66-2.54,11.3-3.73,17a14.84,14.84,0,0,0,7.1,16.13c13.11,7.25,26,14.94,38.95,22.42q21.89,12.63,43.8,25.22,24.86,14.34,49.69,28.7c8.75,5.06,17.52,10.08,26.26,15.16a8.44,8.44,0,0,0,4.67.83c-2.32,1.25-4.5.7-6.62-.53l-13.07-7.54-64.15-37-53.48-30.89c-9.16-5.29-18.25-10.73-27.54-15.77-6.25-3.4-8.31-10.78-7.12-16.18q5.48-24.71,10.88-49.42,6.4-29.1,12.8-58.2c.75-3.38,1.14-6.86,2.48-10.08C296.11,50.26,297.05,48.76,298.91,48.2Z" transform="translate(-1.89 -14)"/><path class="cls-6" d="M233.68,288.7a1.92,1.92,0,0,1,.93-1.53l27.2-17.8a4.16,4.16,0,0,1,.85-.33c-.2,5.47,0,10.94.13,16.41,0,1.86-.13,3.49-1.74,4.68-.23.17-.32.52-.48.78-1.05-.23-1.79.54-2.66.86a42.56,42.56,0,0,1-8.85,2c-1.88.26-3.8,0-5.64.52-.43.29-.8,0-1.15-.17-2.56-1.45-5.13-2.9-7.66-4.4A1.69,1.69,0,0,1,233.68,288.7Z" transform="translate(-1.89 -14)"/><path class="cls-9" d="M364.8,300.15a3.06,3.06,0,0,1,1.79.54q10.57,6.13,21.16,12.22c1.54.89,1.57,1.32.09,2.19-2.2,1.29-4.41,2.53-6.6,3.83a3.36,3.36,0,0,1-3.78,0c-7-4.11-14.09-8.15-21.15-12.22-1.44-.83-1.5-1.34-.12-2.15,2.31-1.38,4.67-2.69,7-4A3.21,3.21,0,0,1,364.8,300.15Z" transform="translate(-1.89 -14)"/><path class="cls-9" d="M382.27,296.81a2.72,2.72,0,0,1,1.61.48l15.61,9c1.58.92,1.58,1.3-.06,2.27-2.23,1.32-4.49,2.59-6.72,3.89a2.71,2.71,0,0,1-2.94.14c-5.29-3.07-10.58-6.12-15.86-9.21-1.49-.87-1.48-1.33,0-2.19,2.2-1.28,4.4-2.54,6.61-3.8A3.37,3.37,0,0,1,382.27,296.81Z" transform="translate(-1.89 -14)"/><path class="cls-9" d="M320.45,300.57a2.87,2.87,0,0,1-1.71-.41c-3.8-2.22-7.62-4.41-11.41-6.64-1.14-.67-1.15-1.14,0-1.84,2.94-1.74,5.92-3.42,8.88-5.12a2.29,2.29,0,0,1,2.38,0l12,6.89c1,.56,1,1.16,0,1.72l-8.73,5.07A2.3,2.3,0,0,1,320.45,300.57Z" transform="translate(-1.89 -14)"/><path class="cls-9" d="M414.24,299.58a3.58,3.58,0,0,1-1.74-.62q-6.47-3.72-12.91-7.46c-1.35-.78-1.36-1.27,0-2,2.24-1.31,4.49-2.57,6.72-3.89a3.36,3.36,0,0,1,3.78,0c4.13,2.47,8.32,4.85,12.48,7.27.51.3,1.28.45,1.24,1.23s-.8.87-1.32,1.18c-2.05,1.2-4.11,2.4-6.18,3.58A3.82,3.82,0,0,1,414.24,299.58Z" transform="translate(-1.89 -14)"/><path class="cls-9" d="M331.59,307.32a7.81,7.81,0,0,1-1.26-.49q-3.45-1.95-6.86-4c-1.2-.7-1.24-1.15-.07-1.84,2.93-1.75,5.9-3.45,8.87-5.15a2.53,2.53,0,0,1,2.66.07c2.34,1.34,4.67,2.69,7,4,1,.59,1.09,1.22.08,1.82-2.94,1.74-5.91,3.44-8.88,5.13A6.73,6.73,0,0,1,331.59,307.32Z" transform="translate(-1.89 -14)"/><path class="cls-9" d="M396.83,289.24a2.4,2.4,0,0,1-1.69-.28c-2.34-1.35-4.67-2.69-7-4.07-1.15-.68-1.18-1.21-.06-1.88,2.4-1.44,4.83-2.83,7.25-4.22a2.62,2.62,0,0,1,2.8,0c2.34,1.35,4.68,2.68,7,4,.71.41,1.3,1,.3,1.61-2.66,1.61-5.37,3.12-8.08,4.65A1.16,1.16,0,0,1,396.83,289.24Z" transform="translate(-1.89 -14)"/><path class="cls-9" d="M305.21,276.47a2.55,2.55,0,0,1-1.77-.33c-2.33-1.35-4.67-2.69-7-4.06-1.2-.71-1.22-1.09,0-1.82,2.45-1.46,4.92-2.87,7.39-4.29a2.41,2.41,0,0,1,2.52,0c2.43,1.39,4.84,2.81,7.27,4.2.85.49,1.06,1.05.14,1.59-2.62,1.56-5.28,3.06-7.95,4.56A1.25,1.25,0,0,1,305.21,276.47Z" transform="translate(-1.89 -14)"/><path class="cls-9" d="M281,262.8a2.75,2.75,0,0,1-1.47-.47c-2.29-1.32-4.59-2.63-6.86-4-1.2-.71-1.2-1.17,0-1.85,2.37-1.39,4.77-2.74,7.15-4.11a3,3,0,0,1,3.23,0c2.13,1.28,4.31,2.48,6.46,3.74,1.41.84,1.4,1.36,0,2.16l-6.75,3.87A3.74,3.74,0,0,1,281,262.8Z" transform="translate(-1.89 -14)"/><path class="cls-9" d="M372.53,264.65c.61,0,.91,0,1.12.1,2.7,1.52,5.4,3,8.06,4.63.75.46.41,1.11-.21,1.47-2.6,1.51-5.21,3-7.82,4.45a2.32,2.32,0,0,1-2.37-.13c-2.35-1.32-4.68-2.65-7-4-1.28-.75-1.27-1.18,0-1.92,2.35-1.4,4.73-2.76,7.1-4.13A2.67,2.67,0,0,1,372.53,264.65Z" transform="translate(-1.89 -14)"/><path class="cls-9" d="M402.59,306.24a3.93,3.93,0,0,1-1-.25c-2.48-1.39-5-2.8-7.41-4.26-.84-.51-.8-1.16.07-1.67,2.51-1.46,5-2.93,7.54-4.35a2.49,2.49,0,0,1,2.65.07c2.31,1.38,4.68,2.68,7,4.06,1.16.68,1.16,1.18,0,1.86-2.37,1.4-4.76,2.74-7.15,4.11A3.36,3.36,0,0,1,402.59,306.24Z" transform="translate(-1.89 -14)"/><path class="cls-9" d="M319.35,258.15a2.29,2.29,0,0,1-1.46-.44c-2.29-1.31-4.58-2.62-6.86-3.95-1.15-.68-1.16-1.15,0-1.86,2.4-1.43,4.83-2.81,7.24-4.21a2.64,2.64,0,0,1,2.8,0c2.28,1.33,4.57,2.64,6.83,4,1.37.82,1.37,1.2,0,2-2.27,1.35-4.56,2.66-6.84,4A2.71,2.71,0,0,1,319.35,258.15Z" transform="translate(-1.89 -14)"/><path class="cls-9" d="M384.79,271.51a3,3,0,0,1,.89.15c2.66,1.51,5.31,3,7.94,4.56.71.42.56,1,0,1.35q-4.09,2.37-8.23,4.67a2.2,2.2,0,0,1-2.22-.21c-2.33-1.35-4.65-2.71-7-4-1-.57-1.16-1.17-.1-1.79q3.81-2.24,7.67-4.4A4.2,4.2,0,0,1,384.79,271.51Z" transform="translate(-1.89 -14)"/><path class="cls-9" d="M346.5,276.2a2.52,2.52,0,0,1,1.48.37c2.24,1.31,4.49,2.59,6.73,3.9,1.24.74,1.25,1.25,0,2-2.27,1.36-4.57,2.66-6.84,4a3.11,3.11,0,0,1-3.5,0c-2.2-1.36-4.47-2.62-6.73-3.89-1-.56-1-1.13-.06-1.7,2.51-1.47,5-2.91,7.54-4.36A2.53,2.53,0,0,1,346.5,276.2Z" transform="translate(-1.89 -14)"/><path class="cls-9" d="M295.51,244.45a2.07,2.07,0,0,1-1.18-.33c-2.33-1.36-4.68-2.68-7-4.05-1.26-.75-1.26-1.25,0-2,2.37-1.4,4.75-2.77,7.12-4.15a2.54,2.54,0,0,1,2.67-.08c2.44,1.37,4.87,2.77,7.29,4.17.67.39,1.15,1,.27,1.55-2.75,1.65-5.57,3.19-8.38,4.75A2.09,2.09,0,0,1,295.51,244.45Z" transform="translate(-1.89 -14)"/><path class="cls-9" d="M378.88,292.51a3.1,3.1,0,0,1-1.5-.42c-2.27-1.33-4.56-2.64-6.82-4-1.18-.7-1.19-1.19,0-1.86,2.41-1.41,4.86-2.76,7.27-4.16a2.61,2.61,0,0,1,2.91,0c2.27,1.35,4.56,2.64,6.85,4,.94.53,1.27,1.15.18,1.8-2.53,1.51-5.09,3-7.66,4.41A4.13,4.13,0,0,1,378.88,292.51Z" transform="translate(-1.89 -14)"/><path class="cls-9" d="M343.17,271.88a2.41,2.41,0,0,1-1.42-.39c-2.29-1.32-4.59-2.62-6.86-4-1.19-.71-1.15-1.26.08-2,2.24-1.3,4.51-2.55,6.73-3.89a3.23,3.23,0,0,1,3.64,0c2.14,1.28,4.3,2.52,6.44,3.78,1.28.76,1.31,1.19.07,1.92-2.28,1.35-4.57,2.67-6.86,4A3.46,3.46,0,0,1,343.17,271.88Z" transform="translate(-1.89 -14)"/><path class="cls-9" d="M301.47,223.47a3.24,3.24,0,0,1,1.78.54c2.2,1.27,4.4,2.53,6.59,3.82,1.17.68,1.21,1.21.08,1.89-2.45,1.46-4.93,2.86-7.4,4.27a2.37,2.37,0,0,1-2.51,0c-2.42-1.41-4.85-2.79-7.29-4.17-.89-.5-1-1.13-.11-1.64,2.53-1.53,5.09-3,7.67-4.44A4.14,4.14,0,0,1,301.47,223.47Z" transform="translate(-1.89 -14)"/><path class="cls-9" d="M331.76,265a2.52,2.52,0,0,1-1.78-.28c-2.37-1.38-4.74-2.76-7.12-4.12-1.08-.62-1-1.2,0-1.79q3.61-2.1,7.26-4.19a2.8,2.8,0,0,1,2.95,0c2.33,1.35,4.65,2.71,7,4,1,.55,1.05,1.15.11,1.7-2.59,1.53-5.2,3-7.82,4.47A1.38,1.38,0,0,1,331.76,265Z" transform="translate(-1.89 -14)"/><path class="cls-9" d="M286.5,252.59a1.58,1.58,0,0,1-.65-.08c-2.69-1.53-5.39-3.06-8-4.66-.72-.43-.34-1,.21-1.34,2.64-1.52,5.29-3,8-4.52a2.26,2.26,0,0,1,2.36.15c2.33,1.35,4.68,2.66,7,4,1.18.7,1.19,1.17,0,1.87-2.44,1.47-4.92,2.86-7.38,4.29A2.85,2.85,0,0,1,286.5,252.59Z" transform="translate(-1.89 -14)"/><path class="cls-9" d="M298.75,259.44a2.73,2.73,0,0,1-1.52-.29q-3.5-2-7-4c-1.07-.61-1.24-1.19-.05-1.86,2.43-1.39,4.85-2.81,7.28-4.2a2.69,2.69,0,0,1,2.93,0c2.22,1.33,4.5,2.57,6.73,3.89,1.28.75,1.3,1.23.08,2-2.36,1.41-4.75,2.77-7.13,4.15A2.29,2.29,0,0,1,298.75,259.44Z" transform="translate(-1.89 -14)"/><path class="cls-9" d="M370.1,300.8a3.55,3.55,0,0,1-1.8-.61c-2.16-1.23-4.32-2.46-6.46-3.72-1.38-.82-1.38-1.36,0-2.17,2.18-1.29,4.4-2.52,6.58-3.81a3.38,3.38,0,0,1,3.79.05c2.12,1.3,4.29,2.51,6.44,3.76,1,.55,1.19,1.16.1,1.8-2.46,1.43-4.93,2.86-7.41,4.25A6.45,6.45,0,0,1,370.1,300.8Z" transform="translate(-1.89 -14)"/><path class="cls-9" d="M358,283.09a2.92,2.92,0,0,1,1.87.33c2.28,1.34,4.58,2.64,6.86,4,1.19.69,1.22,1.15.06,1.84-2.45,1.46-4.94,2.85-7.41,4.28a2.31,2.31,0,0,1-2.5,0c-2.38-1.38-4.77-2.73-7.15-4.11-.79-.46-1.32-1.07-.23-1.72,2.54-1.52,5.11-3,7.68-4.43A1.87,1.87,0,0,1,358,283.09Z" transform="translate(-1.89 -14)"/><path class="cls-9" d="M349.16,251a2.31,2.31,0,0,1,1.46.38c2.33,1.35,4.65,2.73,7,4.05,1,.58.95,1.17.05,1.71-2.49,1.48-5,2.93-7.54,4.35a2.53,2.53,0,0,1-2.66,0c-2.32-1.37-4.65-2.73-7-4.06-1-.59-1.11-1.22-.08-1.82,2.45-1.45,4.94-2.84,7.41-4.26A2.35,2.35,0,0,1,349.16,251Z" transform="translate(-1.89 -14)"/><path class="cls-9" d="M307.49,240.45a2.78,2.78,0,0,1,1.84.48c2.25,1.28,4.5,2.55,6.73,3.86,1.24.73,1.23,1.25,0,2-2.36,1.4-4.74,2.76-7.11,4.14a2.51,2.51,0,0,1-2.65.09L299,246.83c-.7-.4-1.12-1-.26-1.53a87.27,87.27,0,0,1,8.35-4.77A.73.73,0,0,1,307.49,240.45Z" transform="translate(-1.89 -14)"/><path class="cls-9" d="M316.61,283.41a2.58,2.58,0,0,1-1.33-.42c-2.29-1.33-4.58-2.64-6.85-4-1.22-.73-1.21-1.22.05-2,2.36-1.4,4.75-2.76,7.12-4.14a2.51,2.51,0,0,1,2.66-.07c2.43,1.4,4.84,2.83,7.27,4.21.79.45,1,1,.21,1.5-2.71,1.62-5.47,3.17-8.22,4.72A3,3,0,0,1,316.61,283.41Z" transform="translate(-1.89 -14)"/><path class="cls-9" d="M367,285.59a2.33,2.33,0,0,1-1.41-.32c-2.33-1.35-4.67-2.68-7-4.06-1.13-.68-1.1-1.18.08-1.88,2.27-1.34,4.56-2.66,6.84-4a3.06,3.06,0,0,1,3.36-.07c2.22,1.32,4.49,2.56,6.72,3.87,1.14.67,1.18,1.28.07,1.93-2.4,1.43-4.84,2.79-7.27,4.18A2.23,2.23,0,0,1,367,285.59Z" transform="translate(-1.89 -14)"/><path class="cls-9" d="M328.49,290.24a2.1,2.1,0,0,1-1.33-.38c-2.24-1.3-4.48-2.6-6.7-3.93-1.42-.84-1.4-1.27,0-2.11,2.24-1.3,4.51-2.56,6.74-3.89a3,3,0,0,1,3.35,0c2.17,1.32,4.4,2.53,6.59,3.82,1.29.75,1.3,1.22.07,1.95-2.32,1.38-4.65,2.73-7,4.07A3,3,0,0,1,328.49,290.24Z" transform="translate(-1.89 -14)"/><path class="cls-9" d="M340.62,286.22a2.7,2.7,0,0,1,1.64.46c2.3,1.31,4.6,2.6,6.88,3.95,1.16.68,1.18,1.21.05,1.89-2.44,1.46-4.92,2.88-7.4,4.28a2.43,2.43,0,0,1-2.52,0l-7.14-4.12c-.88-.5-1.19-1.12-.18-1.72,2.62-1.55,5.29-3.05,8-4.55A3,3,0,0,1,340.62,286.22Z" transform="translate(-1.89 -14)"/><path class="cls-9" d="M360.8,268.7a2.81,2.81,0,0,1-1.57-.48c-2.29-1.32-4.58-2.63-6.85-4-1.18-.71-1.18-1.16,0-1.86,2.32-1.37,4.66-2.7,7-4.06a3.07,3.07,0,0,1,3.38,0c2.22,1.32,4.46,2.63,6.71,3.9.85.48,1.12,1.09.23,1.62a84.47,84.47,0,0,1-8.24,4.65A3.32,3.32,0,0,1,360.8,268.7Z" transform="translate(-1.89 -14)"/><path class="cls-9" d="M293.14,269.63a2.51,2.51,0,0,1-1.59-.35c-2.37-1.38-4.73-2.77-7.12-4.13-1.05-.59-.89-1.18,0-1.7,2.54-1.5,5.1-3,7.67-4.41a2.22,2.22,0,0,1,2.24,0c2.52,1.43,5,2.9,7.53,4.34.73.42.88,1,.15,1.42-2.72,1.6-5.48,3.14-8.23,4.68A1.91,1.91,0,0,1,293.14,269.63Z" transform="translate(-1.89 -14)"/><path class="cls-9" d="M325,248a4.91,4.91,0,0,1-1.2-.31c-2.48-1.4-4.95-2.81-7.41-4.26-.76-.45-.85-1,0-1.52,2.55-1.48,5.1-3,7.68-4.42a2.58,2.58,0,0,1,2.54,0c2.44,1.36,4.86,2.77,7.27,4.18.91.53.83,1.19,0,1.67-2.49,1.47-5,2.9-7.56,4.31A5.45,5.45,0,0,1,325,248Z" transform="translate(-1.89 -14)"/><path class="cls-9" d="M352.38,304a2.94,2.94,0,0,1-1.47-.5c-2.23-1.31-4.49-2.57-6.72-3.88-1.35-.78-1.36-1.19,0-2,2.35-1.41,4.73-2.78,7.11-4.13a2.64,2.64,0,0,1,2.8,0c2.32,1.36,4.66,2.69,7,4,1,.56,1.21,1.17.13,1.8q-3.83,2.25-7.68,4.4A5.12,5.12,0,0,1,352.38,304Z" transform="translate(-1.89 -14)"/><path class="cls-9" d="M277.78,209.77a3.19,3.19,0,0,1,1.77.55c2.19,1.26,4.39,2.52,6.58,3.8,1.17.68,1.21,1.21.07,1.88-2.4,1.42-4.83,2.81-7.27,4.17a2.86,2.86,0,0,1-3,0c-2.29-1.32-4.56-2.66-6.86-4-.91-.51-1.16-1.13-.18-1.72,2.57-1.54,5.18-3,7.79-4.49A3.27,3.27,0,0,1,277.78,209.77Z" transform="translate(-1.89 -14)"/><path class="cls-9" d="M312.74,241.08a3.23,3.23,0,0,1-.88-.26q-3.72-2.08-7.43-4.22c-.74-.43-.74-1-.06-1.46,2.68-1.58,5.36-3.15,8.1-4.6a2.65,2.65,0,0,1,2.54.24c2.22,1.32,4.48,2.59,6.71,3.91,1.18.69,1.21,1.22.1,1.88-2.36,1.41-4.75,2.76-7.12,4.14A3.45,3.45,0,0,1,312.74,241.08Z" transform="translate(-1.89 -14)"/><path class="cls-9" d="M337.3,244.1a2.43,2.43,0,0,1,1.34.33c2.32,1.35,4.66,2.68,7,4.06,1.14.69,1.13,1.19,0,1.87-2.36,1.39-4.74,2.76-7.12,4.11a2.92,2.92,0,0,1-3.09,0c-2.23-1.29-4.49-2.55-6.72-3.86-1.14-.68-1.19-1.29-.11-1.94,2.4-1.42,4.84-2.78,7.26-4.17A2.69,2.69,0,0,1,337.3,244.1Z" transform="translate(-1.89 -14)"/><path class="cls-9" d="M310.46,266.31a2.75,2.75,0,0,1-1.61-.44c-2.18-1.29-4.39-2.52-6.58-3.8-1.31-.77-1.32-1.26,0-2.05,2.31-1.37,4.63-2.73,7-4a2.86,2.86,0,0,1,3,0c2.3,1.29,4.59,2.59,6.85,3.94,1.26.75,1.26,1.19,0,1.94-2.35,1.41-4.74,2.75-7.1,4.13A2.9,2.9,0,0,1,310.46,266.31Z" transform="translate(-1.89 -14)"/><path class="cls-9" d="M355.12,278.8a3.24,3.24,0,0,1-1.77-.6c-2.19-1.27-4.39-2.54-6.57-3.84-1.12-.66-1.15-1.2,0-1.88,2.39-1.43,4.83-2.8,7.27-4.17a2.55,2.55,0,0,1,2.66-.06l7.26,4.19c.91.52.89,1.12,0,1.62q-3.83,2.25-7.67,4.42A5.14,5.14,0,0,1,355.12,278.8Z" transform="translate(-1.89 -14)"/><path class="cls-9" d="M289.62,216.63a3.31,3.31,0,0,1,1.9.61c2.15,1.24,4.31,2.47,6.45,3.72,1.16.67,1.2,1.22.08,1.88-2.4,1.43-4.84,2.8-7.27,4.17a2.74,2.74,0,0,1-2.82,0l-7.14-4.09c-.77-.44-1-1.06-.18-1.54,2.61-1.59,5.27-3.09,7.92-4.59A3,3,0,0,1,289.62,216.63Z" transform="translate(-1.89 -14)"/><path class="cls-9" d="M334.23,280.1a4.53,4.53,0,0,1-1.15-.3c-2.49-1.39-4.95-2.8-7.42-4.22-.81-.47-.83-1.09-.05-1.56,2.63-1.55,5.26-3.09,7.95-4.53a2.6,2.6,0,0,1,2.53.23c2.28,1.33,4.57,2.64,6.86,3.95.89.5,1.18,1.13.19,1.73-2.52,1.52-5.09,3-7.65,4.43A4.51,4.51,0,0,1,334.23,280.1Z" transform="translate(-1.89 -14)"/><path class="cls-9" d="M390.83,299.31a2.71,2.71,0,0,1-1.77-.47c-2.18-1.29-4.38-2.56-6.56-3.84-1.18-.7-1.24-1.17-.09-1.86,2.35-1.42,4.73-2.77,7.12-4.12a3,3,0,0,1,3.1,0c2.3,1.31,4.58,2.63,6.86,3.95,1,.56,1.13,1.2.07,1.82-2.46,1.43-4.93,2.84-7.39,4.26A2.33,2.33,0,0,1,390.83,299.31Z" transform="translate(-1.89 -14)"/><path class="cls-9" d="M322.36,262.47a2.87,2.87,0,0,1,1.59.26l7.26,4.19c.87.51.91,1.11,0,1.62-2.55,1.49-5.09,3-7.68,4.39a2.64,2.64,0,0,1-2.67-.11L314,268.87c-1-.55-1.23-1.18-.15-1.82,2.49-1.48,5-2.92,7.52-4.35A3,3,0,0,1,322.36,262.47Z" transform="translate(-1.89 -14)"/><path class="cls-9" d="M283.88,237.28A2.79,2.79,0,0,1,282,237c-2.33-1.35-4.65-2.7-7-4-1-.57-1-1.19-.07-1.73,2.48-1.49,5-3,7.52-4.34a2.72,2.72,0,0,1,2.69.08l7.14,4.08c.88.51.94,1.09.05,1.61q-3.82,2.25-7.66,4.43A1.89,1.89,0,0,1,283.88,237.28Z" transform="translate(-1.89 -14)"/><path class="cls-9" d="M261.16,211.73l-4.36-4c2.52-1.44,5-2.87,7.55-4.33a2.94,2.94,0,0,1,3.09,0q3.45,1.93,6.86,4c1.23.73,1.21,1.17-.1,1.94-2.36,1.39-4.74,2.75-7.11,4.13a2.76,2.76,0,0,1-2.94,0A12.87,12.87,0,0,0,261.16,211.73Z" transform="translate(-1.89 -14)"/><path class="cls-9" d="M269.23,230.43a83.94,83.94,0,0,0-2.73-8.77,9,9,0,0,0,3.17-1.56,3.23,3.23,0,0,1,3.64,0c2.12,1.3,4.31,2.49,6.46,3.75,1.27.75,1.31,1.19.06,1.93-2.4,1.44-4.83,2.83-7.27,4.21a2.37,2.37,0,0,1-2.51.1C269.59,229.81,269.27,229.78,269.23,230.43Z" transform="translate(-1.89 -14)"/><path class="cls-9" d="M272,245.38q-.6-4.2-1.21-8.4c4-2.61,4-2.61,8.25-.15,1.47.86,2.94,1.72,4.43,2.55,1.15.65.88,1.27,0,1.81q-3.6,2.12-7.25,4.16a2.91,2.91,0,0,1-3.22-.17C272.61,244.93,272.18,244.51,272,245.38Z" transform="translate(-1.89 -14)"/><path class="cls-9" d="M249,200.84l2.85-3.18c1,.77,1.71.07,2.25-.57.75-.88,1.39-.72,2.24-.2,1.94,1.19,3.94,2.27,5.89,3.44,1.41.83,1.42,1.3,0,2.13-1.9,1.14-3.84,2.23-5.76,3.35-.44.25-1,.4-1.21.91-1-.63-2.05-1.29-3.11-1.88-.38-.22-.74-.8-1.31-.3a1.4,1.4,0,0,1-1.6-.93c-.47-.67-.16-1.44-.28-2.16A.42.42,0,0,1,249,200.84Z" transform="translate(-1.89 -14)"/><path class="cls-9" d="M344.05,314.2a3,3,0,0,1-1.75-.44c-2.47-1.41-4.93-2.83-7.38-4.28-1.31-.77-1.33-1.13-.06-1.88,4.81-2.83,3.71-2.81,8.14-.28l5.13,2.92c1,.56,1.16,1.15.05,1.75A28.49,28.49,0,0,1,344.05,314.2Z" transform="translate(-1.89 -14)"/><path class="cls-9" d="M367.7,328a2.25,2.25,0,0,1-1.34-.37c-2.56-1.47-5.1-3-7.67-4.42-1.25-.69-1-1.22,0-1.81s2-1.21,3.08-1.8a2.29,2.29,0,0,1,2.49,0c2.49,1.48,5,2.89,7.54,4.35,1.38.8,1.39,1.2,0,2S369.28,327.72,367.7,328Z" transform="translate(-1.89 -14)"/><path class="cls-9" d="M355.63,321.16a7.14,7.14,0,0,1-1.15-.42c-2.61-1.5-5.2-3-7.82-4.51-1.1-.63-1-1.19,0-1.75l.27-.16c4.84-2.78,3.54-2.58,8-.07,1.62.91,3.24,1.85,4.85,2.78,1.35.79,1.36,1.19-.06,2A17.8,17.8,0,0,1,355.63,321.16Z" transform="translate(-1.89 -14)"/><path class="cls-9" d="M362,317.39c-.46-.21-.89-.39-1.29-.61-2.47-1.42-4.94-2.84-7.4-4.28-1.23-.73-1.24-1.05,0-1.81,1-.61,2-1.17,3-1.73a2.56,2.56,0,0,1,2.67,0c2.6,1.5,5.21,3,7.8,4.51.41.25,1.11.7.48,1.18A16,16,0,0,1,362,317.39Z" transform="translate(-1.89 -14)"/><path class="cls-9" d="M406.52,280.89a3.43,3.43,0,0,1-2-.58c-2.2-1.26-4.41-2.51-6.6-3.8-1.31-.76-1.29-1.24.06-2,.45-.27.91-.5,1.34-.79a3.4,3.4,0,0,1,4,0c2.11,1.32,4.29,2.52,6.46,3.74,1.06.59,1.1,1.17.05,1.77A12,12,0,0,1,406.52,280.89Z" transform="translate(-1.89 -14)"/><path class="cls-9" d="M281.37,208.9a2.18,2.18,0,0,1-.61-.16c-2.7-1.53-5.41-3.05-8.09-4.63-.7-.41-.43-.91.08-1.36,2.41-2.12,3.92-2.27,6.69-.65,1.79,1.05,3.6,2.06,5.39,3.11,1.33.78,1.34,1.25,0,2.06A9.63,9.63,0,0,1,281.37,208.9Z" transform="translate(-1.89 -14)"/><path class="cls-9" d="M293.18,215.67a3.36,3.36,0,0,1-.88-.23q-3.92-2.2-7.81-4.47c-.78-.45-.6-.91,0-1.42,2.69-2.17,3.92-2.26,7-.48,1.69,1,3.41,2,5.11,3,1.39.82,1.38,1.28,0,2.11A8.41,8.41,0,0,1,293.18,215.67Z" transform="translate(-1.89 -14)"/><path class="cls-9" d="M417.78,287.75a10.2,10.2,0,0,1-1.19-.5c-2.3-1.3-4.59-2.6-6.87-3.94-1.21-.71-1.19-1.24,0-2a5.9,5.9,0,0,0,.81-.47c1.72-1.39,3.38-1.34,5.23-.1s3.9,2.33,5.89,3.43c1,.56,1,1.15.11,1.69A9.77,9.77,0,0,1,417.78,287.75Z" transform="translate(-1.89 -14)"/><path class="cls-9" d="M304.69,222.4a2.5,2.5,0,0,1-1.18-.42c-2.33-1.34-4.64-2.71-7-4-1-.57-1-1.13-.06-1.7s1.59-1,2.42-1.39a2.73,2.73,0,0,1,2.8.09c2.26,1.34,4.56,2.62,6.83,4,1.18.7,1.21,1.17.07,1.85S306.42,222.35,304.69,222.4Z" transform="translate(-1.89 -14)"/><path class="cls-9" d="M261.2,192.05a2.65,2.65,0,0,1,1.48.36c2.28,1.34,4.55,2.67,6.83,4,1.05.6,1.28,1.17.08,1.85-.72.41-1.41.88-2.14,1.25a2.89,2.89,0,0,1-3.07-.1c-2.19-1.36-4.47-2.58-6.7-3.88-1.23-.72-1.24-1.24,0-1.93C258.82,193,259.79,192,261.2,192.05Z" transform="translate(-1.89 -14)"/><path class="cls-9" d="M389.88,266.2a2.9,2.9,0,0,1,1.47.5l6.57,3.8c1.24.72,1.26,1.21.07,1.95-.66.41-1.36.75-2,1.16a2.79,2.79,0,0,1-3.07,0c-2.27-1.33-4.56-2.64-6.85-3.94-1-.58-1.11-1.23-.08-1.8S388.13,266.21,389.88,266.2Z" transform="translate(-1.89 -14)"/><path class="cls-9" d="M316.79,229.2a2.3,2.3,0,0,1-1.34-.32c-2.38-1.38-4.75-2.78-7.14-4.13-.93-.53-.91-1.09-.1-1.63a20,20,0,0,1,2.71-1.52,2.73,2.73,0,0,1,2.66.22c2.23,1.33,4.5,2.59,6.73,3.9,1.25.73,1.23,1.19,0,1.94C318,229.07,317.68,229.21,316.79,229.2Z" transform="translate(-1.89 -14)"/><path class="cls-9" d="M382.66,267.22a2.56,2.56,0,0,1-1.35-.31c-2.33-1.37-4.67-2.69-7-4.06-1.21-.72-1.22-1.12-.08-1.86.7-.45,1.42-.86,2.16-1.25a2.91,2.91,0,0,1,3,0c2.25,1.3,4.5,2.58,6.73,3.9,1.27.75,1.29,1.22.06,2S384,267.15,382.66,267.22Z" transform="translate(-1.89 -14)"/><path class="cls-9" d="M267.72,255.6c-.32-.71.55-1.72-.57-2.23,1.48-.37,3-.81,4.45-1.08a1.15,1.15,0,0,0,1.09-1.49c-.17-1.53-.35-3.05-.53-4.57q2.88,1.65,5.77,3.29c.93.51.89,1.16.1,1.63-2.61,1.56-5.27,3-7.92,4.52A2.65,2.65,0,0,1,267.72,255.6Z" transform="translate(-1.89 -14)"/><path class="cls-19" d="M265.85,219.84,263,214.25c1.61.9,3.21,1.81,4.83,2.69.94.52.87,1.06.08,1.6S266.55,219.41,265.85,219.84Z" transform="translate(-1.89 -14)"/><path class="cls-20" d="M270.46,235.73c-.29-1.45-.59-2.9-.88-4.35.71.4,1.43.79,2.14,1.2.93.52.82,1.06,0,1.62C271.18,234.59,270.37,234.78,270.46,235.73Z" transform="translate(-1.89 -14)"/><path class="cls-17" d="M294.89,430.4c-1-3.78.9-8,4.75-10.22q13.73-7.94,27.48-15.84l74.8-43.09q27.15-15.64,54.3-31.3a16,16,0,0,0,8.39-14.47c0-2.15.32-4.36-.9-6.39a3.55,3.55,0,0,1,3.31,3.22c.84,6.54-.21,12.57-5.4,17.2-2.5,2.22-5.59,3.55-8.46,5.21q-35.62,20.58-71.28,41.07l-68.19,39.29c-4,2.3-8,4.57-12,6.93a8.94,8.94,0,0,0-4,10.31A5.47,5.47,0,0,1,294.89,430.4Z" transform="translate(-1.89 -14)"/><path class="cls-5" d="M218,375c.26-.43.35-1,1.08-.28,1.47,1.52,2.21,5,1.27,6.92-.76,1.56-1.63,3.07-2.44,4.6-2,2.62-4,5.28-6,7.86-1.52,1.92-3.32,3.4-6,3.41-2.91,0-4.33-1.22-4.45-4.14a22,22,0,0,1,1.49-7.73,52.71,52.71,0,0,1,2.6-6,9.22,9.22,0,0,1,2.36-4.41c.18-.23.44-.47.79-.2.4.84.44,1.8.82,2.66,1,2.34,5.58,3.16,7.36,1.29a2.91,2.91,0,0,0,.73-2.29C217.52,376.11,217.3,375.45,218,375Z" transform="translate(-1.89 -14)"/><path class="cls-3" d="M208.52,375a25.07,25.07,0,0,0-3,4.67c-.26-1.11-1.35-1.2-2.12-1.64-1.14-.64-2.09-1.72-3.55-1.72,1.21-1.83,2.57-3.57,2.91-5.86s-.82-5.19-2.6-6c-.19-.12-.22-.32-.28-.51l.63-1.14c1.48,0,2.48,1.08,3.68,1.69.67.33,1.29.71,1.91-.06.51,1.57.25,3.22.56,4.81.39,2,.26,4.13,2.2,5.46A.35.35,0,0,1,208.52,375Z" transform="translate(-1.89 -14)"/><path class="cls-21" d="M298.29,419.14l-.06-18a3.77,3.77,0,0,0,3.7-.31Q339.85,379,377.79,357.1l66.3-38.19q7.67-4.43,15.35-8.84c2.31-1.32,2.55-1.11,2.74,1.57.41,5.64-.76,10.73-4.81,14.91-2.2,2.28-5.11,3.52-7.76,5.12-30.82,18.56-62.06,36.41-93.29,54.27q-28.81,16.49-57.61,33C298.58,419,298.43,419.08,298.29,419.14Z" transform="translate(-1.89 -14)"/><path class="cls-22" d="M208.52,375l.31-.33a7.3,7.3,0,0,0,8.81-1.57.17.17,0,0,0,.18,0c0,.63.08,1.27.13,1.9-.33.94.17,1.88,0,2.83a2.51,2.51,0,0,1-.4,1.14c-1.35,1.58-3.13,1.62-5,1.34-1.58-.25-3-.72-3.53-2.52A10.39,10.39,0,0,1,208.52,375Z" transform="translate(-1.89 -14)"/><path class="cls-21" d="M249.28,203.61l1.6.93c2,1.8,3.5,3.88,3.29,6.73a7.08,7.08,0,0,1-7.16,6.3c-2.3.06-3.41,1.36-4.63,2.81a2.39,2.39,0,0,0-.41,1.92c.74,6.33,1.44,12.67,2.19,19a3.28,3.28,0,0,1-.66,2.6c-2.16,2.78-4.28,5.6-6.43,8.4-.3.39-.55,1-1.2.82s-.57-.69-.71-1.12c-1.21-3.8-2.4-7.61-3.63-11.4a3.12,3.12,0,0,1,.18-2.25c2.1-5.47,4.25-10.91,6.23-16.42a7,7,0,0,0-1.62-7.82c-3.53-3.52-3.28-7.86.6-10.82a5.07,5.07,0,0,1,2.55.46c0,.33-.28.43-.52.52-3.74,1.46-4.63,5.52-1.15,8.76a10.62,10.62,0,0,0,10.71,2.39c4.29-1.26,5.16-5.4,2-8.61C249.67,205.93,248.35,205.21,249.28,203.61Z" transform="translate(-1.89 -14)"/><path class="cls-23" d="M209.13,275.68c0-3.94-.63-7.83-.85-11.74-.17-3.05-.43-6.09-.69-9.12-.21-2.37-.36-4.74-.6-7.1-.3-3,.51-5.86,1-8.75a20.65,20.65,0,0,1,.84-4.54,31.43,31.43,0,0,0,9.6,6.33c.76.3.47.75.3,1.23a30.23,30.23,0,0,0-2.64,12.5c0,1.75-.58,3.44-.73,5.19-.32,4.83-.62,9.67-1,14.51a6.39,6.39,0,0,0,1.25,4.18c.09.39.47.81-.12,1.14-2.11-.33-3.64-1.85-5.48-2.73C209.6,276.57,209.08,276.34,209.13,275.68Z" transform="translate(-1.89 -14)"/><path class="cls-9" d="M207.89,233.21s-.12,0-.15,0c-2.59,1.66-4.67.29-6.79-1.07-1.4-.89-2.86-1.68-4.31-2.48-.93-.51-1.15-1.1-.16-1.69,3.08-1.82,6.18-3.59,9.29-5.35,1.25-.71,2.28.11,3.35.61-.87,1.75-1.62,3.58-2.65,5.23a2.65,2.65,0,0,0,.42,3.58Z" transform="translate(-1.89 -14)"/><path class="cls-21" d="M215.64,279.46c.14-.36-.26-.73,0-1.09l11.6,6.66c-.59.7-1.54.82-2.2,1.39-.41.36-1.11.71-.86,1.33s1,.09,2,.2l-2.95,2.64a2.76,2.76,0,0,0-1,2.47c-1.56.18-2.23-.32-2.3-1.84-.12-2.33.09-4.66-.12-7a7.11,7.11,0,0,0-1.25-2.41C217.73,280.88,216.14,280.84,215.64,279.46Z" transform="translate(-1.89 -14)"/><path class="cls-24" d="M215.39,259.68c.41-4.62,0-9.31,1.45-13.82a16.25,16.25,0,0,1,1.92-3.87A128.33,128.33,0,0,1,215.39,259.68Z" transform="translate(-1.89 -14)"/><path class="cls-25" d="M215.64,279.46c.92.86,2.24,1.14,3.11,2.08a3.72,3.72,0,0,1-1.53.93l-35.1-20.38c.21-.74.94-.66,1.17-1.15q8.61,4.94,17.22,9.85c2.87,1.64,5.75,3.26,8.62,4.89A60.25,60.25,0,0,0,215.64,279.46Z" transform="translate(-1.89 -14)"/><path class="cls-5" d="M319.42,364.69l49.8-28.77,55.9-32.26c3.63-2.1,7.26-4.22,10.92-6.28a10.93,10.93,0,0,0,5-4.93,21.83,21.83,0,0,1,0,7.52c-.41,2.32-2.16,3.76-4.07,4.86-9.93,5.75-19.91,11.42-29.85,17.16-9.45,5.45-18.84,11-28.28,16.43-7.21,4.17-14.45,8.26-21.67,12.42q-10.41,6-20.8,12-7.46,4.32-14.91,8.6a4.21,4.21,0,0,1-2,.79Z" transform="translate(-1.89 -14)"/><path class="cls-26" d="M227.53,321.42c0,.71.62.77,1,1q27.91,16.15,55.84,32.26l16.43,9.48c.89.51,1.81,1,2.71,1.48,0,2.18,0,4.36,0,6.54,0,1.25-.38,1.31-1.33.76-3.77-2.17-7.56-4.29-11.32-6.46q-9.82-5.67-19.61-11.35l-21.77-12.59-27.64-16c-.36-.21-.75-.36-.93-.78Z" transform="translate(-1.89 -14)"/><path class="cls-21" d="M417,57.58a2.68,2.68,0,0,1-1.61,3c-1.29.54-2.82-.19-3.92-1.49a5.19,5.19,0,0,1-1.09-5.2A2.41,2.41,0,0,1,414,52.3,5.33,5.33,0,0,1,417,57.58Z" transform="translate(-1.89 -14)"/><path class="cls-21" d="M427.24,63.43a2.6,2.6,0,0,1-1.66,3A3.7,3.7,0,0,1,421.63,65a5.94,5.94,0,0,1-1.25-4,2.78,2.78,0,0,1,4.94-2.06A5.38,5.38,0,0,1,427.24,63.43Z" transform="translate(-1.89 -14)"/><path class="cls-21" d="M406.67,51.52c.11,1.24-.12,2.45-1.52,3a3.13,3.13,0,0,1-3.62-1A5.25,5.25,0,0,1,400,48.11a2.5,2.5,0,0,1,3.86-1.65A5,5,0,0,1,406.67,51.52Z" transform="translate(-1.89 -14)"/><path class="cls-12" d="M214.13,117.07c.08-1.47.42-2.72,1.81-3.28a3,3,0,0,1,3.38.94,5.65,5.65,0,0,1,1.67,5.53,2.6,2.6,0,0,1-4,1.73A5.8,5.8,0,0,1,214.13,117.07Z" transform="translate(-1.89 -14)"/><path class="cls-27" d="M210.94,113.12c-.17,1.34-.43,2.64-1.85,3.17a3,3,0,0,1-3.38-1,5.55,5.55,0,0,1-1.65-5.38,2.61,2.61,0,0,1,4.28-1.68A6.12,6.12,0,0,1,210.94,113.12Z" transform="translate(-1.89 -14)"/><path class="cls-17" d="M231.37,125.38a2.72,2.72,0,0,1-1.65,2.73,3,3,0,0,1-3.51-1c-1.47-1.61-2.29-3.47-1.53-5.67a2.58,2.58,0,0,1,4.1-1.43A5.75,5.75,0,0,1,231.37,125.38Z" transform="translate(-1.89 -14)"/><path class="cls-21" d="M233.68,288.7l9.74,5.55c1.17.7,2.35,1.41,3.53,2.1.63.38,1.22.77,1.07,1.65-2.19,2-5,3.17-7.48,4.67-5.61,3.33-11.31,6.51-16.94,9.79a5.26,5.26,0,0,1-3.54.84.7.7,0,0,1-.16-.42c-.27-2.11.75-3.2,2.63-4.13,3.71-1.84,7.26-4,10.89-6,1.74-1,1.72-1.47,0-2.53-2.25-1.4-4.59-2.63-6.88-4-.67-.39-1.58-.59-1.8-1.54a13.89,13.89,0,0,0,8.34-5.29Z" transform="translate(-1.89 -14)"/><path class="cls-7" d="M206.07,364.39c.08,1.14-.24,1.49-1.34.81-1.38-.87-2.83-1.63-4.25-2.44.72-6-.25-12,0-18,2.42.6,3.15,1.34,3.47,3.61Q205,356.39,206.07,364.39Z" transform="translate(-1.89 -14)"/><path class="cls-28" d="M199.85,363.9l.28.51c0,1,0,2.07,0,3.1a2.47,2.47,0,0,1-.87,2.08c-2,1.59-4.2,1.3-6.34.5-1.94-.73-2-2.53-2.18-4.31C194.51,367.19,197.72,366.5,199.85,363.9Z" transform="translate(-1.89 -14)"/><path class="cls-21" d="M18.52,291.9c0-1.87,0-3.74,0-5.6,0-1.7.94-2.38,3.09-2.36s3,.71,3,2.42c0,2.9,0,5.81,0,8.71,0,.82.13,1.07,1,1q14-1.8,28.08-3.5a8.29,8.29,0,0,1,3.1,0c.84.22,1.8.51,1.83,1.61s-.94,1.48-1.78,1.64c-1.67.32-3.38.48-5.08.68-9.78,1.2-19.55,2.38-29.33,3.6a5.92,5.92,0,0,1-2.3-.14,2,2,0,0,1-1.72-2.23c.05-1.92,0-3.84,0-5.76Z" transform="translate(-1.89 -14)"/><path class="cls-21" d="M58.34,423.91c7.6,5.34,16.2,8,25.27,9.28a77.63,77.63,0,0,0,29.63-1.45A55.91,55.91,0,0,0,127.78,426c.48.91-.39,1.26-.79,1.71-4.39,4.93-10.08,7.73-16.29,9.49a60.24,60.24,0,0,1-35-.36c-6.16-1.91-11.8-4.84-15.89-10.08C59.13,426,58.15,425.19,58.34,423.91Z" transform="translate(-1.89 -14)"/><path class="cls-21" d="M137.84,423.93c1.7.83,3.68,1.25,4.66,3.14a21.26,21.26,0,0,0-1,6.39c.05,3.05,1.05,5.44,4,6.74.57.25,1.09.59,1.63.89-1.82.9-3.94.55-5.8,1.35-.22.09-.65-.24-1-.41-3.4-2-6.78-4-10.19-5.92-.91-.52-.74-.8,0-1.39C133.63,431.81,136.55,428.44,137.84,423.93Z" transform="translate(-1.89 -14)"/><path class="cls-17" d="M348.68,451.27a5.72,5.72,0,0,1,3-4.6c2.46-1.42,4.91-2.88,7.35-4.33,2.13-1.27,4.18-1.35,6.16.32l-12.07,7.23c-1.15.69-2.32,1.37-3.47,2.05C348.84,452.44,348.71,451.94,348.68,451.27Z" transform="translate(-1.89 -14)"/><path class="cls-13" d="M345.61,472.45c2.31-1.47,2.43-4,.31-6.62-1.94-2.42-2.84-2.54-5.89-.79.11-1.31-.18-2.86,1.33-3.56s2.91.07,4.15,1a10.54,10.54,0,0,1,4.13,6.2C350.42,472.05,348.94,473.42,345.61,472.45Z" transform="translate(-1.89 -14)"/><path class="cls-29" d="M220.11,313l-.05.32a3.62,3.62,0,0,1-1.59,1.41c0-9.49,0-18.92,0-28.36a5.71,5.71,0,0,0-1.26-3.88,1.53,1.53,0,0,1,1.53-.93,4.92,4.92,0,0,1,1.32,2.17,1.43,1.43,0,0,1,.12.45c0,8.07.62,16.14.34,24.21C220.48,309.91,220.12,311.43,220.11,313Z" transform="translate(-1.89 -14)"/><path class="cls-30" d="M132.21,398.38c-3.29,4.72-7.94,7.68-13.1,9.87-10.49,4.45-21.45,5.56-32.72,4.22-7.81-.94-15.23-3-21.9-7.3-2.92-1.87-5.68-4-7.42-7.12,1.12-2.45,3.15-4.09,5.23-5.6,6.57-4.77,14.06-7.25,22-8.45a67.34,67.34,0,0,1,29.1,1.85,39.39,39.39,0,0,1,16.38,8.91C130.82,395.75,132.17,396.66,132.21,398.38Z" transform="translate(-1.89 -14)"/><path class="cls-31" d="M132.21,398.38c-2.17-3.5-5.39-5.83-8.85-7.85-5.94-3.47-12.45-5.21-19.21-6.23a63.51,63.51,0,0,0-13.49-.53c-10.22.64-19.93,3-28.39,9.21a43.69,43.69,0,0,0-5.2,5.07c-3.4-4.59-3.36-6.67.58-11.9s9.84-8.31,16-10.49a61.35,61.35,0,0,1,17-3.24c11-.63,21.58,1,31.47,6a27.57,27.57,0,0,1,11.3,10.15C135.76,392.33,134.45,395.35,132.21,398.38Z" transform="translate(-1.89 -14)"/><path class="cls-32" d="M134.93,387.82c-2.31-7.15-7.42-11.23-13.49-14.31a57,57,0,0,0-23.85-5.76c-10.37-.4-20.38,1.13-29.75,5.82-4.65,2.33-8.74,5.37-11.5,9.93a19.63,19.63,0,0,0-2,4.54,10.65,10.65,0,0,1,1.79-5.88c2.92-5,7.43-8.17,12.52-10.59C79,366.7,89.86,365.52,101,366.44c8.31.69,16.25,2.77,23.42,7.2,4.4,2.72,8.11,6.12,10,11.15A5.63,5.63,0,0,1,134.93,387.82Z" transform="translate(-1.89 -14)"/><path class="cls-16" d="M249,200.84c0,.2,0,.41,0,.61a15.42,15.42,0,0,1-6.6,6.12c-.42.18-.87.31-1.29.5-1.16.54-1.54.05-1.43-1.07.1-.92.22-1.84.32-2.76a.58.58,0,0,1,.6-.58C243.68,203.55,246.37,202.27,249,200.84Z" transform="translate(-1.89 -14)"/><path class="cls-33" d="M231.18,198.16l6.44,1.73c.93.25.69.78.26,1.23a2.18,2.18,0,0,1-2.43.52A8.44,8.44,0,0,1,231.18,198.16Z" transform="translate(-1.89 -14)"/><path class="cls-34" d="M211.92,459c.11-.85.85-1.4,2-1.38a1.87,1.87,0,0,1,1.75,2.15,1.9,1.9,0,0,1-2,1.73C212.54,461.5,211.78,460.47,211.92,459Z" transform="translate(-1.89 -14)"/><path class="cls-1" d="M342.27,133.48l16.34,9.43q22.89,13.22,45.77,26.43c.69.4,1.84.58,1.87,1.42a8.68,8.68,0,0,1-.65,3.48c-.28.73-.88,0-1.25-.23-5.44-3.11-10.87-6.26-16.3-9.39q-22.41-12.94-44.85-25.85c-1.41-.8-2-1.54-1.38-3.12A12.63,12.63,0,0,0,342.27,133.48Z" transform="translate(-1.89 -14)"/><path class="cls-1" d="M382.58,181.74c-6.2-3.57-12.21-7-18.22-10.51-8.35-4.82-16.68-9.69-25.07-14.44a2,2,0,0,1-1.17-2.66c.52-2.5.44-2.51,2.67-1.22,13.56,7.83,27.11,15.68,40.71,23.44,1.51.86,2.18,1.69,1.52,3.37A12.92,12.92,0,0,0,382.58,181.74Z" transform="translate(-1.89 -14)"/><path class="cls-21" d="M340.44,142.57l19.44,11.21c5.93,3.42,11.82,6.9,17.79,10.23a2.05,2.05,0,0,1,1.24,2.67c-.59,2.51-.52,2.52-2.77,1.22q-17.72-10.23-35.43-20.43c-.85-.49-1.19-1-.86-2A23.8,23.8,0,0,0,340.44,142.57Z" transform="translate(-1.89 -14)"/><path class="cls-1" d="M328.3,130.4l-12.23-7.07c-2-1.14-3.89-2.39-5.93-3.38-1.12-.55-1.14-1.23-.95-2.21.54-2.77.52-2.78,3-1.37,5.24,3,10.47,6.09,15.74,9,1.07.6,1.38,1.2,1,2.32A25.27,25.27,0,0,0,328.3,130.4Z" transform="translate(-1.89 -14)"/><path class="cls-12" d="M333.2,107.52c-.26,3.54-.47,3.66-3.43,2l-14.52-8.41c-2.13-1.23-2.13-1.23-1.67-3.67.35-1.81.35-1.81,1.89-.92q8.34,4.81,16.67,9.64C332.67,106.43,333.54,106.56,333.2,107.52Z" transform="translate(-1.89 -14)"/><path class="cls-4" d="M404.47,180.41l0,.16c-.51,3.26-.54,3.32-3.37,1.71-5.26-3-10.46-6.06-15.71-9.07a1.33,1.33,0,0,1-.8-1.5c.18-1,.11-2.27.7-2.78.87-.75,1.67.52,2.45,1,5.4,3,10.75,6.18,16.13,9.26A1.1,1.1,0,0,1,404.47,180.41Z" transform="translate(-1.89 -14)"/><path class="cls-1" d="M315.35,89.6c0-.09,0-.14,0-.19.22-3.48.48-3.61,3.44-1.89q7.24,4.2,14.51,8.37c2.14,1.23,2.15,1.22,1.68,3.68-.34,1.8-.34,1.81-1.91.91q-8.4-4.83-16.79-9.69C315.83,90.52,315.19,90.34,315.35,89.6Z" transform="translate(-1.89 -14)"/><path class="cls-1" d="M409,229.94l15.79,9.12.53.33c3.35,1.93,3.35,1.93,2.13,5.9-2.83-1.63-5.64-3.23-8.44-4.85-3.19-1.83-6.35-3.73-9.57-5.51-1-.53-1.4-1-1-2.17A24.05,24.05,0,0,0,409,229.94Z" transform="translate(-1.89 -14)"/><path class="cls-35" d="M387,141.94a2.41,2.41,0,0,1-2.55,2.49,3,3,0,0,1-2.7-3,2.52,2.52,0,0,1,2.51-2.57A2.88,2.88,0,0,1,387,141.94Z" transform="translate(-1.89 -14)"/><path class="cls-27" d="M378.7,137.06a2.45,2.45,0,0,1-2.51,2.58,3,3,0,0,1-2.7-3.06A2.49,2.49,0,0,1,376,134,2.9,2.9,0,0,1,378.7,137.06Z" transform="translate(-1.89 -14)"/><path class="cls-1" d="M220.11,313q0-12.06,0-24.13c0-1.71,0-3.42,0-5.14.66,1.58.15,3.22.29,4.83a9.55,9.55,0,0,1,0,2,1.94,1.94,0,0,0,1.89,2.52,3.24,3.24,0,0,0,2.51,1.64c3,1.76,6.08,3.51,9.11,5.28,2,1.15,2,1.85,0,3-3.91,2.21-7.83,4.42-11.81,6.51-1.17.62-2,1.19-1.7,2.66A.87.87,0,0,1,220.11,313Z" transform="translate(-1.89 -14)"/></g></svg>