<svg id="Layer_1" data-name="Layer 1" xmlns="http://www.w3.org/2000/svg" viewBox="0 0 518.08 457.75"><defs><style>.cls-1{fill:#3170a2;}.cls-2{fill:#94ddee;}.cls-3{fill:#9b97b3;}.cls-4{fill:#75d4ef;}.cls-5{fill:#8fdcef;}.cls-6{fill:#6ed2f1;}.cls-7{fill:#295b8d;}.cls-8{fill:#a98382;}.cls-9{fill:#a98282;}.cls-10{fill:#295b8c;}.cls-11{fill:#fbd0c4;}.cls-12{fill:#926d6d;}.cls-13{fill:#e2b0a5;}.cls-14{fill:#e2b1a6;}.cls-15{fill:#56ccf1;}.cls-16{fill:#b8e8f8;}.cls-17{fill:#b9e8f8;}.cls-18{fill:#387cab;}.cls-19{fill:#936e6d;}.cls-20{fill:#738daf;}.cls-21{fill:#c3cbd6;}.cls-22{fill:#57ccf1;}.cls-23{fill:#b9e7f7;}.cls-24{fill:#59ccf0;}.cls-25{fill:#5cccf0;}.cls-26{fill:#6dafcd;}.cls-27{fill:#214b6d;}.cls-28{fill:#fefefe;}.cls-29{fill:#fdfefe;}.cls-30{fill:#c4cbd5;}.cls-31{fill:#fad0c4;}.cls-32{fill:#f8f8f9;}.cls-33{fill:#738caf;}.cls-34{fill:#397cab;}.cls-35{fill:#397eae;}.cls-36{fill:#397bab;}.cls-37{fill:#397cac;}.cls-38{fill:#3a7dac;}.cls-39{fill:#3b7dad;}.cls-40{fill:#6baecd;}.cls-41{fill:#1e3c65;}</style></defs><g id="X3pAxY.tif"><path class="cls-1" d="M152.58,308.84q-2.9-11.74-6.16-23.39a2.53,2.53,0,0,1-.6-2.54c-.33-1.25-.64-2.51-1-3.75a1.21,1.21,0,0,1,.78-1.7q27.33-13.2,54.63-26.46Q223.1,239.92,246,228.85a2.19,2.19,0,0,0,1.5-1.92,17.7,17.7,0,0,1,.37-1.9,4.67,4.67,0,0,1,.2-2.59c1.05-3.65,2-7.34,3.12-10.95.73-2.25.62-4.57.86-6.86,1-9.9.93-19.85.87-29.79a4.75,4.75,0,0,1,.39-2.44,47.22,47.22,0,0,1,1.14-9.76,15.08,15.08,0,0,1,3.09-6.76c-3.69.29-7,.52-10.29.8A88.73,88.73,0,0,0,231,159.23c-1.83.51-2.8-.8-3.62-2.17a4,4,0,0,1-1.32-2.48c-.34-1.24-.5-2.51-.82-3.76a2.37,2.37,0,0,1,.31-2,2.57,2.57,0,0,1,2.1-1.38c10.27-2.2,20.53-4.39,30.78-6.66,3.57-.78,7.08-1.79,10.69-2.39.41-.06.83-.08,1.24-.13l.06.19a17.12,17.12,0,0,0-1.32,7c2.34-1.15,4.48-2.28,6.68-3.29a73.9,73.9,0,0,0,10.58-6,11.47,11.47,0,0,0,1.07-.89c2.13-2,2.26-4.2.37-6.46a6.87,6.87,0,0,1-1.14-1.38.59.59,0,0,1,.12-.58c4.62-.31,6.66.85,8.74,5a62,62,0,0,1,6,16.48c.69,3.8.68,7.53-1.45,11a19.37,19.37,0,0,0-1.15,2.82,3.82,3.82,0,0,1-.2,1.77,104.19,104.19,0,0,0-4.54,22.66c-.33,3.5.43,6.9.93,10.33.25,1.69.57,3.37.83,5.06a2.33,2.33,0,0,1,.05.28c.18,1.85.2,1.87,1.88,1.06,8.43-4.07,16.84-8.19,25.27-12.26,16.2-7.81,32.34-15.73,48.57-23.48,3.14-1.5,6.26-3,9.38-4.56,11.52-5.67,23.11-11.18,34.63-16.85,6.11-3,12.32-5.81,18.36-9a7.54,7.54,0,0,1,1.3-.57,22.54,22.54,0,0,0,3.23-1.5c3.13-1.39,6.18-2.94,9.23-4.48.75-.38,1.5-.72,2.27-1.05.38-.16.87-.4,1.11.07s-.25.73-.57,1c-2.56,1.83-5.16,3.61-7.77,5.35-1.42,1-2.65,2.16-4.14,3a6.13,6.13,0,0,0-2,1.32l-.32.23c-10.06,6.81-20,13.76-30,20.63q-9.87,6.77-19.72,13.55-21,14.44-42,28.87-11.06,7.62-22.12,15.21C312,226,301.49,233.16,291,240.4a2.17,2.17,0,0,0-1.12,2.06c0,.7,0,1.39.06,2.09a43.45,43.45,0,0,0,1.06,6.7,72.08,72.08,0,0,1,2,13.55c.05.79.25,1.55.26,2.34.15,4.39-.49,8.74-.53,13.12-.09.48,0,1-.56,1.31-1-1.24-2.43-1.6-3.82-2.06a2.47,2.47,0,0,1-1.7-1.83,49.75,49.75,0,0,1-2.13-10.89c-.27-4.2-.73-8.4,0-12.61.54-3.35.49-6.74.72-10.11.11-1.58.33-3.14.36-4.72a2.25,2.25,0,0,1,1.32-2,8.35,8.35,0,0,0,1.77-1.11A1,1,0,0,0,289,235c-.32-.51-.74,0-1.06.15a29.4,29.4,0,0,1-10.22,3.46,37.61,37.61,0,0,1-11.21-.12c-1.72-.27-2-.77-1.38-2.36,2.83-7.36,5.54-14.76,8-22.26,2.88-8.92,5.74-17.85,7-27.18a46.94,46.94,0,0,0,.44-11.9,13,13,0,0,0-1.46-4.89c1.13,9.58-2,18.3-5.53,26.94-1.45,3.61-2.95,7.2-4.32,10.85-1.68,4.49-4.27,8.54-6.62,12.69-3.45,6.1-7.16,12-10.75,18.05a3.26,3.26,0,0,1-.49.68.6.6,0,0,1-.87,0,13.61,13.61,0,0,1-3.83-4.5c-.07-.16-.13-.34,0-.43a3.73,3.73,0,0,0,.62,4,24.12,24.12,0,0,0,7.56,6.8,3.2,3.2,0,0,1,1.1.83c.54.88,1.13.58,1.72.07a12.1,12.1,0,0,0,2.86-3.72c1.1-2.2,1.53-2.35,3.94-2.11,5.78.58,11.55.91,17.25-.68.57-.16,1.23-.37,1.72.13s.2,1.16,0,1.69a12.21,12.21,0,0,0-.84,4.76,116.17,116.17,0,0,1-1.62,17.56,6.25,6.25,0,0,0,.1,1.93c.52,3.48,1.13,6.95,1.76,10.42.34,1.84,0,2.21-1.84,2a81.37,81.37,0,0,0-11.35-.87c-1.7,0-3.4.52-5.12.13a1.52,1.52,0,0,1-.59-.34,90.12,90.12,0,0,1-4.65-10.9c-.18-.58-.32-1.17-.47-1.75-.33-1.21-.38-1.25-1.44-.52-3.51,2.43-7,4.81-10.56,7.24q-9.25,6.42-18.55,12.79c-10.86,7.45-21.69,15-32.57,22.37a2.82,2.82,0,0,0-1.06,1.08c-1.41,3.18-2.55,6.46-3.78,9.7q-4.11,10.85-8.21,21.7c-4,10.7-8,21.42-12.16,32.09-.05.12-.14.24-.06.35.77-.47,1.27-1.35,2.25-1.54a55,55,0,0,1,5.09,2.84c.9.53.91,1.16,0,1.71-2,1.26-4.06,2.41-6.13,3.56a1.79,1.79,0,0,1-1.85-.14c-1.85-1.06-3.73-2.09-5.55-3.19-1.2-.73-1.17-1.36,0-2.16,1-.63,2-1.19,3-1.74a1.34,1.34,0,0,0,.74-1.82c-1-3.47-1.86-7-2.73-10.49A2.5,2.5,0,0,0,164,356.3c-.82-.48-1.26-1-.29-1.77a1.11,1.11,0,0,0,.27-1.28c-.47-1.51-.83-3-1.19-4.58-.23-1-.66-1.21-1.55-.66-1.5.93-3.07,1.74-4.57,2.65a2.13,2.13,0,0,1-2.36,0c-1.88-1.11-3.82-2.11-5.66-3.27-1.17-.74-1.15-1.16,0-1.86,1.64-1,3.33-1.85,4.92-2.89a3.24,3.24,0,0,1,3.87,0,26.57,26.57,0,0,0,4.22,2.36,31.93,31.93,0,0,0-1-4.15c-.61-2.52-1.3-5-2-7.52-.34-1.25-.48-1.35-1.58-.63a2.54,2.54,0,0,1-3.08,0c-1.65-1-3.38-1.93-5-3-1.26-.79-1.27-1.33,0-2.11,1.81-1.12,3.7-2.12,5.53-3.21a2.1,2.1,0,0,1,1.75-.22,20.59,20.59,0,0,0-.66-2.63c-.92-3.64-1.91-7.26-2.92-10.88A5.36,5.36,0,0,1,152.58,308.84Z" transform="translate(5.7 -25.84)"/><path class="cls-2" d="M295.64,202.2c-.78-3.24-1.14-6.55-1.65-9.83-.94-6,.42-11.89,1.48-17.74a69.08,69.08,0,0,1,3.43-12.54c1.38.32,2.63-.32,3.9-.6,11-2.38,21.9-4.86,32.86-7.28,8.74-1.94,17.49-3.84,26.23-5.79,8.07-1.8,16.12-3.65,24.18-5.45q17.71-3.94,35.43-7.85,15.35-3.41,30.68-6.85c.46-.1,1.06-.28,1.32,0s-.25.81-.48,1.16q-5.77,8.75-11.61,17.45c-4.45,6.65-8.93,13.28-13.37,19.94-4,6-7.91,12-11.88,17.92q-14.25,21.39-28.52,42.76a47.6,47.6,0,0,1-3.46,5c-.48-.66.07-1.12.31-1.64a7.59,7.59,0,0,0,.88-1.71c-2.55.95-4.95,2-7.34,3.06-5.62,2.51-11.3,4.91-16.9,7.49-4.37,2-8.78,3.95-13.19,5.87s-8.5,3.9-12.8,5.74q-7.54,3.23-15,6.62c-3.7,1.69-7.49,3.21-11.19,4.89s-7.78,3.25-11.52,5.2a19.91,19.91,0,0,1-2.94,1.24c-1.23.4-1.57.14-1.41-1.1a1.58,1.58,0,0,0-.19-1.19c-.48-3.09-.62-6.21-1.07-9.31s-1.37-6.18-1.86-9.31a12.86,12.86,0,0,1-.36-4.24,7,7,0,0,1,2.42-2c9.72-6.82,19.36-13.75,29.07-20.57Q333.26,213,345.4,204.4q16.83-12,33.71-23.88c8.43-6,16.89-11.93,25.33-17.91,8.66-6.12,17.36-12.18,26-18.28,2-1.4,4-2.78,6-4.22h0c.67-.46,1.34-.9,2-1.39,4-3.27,8.51-5.91,12.55-9.19l-12.31,5.81a12,12,0,0,0-3.32,1.59l-1,.41a29.07,29.07,0,0,0-4.53,2.1c-7.64,3.64-15.28,7.3-22.94,10.92q-14.32,6.78-28.68,13.47c-4.92,2.29-9.82,4.61-14.73,6.91Q350.46,176.9,337.37,183q-7.87,3.69-15.72,7.41c-8,3.78-16,7.49-24,11.29A2.63,2.63,0,0,1,295.64,202.2Z" transform="translate(5.7 -25.84)"/><path class="cls-3" d="M152.58,308.84c1.42,5.27,2.83,10.55,4.34,16.17a2.16,2.16,0,0,0-2.77.09c-1.7,1-3.42,2-5.17,3-1.08.57-.75.88.05,1.33,1.85,1.05,3.72,2.08,5.52,3.22a1.77,1.77,0,0,0,2.13-.05c1.86-1.15,1.88-1.13,2.44.94q1.55,5.76,3.07,11.52c0,.17.05.35.11.69a12.9,12.9,0,0,1-3.21-1.63c-4.53-2.51-2.7-2.48-7.2,0-1.29.72-2.56,1.47-4,2.29,1.48,1.18,3.24,1.75,4.6,2.86,2.18,1.8,4.09,1.44,6.14-.16.94-.74,2.1-1.18,3.1-1.84.72-.47,1-.21,1.15.48.51,2,1,3.94,1.59,5.89.3,1.05-.68,1.15-1.31,1.83,2.6.59,2.45,2.85,3,4.67.82,2.84,1.48,5.72,2.29,8.56a1.2,1.2,0,0,1-.68,1.66c-1.28.66-2.5,1.43-3.74,2.13-.73.41-.7.76,0,1.16q3,1.69,6,3.46a1.23,1.23,0,0,0,1.41,0c2-1.17,4-2.33,6-3.47.83-.47.67-.76-.06-1.2a28.82,28.82,0,0,1-4.83-3c.42-1.16,1.5-1.69,2.35-2.43a19.13,19.13,0,0,1,3.51-2.82c1.64.17,2.86,1.26,4.21,2,4.28,2.41,2.67,2.28,7,0,.86-.46,1.66-1,2.51-1.48.58-.31.81-.65.1-1.07-1.81-1-3.58-2.13-5.4-3.12a1.6,1.6,0,0,0-1.7.14c-.92.54-1.85,1.05-2.77,1.58-.43.25-.85.59-1.41.32-.24-.75.36-1.1.78-1.46,4.79-4,9.48-8.16,14.25-12.2s9.73-8.42,14.66-12.56c1.38-1.16,2.69-2.4,4.1-3.54a1.56,1.56,0,0,1,1.22-.55,2,2,0,0,0,1.73.06c2-1.2,4.12-2.28,6.15-3.6-.56-.71-1.73-.73-1.82-1.81a8.72,8.72,0,0,1,2.95-2.65,35.11,35.11,0,0,1,6,3.2c10.8,6.31,21.65,12.53,32.49,18.79L294.3,364c1.33.77,1.43.75,2.31-.57l7.71-11.56a5.92,5.92,0,0,1,1.21-1.52c2.13-1.15,4.18-2.44,6.34-3.65-.69-.94-1.79-1-2.42-1.77a16.85,16.85,0,0,1,4.51-6.79,48.14,48.14,0,0,1,5.39,3,2,2,0,0,0,2.28,0c.63-.39,1.22-1.05,2.1-.68-2,3.52-4.45,6.76-6.64,10.17-.7,1.08-1.38,2.17-2.07,3.26a3.89,3.89,0,0,1-1.52,2.16c-1.12,1.59-2.23,3.19-3.34,4.78-.66.41-1.15-.07-1.66-.33a1.57,1.57,0,0,0-1.7-.09c-1.68,1.07-3.47,1.95-5.18,3-.84.51-.61.81.07,1.25,1,.69,2.17,1.24,3.21,1.94.34.23.92.32.78,1-1.44,2.65-3.27,5-4.91,7.56-2.52,3.88-5.08,7.74-7.63,11.61-.44,1.69-1.71,2.89-2.59,4.32a5.52,5.52,0,0,1-1.87,2.33c-1.48,2.14-3,4.28-4.45,6.43-2.19-1.29-4.37-2.6-6.61-3.81-.46-.25-.91-.5-1.43-.2-2.06,1.2-4.16,2.35-6.3,3.72,2.12,1.37,4.16,2.52,6.22,3.65a1.64,1.64,0,0,0,1.81-.23c1.62-1,3.26-1.94,4.93-2.84.42-.23.82-.69,1.38-.3q-3.93,6-7.84,11.91c-.38.58-.72,1.18-1.08,1.78.11.42-.19.6-.47.79-1.39.71-2.71,1.53-4.06,2.31-.85.49-1,.87,0,1.33a2.62,2.62,0,0,1,.88.64.34.34,0,0,1,0,.36,66.63,66.63,0,0,0-4.19,6.24.62.62,0,0,1-.36.14,22.71,22.71,0,0,1-4-2.19c-1.26-.79-2.38-1.06-3.63-.05a4.58,4.58,0,0,1-1.45.77.38.38,0,0,1-.34-.15c-2.44-1.76-5.14-3.07-7.72-4.6-4.93-2.92-9.89-5.79-14.83-8.68,0-.79.7-.87,1.15-1.17,1.19-.82,1.19-.8-.08-1.57-1.42-.85-2.88-1.64-4.29-2.52a2.11,2.11,0,0,0-2.66,0,5.19,5.19,0,0,1-1.86.9.55.55,0,0,1-.36-.13l-7.2-4.2a.33.33,0,0,1-.08-.24c0-.09,0-.13,0-.13.49-.84,1.52-1,2.18-1.68-.17-.58-.72-.7-1.14-.91-1.58-.79-3-1.8-4.58-2.61a1.75,1.75,0,0,0-1.82-.11c-2,1.12-4,2.28-6.12,3.48,1.14.87,2.37,1.38,3.44,2.14a.22.22,0,0,1,0,.33,66.89,66.89,0,0,0-6.06,5.09.78.78,0,0,1-.35.18A16.94,16.94,0,0,1,201.1,405a2,2,0,0,0-2.31,0c-1.93,1.2-3.9,2.32-5.87,3.43,2.14,1.29,4.35,2.42,6.44,3.76a.33.33,0,0,1,0,.37q-6.06,5.16-12.13,10.32c-3.44,2.94-6.86,5.9-10.3,8.85-1.35,1.16-1.36,1.15-1.79-.52-.29-1.11-.6-2.23-.89-3.34a.38.38,0,0,1,0-.37c.47-.5,1.19-.67,1.72-1.27-.79-.9-2-1.15-2.88-1.94a.4.4,0,0,1,0-.37c-.92-3.81-1.87-7.61-3-11.36a.32.32,0,0,1,0-.36,59.71,59.71,0,0,1,5.2-3.13c.75-.46.86-.73,0-1.18-1.74-1-3.47-1.92-5.15-3-.64-.4-1.38,0-2-.44-1.19-3.85-2.19-7.74-3.08-11.67,1.19-.18,1.94.73,2.83,1.22a2.36,2.36,0,0,0,2.69,0c1.51-.89,3-1.79,4.57-2.63.78-.42,1-.79.1-1.31-1.7-.95-3.39-1.91-5.05-2.92a1.81,1.81,0,0,0-1.84,0c-1.43.67-2.68,1.66-4.1,2.34a.37.37,0,0,1-.33-.18,42.14,42.14,0,0,0-1.49-6.18c-1.28-5.12-2.67-10.2-4-15.3a8,8,0,0,0-.3-.76.32.32,0,0,1,0-.36,27.68,27.68,0,0,1,3.29-2c.62-.35.92-.68.11-1.13-1.84-1.05-3.68-2.11-5.53-3.15a1.43,1.43,0,0,0-1.55.17,30.63,30.63,0,0,1-2.91,1.61.34.34,0,0,1-.34-.13,65.18,65.18,0,0,0-7.53-4.4.22.22,0,0,1-.09-.22c0-.09,0-.13,0-.13,1.07-.79,2.36-1.24,3.48-2.08-1.86-1-3.68-2.09-5.48-3.18a2.51,2.51,0,0,0-2.95,0,8.42,8.42,0,0,1-2.44,1.3.43.43,0,0,1-.35-.13c-2-1.44-4.19-2.46-6.26-3.75l-1-.67c.15-1.08,1.19-1.15,1.88-1.6,1.09-.71,1.12-.87,0-1.52-1.53-.86-3.08-1.69-4.55-2.64a1.91,1.91,0,0,0-2.19,0,13.71,13.71,0,0,1-2.82,1.46.41.41,0,0,1-.35-.13c-4.83-2.82-9.65-5.65-14.49-8.45-2.76-1.6-5.43-3.35-8.32-4.7a.3.3,0,0,1,0-.36,16.92,16.92,0,0,1,2.48-1.51c.54-.3.67-.6.07-1-1.85-1.23-3.84-2.22-5.78-3.32-.46-.26-.88,0-1.3.2a15,15,0,0,1-3,1.52.52.52,0,0,1-.36-.14l-4.38-2.59c2.21-.5,4.1-.9,6-1.36,3.53-.86,7.14-1.41,10.63-2.47a.38.38,0,0,1,.35-.13c2,.92,3.81,2.07,5.67,3.17a2.27,2.27,0,0,0,2.69,0c1.41-1,3-1.7,4.42-2.58,1.1-.65,1.09-.81,0-1.43a7.26,7.26,0,0,1-1.73-1.13.41.41,0,0,1,0-.37l10.88-2.34a1.52,1.52,0,0,1,1.69-.48c3.26-.68,6.52-1.32,9.77-2,5.23-1.17,10.45-2.39,15.68-3.61A5.48,5.48,0,0,0,152.58,308.84Z" transform="translate(5.7 -25.84)"/><path class="cls-4" d="M305.69,350.56c-3,4.54-6.11,9.06-9.09,13.64-.6.93-1.07,1-2,.47q-11.88-6.92-23.8-13.76l-24.64-14.23q-10.64-6.15-21.29-12.27a1.85,1.85,0,0,1-1.43-.4c-8.26-4.79-16.52-9.59-24.81-14.33-.35-.2-.78-.35-.8-.86,4.42-3.21,8.9-6.34,13.36-9.49l28.37-20.06c5.33-3.77,10.63-7.59,16-11.3a29.46,29.46,0,0,1,2.83-2c.31-.17.58-.5,1-.3,1.13,3.75,3.19,7.13,4.46,10.83.32,1.08-.57.86-1.07.92a53.65,53.65,0,0,0-15.29,4,31.27,31.27,0,0,0-11.42,7.94,14,14,0,0,0,.37,19.5c5.47,5.78,12.4,8.64,19.92,10.38a62.47,62.47,0,0,0,12.12,1.49,59.27,59.27,0,0,0,23.95-3.9,35.66,35.66,0,0,0,10.12-6A16.78,16.78,0,0,0,308,303a13.21,13.21,0,0,0-1.36-11.23c-3.05-5-7.73-7.89-12.83-10.29-.58-.28-1.22-.47-1.55-1.1,0-4.46.67-8.89.59-13.36.33.27.92.43.48,1-.23.33-.35.71,0,1s.73,0,1-.11c3.38-1.49,6.71-3.08,10.13-4.46,1.83-.74,3.49-1.82,5.4-2.42,2.19-.69,4.2-1.86,6.33-2.76,4.92-2.06,9.74-4.36,14.63-6.49s9.65-4.43,14.5-6.54c4.63-2,9.25-4.08,13.89-6.07,3.92-1.66,7.75-3.6,11.66-5.26,4.29-1.82,8.45-3.94,12.85-5.52a.28.28,0,0,1,.13,0c.74-.07,1.4-1.37,2-.56.53.66-.71,1.21-.94,2-.18.59-.81,1-.79,1.73l-11.66,17.6c-.64,1-1.22,2-1.91,2.9-.46.63-.3.93.32,1.28,1.59.87,3.13,1.82,4.71,2.7.81.44.78.72,0,1.17a19.33,19.33,0,0,0-3.42,2.09c-.22.49-.69.58-1.14.67a15.53,15.53,0,0,1-2.3.51c-2.88.13-4.6,1.69-6.08,4.08-3.19,5.14-6.69,10.09-10,15.15-1.52,2.15-2.94,4.37-4.41,6.57-4.48,6.73-9,13.43-13.44,20.18-1.24,1.77-2.42,3.58-3.6,5.38q-7.49,11.19-15,22.4c-.2.31-.36.64-.56,1-.61.68-.9,1.64-1.79,2.08a78,78,0,0,0-4.37,6.57A17.48,17.48,0,0,1,305.69,350.56Z" transform="translate(5.7 -25.84)"/><path class="cls-5" d="M253.28,172.4c0,7.23.24,14.46,0,21.67-.19,5-.74,10-1.16,15.06a30.57,30.57,0,0,1-1.34,5.37c-1,3.51-1.95,7-2.92,10.53-.73-.34-1.2.24-1.75.5L215.67,239.8q-28.15,13.2-56.32,26.43-9.1,4.27-18.2,8.61a2,2,0,0,1-2.27-.09c-1.12-.8-2.35-1.45-3.54-2.16.67-1,1.43-.56,2.16-.11,2.24,1.37,2,1.3,2.86-1.13a56.5,56.5,0,0,1,3-7,31.39,31.39,0,0,0,1.12-3c1.64-4.17,3.79-8.12,5-12.45a4,4,0,0,1,2.74-2.67c1.69-.28,3.39-.48,5.08-.76a47.69,47.69,0,0,0,18.45-6.58c3.8-2.45,7-5.46,8.74-9.79a12.87,12.87,0,0,0-1.1-11.85c-2.53-4.25-6.35-7-10.67-9.25a46.09,46.09,0,0,1-4.82-2.41,2,2,0,0,1,0-1.87c1.28-3,2.05-6.25,3.61-9.15a3.25,3.25,0,0,0,.33-.77c.13-.61.68-1.27.18-1.84s-1.11,0-1.69.07-1.51.54-1.33-.77c4.8-1.1,9.61-2.21,14.42-3.3,7.34-1.66,14.68-3.33,22-4.95,9.51-2.1,19-4.14,28.55-6.23,6.22-1.37,12.44-2.77,18.66-4.16A3.85,3.85,0,0,0,253.28,172.4Z" transform="translate(5.7 -25.84)"/><path class="cls-1" d="M141.44,54.45a5.71,5.71,0,0,1,3.94,1.32,22.17,22.17,0,0,1,5.17,9.39c.84,3.37,1.62,6.76,2.37,10.15.64,2.9,1.22,5.81,2,8.67a53.59,53.59,0,0,1,1.41,11.83c.23,5.18.61,10.34,1,15.51.48,6.46,1.67,12.86,1.79,19.36a2.43,2.43,0,0,0,1.21,2.19c.81.53,1.69.94,2.52,1.44-.55.68.2.75.5.95q3.1,2.06,6.24,4.07c.71.45,1.26.94,1.06,1.87a1.91,1.91,0,0,1-.41,1.3c-1.25,2.1-2.51,4.2-3.7,6.35a2.7,2.7,0,0,1-.94,1,.66.66,0,0,1-.2.06c-4-2.15-7.87-4.53-11.79-6.81q-8.54-5-16.88-10.24a57.93,57.93,0,0,1-6.71-5.18c-2.63-2.26-5.12-4.7-7.6-7.12-3.77-3.7-7.36-7.57-10.88-11.51-2.6-2.89-5-6-7.4-9-4.59-7.59-4.12-15.15.26-22.61A82.61,82.61,0,0,1,111,68a24.11,24.11,0,0,0,3.94-7.88,5.83,5.83,0,0,1,1.79-2.69c-.13,1-.25,1.78-.32,2.56a3.87,3.87,0,0,0,1.27,3.25c2.42,2.3,4.87,4.58,7.3,6.86a6,6,0,0,1,1.43,1,70.38,70.38,0,0,1,13.4,17.47c1.18,2,2.33,4,3.67,5.81,1.27,2.18,2.43,4.43,3.69,6.62a20.41,20.41,0,0,0,1.24,2.06c.12-2.09.5-3.93.42-5.81,0-.36-.15-.74.17-1,1,0,.43-.72.46-1.06a31,31,0,0,0-3.14-17.21c-2.41-4.72-4.51-9.61-7.6-14,1-1.63.87-3.39.7-5.19a4.61,4.61,0,0,1,.69-3.16A2.17,2.17,0,0,1,141.44,54.45Z" transform="translate(5.7 -25.84)"/><path class="cls-6" d="M152.3,246.46c-.05.13-.09.36-.15.37-2,.26-2.22,2-2.71,3.41a65.48,65.48,0,0,1-3.32,8,25.31,25.31,0,0,0-1.7,4.64c-.48,1.73-1.7,3.23-2.16,5s-1.75,3-1.83,4.85c-.05,1.36-.85,1.52-2.06.8-.93-.54-1.66-1.79-3-1l-24.56-14.12-42.6-24.58L42.8,219.24l79.46-17.6a.44.44,0,0,1,.49.38c.21,1.58.77,3.12.56,4.75-.31.71-1,.93-1.6,1.26-3.77,2.08-7.26,4.49-9.83,8-4.22,5.83-3.57,13.07,1.4,18.28,5.71,6,12.94,8.81,20.75,10.56a72.8,72.8,0,0,0,13.25,1.43,15.11,15.11,0,0,0,2.77-.18C150.81,246.05,151.62,245.84,152.3,246.46Z" transform="translate(5.7 -25.84)"/><path class="cls-7" d="M123.06,206.92q-.41-2.64-.8-5.28c-.2-1.88-.31-3.77-.59-5.63-.6-4,.33-7.81.66-11.7.15-1.74.33-3.49.5-5.23a41.18,41.18,0,0,0,0-6.38c-.75-4.55-1.55-9.09-2.55-13.59a13,13,0,0,1-.57-3.09c-.1-.23,0-.37.22-.33.47.08.66.48.86.84.31.57.65,1.12,1,1.66,2.4,3.57,4.42,4.24,8.53,2.94a36.59,36.59,0,0,0,14.54-8.4c1.2-1.14,1.15-1.15-.27-2a72.62,72.62,0,0,1-10.73-8.32,137.27,137.27,0,0,1-13-13.85c-.62-.76-1.54-1.42-1.17-2.64a2.74,2.74,0,0,1,.08-1c1.17-2.42,0-4.1-1.52-5.93a194.22,194.22,0,0,1-13.06-16.91,4.93,4.93,0,0,1-1.06-2c.06-.4.22-.5.48-.14a154.29,154.29,0,0,0,14.9,17.1c5.15,5.31,10.32,10.62,16.4,14.83,4.81,3.34,9.94,6.23,15,9.24,4.51,2.7,9.09,5.31,13.64,7.95a2.14,2.14,0,0,1,.87.87c-2.14,3.27-2.14,3.27-5.54,1.58L159,151c-.68.22-1,.83-1.32,1.36a72.22,72.22,0,0,1-4.27,6c-2.38,2.93-3.75,6.37-5.07,9.83-2.17,5.67-4.34,11.33-6.28,17.08a25.87,25.87,0,0,0-1.1,6.12c-.41,5-.06,10-.5,15-.17,1.93.52,3.85.21,5.8-1.07.65-1.69-.27-2.46-.7a3.53,3.53,0,0,1-.79-1.61,50.85,50.85,0,0,1-1.66-9.57,12.15,12.15,0,0,1,.73-5,199.71,199.71,0,0,0,7.83-29.55A34.58,34.58,0,0,1,148.4,154a35,35,0,0,1,4.78-5.92c-.61-.44-1.29-.81-1.92-1.23s-1-.33-1.15.37c-2.29,8.31-8.63,12.76-15.7,16.53a52.63,52.63,0,0,1-6.6,2.94,1.75,1.75,0,0,0-1.3,1.73c-.3,5-1,10-1.48,15.07a74.72,74.72,0,0,0,1.21,23.77c1.12,5.13,2.42,10.2,3.85,15.24a2.27,2.27,0,0,1,.11,1.62c-.71.71-1.21.12-1.75-.27-1-.73-1.33-2-2.25-2.85-.76-4.1-2.43-8-3.08-12.11A3.68,3.68,0,0,1,123.06,206.92Z" transform="translate(5.7 -25.84)"/><path class="cls-1" d="M140.61,212.2a25.52,25.52,0,0,1-.51-7.83c.33-3.06,0-6.12.26-9.15s0-6.1,1-9.05c1.56-4.69,3.26-9.32,5-13.93,1-2.54,2-5.06,2.95-7.62,1.46-4.1,4.53-7.15,6.83-10.7.58-.9,1.19-1.77,1.79-2.65.27-.4.53-.86,1-.23.69,11.5-2.49,22.33-5.75,33.14a58.41,58.41,0,0,0-1.45,8.61,4.92,4.92,0,0,0-.28,2.15,2.18,2.18,0,0,1,.27,1.71c-.22,1.53-.38,3.07-.57,4.6-.31,1.38-.2,2.81-.48,4.2a7.7,7.7,0,0,1-4.82,7.17,6.51,6.51,0,0,1-4.08.4A1.68,1.68,0,0,1,140.61,212.2Z" transform="translate(5.7 -25.84)"/><path class="cls-1" d="M119.7,125.89c.38,1.84,1.89,2.9,3,4.22,2.29,2.71,4.63,5.39,7.12,7.93,2.29,2.34,4.74,4.53,7.23,6.66a51.54,51.54,0,0,0,8.77,6.25c1,.51.31,1-.06,1.41a30.78,30.78,0,0,1-5.68,4.62,38.2,38.2,0,0,1-10.57,4.79c-3.34,1-5.66,0-7.63-2.87-.54-.81-1-1.66-1.53-2.48-.14-.22-.13-.73-.63-.4a41.56,41.56,0,0,1-1.55-22.4C118.69,131.05,119,128.43,119.7,125.89Z" transform="translate(5.7 -25.84)"/><path class="cls-8" d="M258.66,107.25a4.68,4.68,0,0,1,.43-5.87c2.51-2.87,5.83-4.18,9.47-4.79a23.71,23.71,0,0,1,16.49,2.76c5,3,7.24,9.93,5,14.93a76.08,76.08,0,0,1-7.24,2.77,14,14,0,0,1-7.66.13,46.74,46.74,0,0,1-13-5.79c-.35-1.31-1.45-2-2.38-2.8C259.38,108.19,258.85,107.87,258.66,107.25Z" transform="translate(5.7 -25.84)"/><path class="cls-3" d="M352.39,280.65c2-3.39,4.27-6.55,6.42-9.82,1.56-2.39,3.25-4.71,4.72-7.16a4.5,4.5,0,0,1,3.42-2.22c1.76-.3,3.5-.75,5.25-1.14l5.94-1.23-9,13.47c-.4.27-.75,0-1-.2-1.07-.85-2-.55-3,.14-1.64,1.1-3.46,1.91-5.28,3.14,1.38.92,2.71,1.61,4,2.42.38.24,1,.28.9,1q-4.2,6.38-8.38,12.76c-1.4,2.13-2.78,4.27-4.17,6.4a.57.57,0,0,1-.35.14,2.38,2.38,0,0,0-1.33.29c-1.73,1-3.41,2-5.13,3-.91.52-.89.77,0,1.29a8.51,8.51,0,0,1,2.31,1.48.49.49,0,0,1,.07.37l-4.46,6.53c-1.64-.83-3.2-1.79-4.78-2.72-1.23-.72-2.41-1.44-3.9-1.23,1.66-3,3.7-5.71,5.57-8.55,2.58-3.93,5.21-7.82,7.82-11.72a3.6,3.6,0,0,1,2.26.9,1.81,1.81,0,0,0,2.17,0c1.84-1.21,3.83-2.18,5.83-3.51-1.51-.9-2.83-1.71-4.18-2.48C353.44,281.65,352.7,281.42,352.39,280.65Z" transform="translate(5.7 -25.84)"/><path class="cls-9" d="M113.05,46.05c-3.85-8,0-16.62,8.53-19.45A13.72,13.72,0,0,1,138.93,35a7.62,7.62,0,0,1,.5,3.81,2.48,2.48,0,0,1-1,1.76,15.22,15.22,0,0,1-8.38,3.67c-1,.09-2,.32-3,.31a1.44,1.44,0,0,0-1.66,1.31c0,.36,0,.9-.69.79-.48-.82-1.19-.67-1.94-.49A18,18,0,0,1,113.05,46.05Z" transform="translate(5.7 -25.84)"/><path class="cls-10" d="M162.85,134.31a4.2,4.2,0,0,1-4.16-3.61c-.08-4.06-.59-8.09-1.05-12.11-.38-3.3-.77-6.59-.93-9.91-.23-5-.76-9.93-.83-14.93-.08-5.86-1.87-11.43-3.09-17.1-.8-3.74-1.56-7.49-2.55-11.18a23.48,23.48,0,0,0-4.59-8.95c-.16-.2-.67-.32-.27-.75,3.31,2.62,4.81,6.38,6.38,10.11,3.67,8.72,6.19,17.86,9.65,26.66,1,2.61,1.21,5.41,1.67,8.14q2.25,13.35,4.35,26.73c.23,1.4,1.09,3.2.31,4.17A9.37,9.37,0,0,1,162.85,134.31Z" transform="translate(5.7 -25.84)"/><path class="cls-11" d="M124.77,46.66c.62-2.31.62-2.33,3.17-2.56,3.49-.32,6.81-1.08,9.63-3.33a7.7,7.7,0,0,0,1.86-2,13.77,13.77,0,0,0,1.15,3.1,3.21,3.21,0,0,1,.2,2.57,7.92,7.92,0,0,0-.17,4.62c.53,1.76-.16,3.71.83,5.39-1.9,1.75-1.94,3.94-1.5,6.26a3.09,3.09,0,0,1-1.25,3.17,17.39,17.39,0,0,1-5.3,1.4C131,64.54,129,63.09,126.84,62a11.84,11.84,0,0,1-6.45-7.79c-.61,1.77-1.31,2.24-2.59,1.89a17.62,17.62,0,0,0-2.48-5.91c0-1.43.46-2.23,1.56-2.63a3.31,3.31,0,0,1,3.57,1.23,9,9,0,0,1,1,2c.18.44.42.85,1,.87s.78-.42,1-.84a9.55,9.55,0,0,0,1-2.89C124.38,47.48,124.33,47,124.77,46.66Z" transform="translate(5.7 -25.84)"/><path class="cls-11" d="M171.76,141.26a5,5,0,0,0,1.37-.16,9.46,9.46,0,0,1,7.56.2c2.09.87,4.32.89,6.48,1.32,1.52.3,2.5,1.26,2.32,2.11-.27,1.29-1.56,2-3.16,1.75-.82-.14-1.62-.34-2.43-.53-.66-.15-1.33-.57-1.83.31a1.88,1.88,0,0,0,.18,2.21c.69.92,1.4,1.83,2.14,2.72A42.71,42.71,0,0,0,192.8,159c1.23.86,2.57,1.72,2.41,3.59,0,.3.33.64.51,1s.42.88.09,1.3a1,1,0,0,1-1.4.18c-1-.67-1.19.05-1.45.73a4.8,4.8,0,0,0-2.89-2.36,64.68,64.68,0,0,1-13.57-7.51,5.57,5.57,0,0,1-1.7-1.61c-1.17-2-3.08-3.16-5-4.29-1.47-.86-1.62-1.18-1-2.79C169.69,145.16,170.32,143,171.76,141.26Z" transform="translate(5.7 -25.84)"/><path class="cls-12" d="M262.26,111.19a78.61,78.61,0,0,0,10.91,5c4.32,1.66,8.47,1.15,12.61-.53,1.19-.48,2.34-1.07,3.52-1.6.3-.14.69-.49.79.2-1.15,4.06-2,8.19-3.43,12.19a2.14,2.14,0,0,1-.63,1.36,12.11,12.11,0,0,1-6.56,2.79,2.13,2.13,0,0,1-2-1.29,15.27,15.27,0,0,1-1.62-3.68,4.13,4.13,0,0,0-3-3.18,5.06,5.06,0,0,1-1.12-.55,6.55,6.55,0,0,0-1.22-.66c-1.16-.39-1.74-.06-2,1.14-.07.32-.08.65-.16,1a1.57,1.57,0,0,1-1.5,1.39,1.8,1.8,0,0,1-1.81-1.26A1,1,0,0,1,265,123c.33-2.43-1-4.22-2.23-6.09A6,6,0,0,1,262.26,111.19Z" transform="translate(5.7 -25.84)"/><path class="cls-3" d="M315.42,336.05q5-7.56,10-15.1c1.83-2.77,3.71-5.5,5.56-8.25,1.34.07,2.29,1,3.33,1.61a2.51,2.51,0,0,0,3.07,0c1.23-.82,2.54-1.53,3.83-2.26.54-.3,1.06-.8,1.79-.5-2.42,4.1-5.25,7.93-7.82,11.93-.3.47-.58,1-.87,1.42a16.39,16.39,0,0,1-3.64,5.51c-1.5,2-2.86,4.08-4.17,6.21a.69.69,0,0,1-.37.13,24,24,0,0,1-4.36-2.4,2.06,2.06,0,0,0-2.44-.06,26.62,26.62,0,0,1-2.65,1.51C316.28,336,315.91,336.46,315.42,336.05Z" transform="translate(5.7 -25.84)"/><path class="cls-6" d="M150.87,201.33q.31-3.2.65-6.39a59.54,59.54,0,0,0,7.72-1.53c3.26-.65,6.5-1.4,9.75-2.1.26.92.88.65,1.41.37a2.18,2.18,0,0,1,1.17-.34c.88,0,1.42.26,1,1.35s-.85,2-1.28,3c-1.2,2.82-2.18,5.74-3.28,8.6-.18.46.13.8.1,1.21a1.28,1.28,0,0,1-1.31,0,66.49,66.49,0,0,0-14.9-3C151.19,202.51,150.5,202.36,150.87,201.33Z" transform="translate(5.7 -25.84)"/><path class="cls-11" d="M262.26,111.19c-.34,2.55-.07,4.93,1.75,7a6.06,6.06,0,0,1,1.37,4.79c-.09,1,.54,1.46,1.43,1.5s1.16-.59,1.26-1.36-.16-2,1-2.38a2.75,2.75,0,0,1,3,1,4.11,4.11,0,0,1-.39,4.31,1.46,1.46,0,0,0,0,2c1.36,1.91,1.27,3-.42,4.59a7.76,7.76,0,0,1-7.14,2,6.16,6.16,0,0,0-1-.13A1.73,1.73,0,0,1,262,133.1c-.29-2.44-1.48-4.66-1.75-7.1-.15-1.39-.44-2.55-1.94-3.15a1.36,1.36,0,0,1-.61-1.91,7.7,7.7,0,0,0,.05-6c-.78-2,.11-4.17.6-6.23l.36-1.48c.89.7,1.76,1.43,2.67,2.1A2,2,0,0,1,262.26,111.19Z" transform="translate(5.7 -25.84)"/><path class="cls-11" d="M225.5,148.77l.05,2.13c.15,1.1.22,2.2.33,3.29.18,1.69-.25,2.31-1.91,2.88a28.27,28.27,0,0,1-4.71,1.11c-3.23.5-6.41,1.27-9.61,2-.26,0-.58-.21-.79-.12-1.57.7-2.66-.63-4-1-.8-.21-.62-1,0-1.53a1.15,1.15,0,0,0,.36-1.61c-.37-.87.38-1.4,1.05-1.89a46,46,0,0,1,8.34-5.09,5.91,5.91,0,0,0-2.38-1.35,4.92,4.92,0,0,1-2.62-1.49,1,1,0,0,1-.09-1.27c.3-.46.65-.29,1.09-.18A91.48,91.48,0,0,1,222,148.31,8.25,8.25,0,0,0,225.5,148.77Z" transform="translate(5.7 -25.84)"/><path class="cls-10" d="M149,96.11c.65,2.58-.25,5.06-.46,7.64a76.31,76.31,0,0,1-4.8-8.47c-.14-.3-.21-.61-.52-.77-3.07-6.18-5.35-12.68-8.08-19a9.91,9.91,0,0,0-3-3.51c-.52-.45-1.15-.79-1.42-1.48A5.93,5.93,0,0,1,135.4,67c.41,0,.74,0,.81.52a5.18,5.18,0,0,1,.14.53c.33,3.44,2.08,6.2,4,9A58.89,58.89,0,0,1,148,92.66C148.31,93.8,148.63,95,149,96.11Z" transform="translate(5.7 -25.84)"/><path class="cls-13" d="M263.13,134.51c1.29-.22,2.57.11,3.89-.18a7.65,7.65,0,0,0,4.38-2.39c1.14-1.36,1.2-2.16.08-3.54-.73-.9-1.33-1.53-.1-2.67,1.07-1,.53-2.62.61-4,2.24.57,3.9,1.7,4.36,4.19a10,10,0,0,0,1.09,2.53c.92,1.84,1.31,2.14,3.22,1.6,2.3-.64,4.6-1.41,6-3.6,0,.11,0,.22.07.32l0,.54c.87,2.19-.12,4-1.35,5.61s-3,2.27-4.79,2.91a64.19,64.19,0,0,1-8.55,2.31,2.81,2.81,0,0,1-1.72,0l0,0a4.33,4.33,0,0,0-3.74-2.8A10.24,10.24,0,0,1,263.13,134.51Z" transform="translate(5.7 -25.84)"/><path class="cls-14" d="M171.76,141.26c-.87,2-1.71,4.07-2.62,6.08-.5,1.11-.41,1.74.82,2.38a12.41,12.41,0,0,1,5,4.19c1.24,1.92,3.4,3,5.33,4.11a65.12,65.12,0,0,0,10.74,5.42c1,.38,2.12.85,1.89,2.32a.6.6,0,0,1-.63.18c-3.05-1-6.15-1.68-9-3.44a70.1,70.1,0,0,1-11.66-9.26,17.2,17.2,0,0,0-6.11-3.4l5.05-8.64Z" transform="translate(5.7 -25.84)"/><path class="cls-13" d="M117.8,56.09c1.51.13,1.94-1.15,2.73-2.2.38.89.72,1.68,1,2.47,1.21,2.93,3.79,4.36,6.35,5.84a45.9,45.9,0,0,1,5.47,3.08c-1.26,2.18-1.44,2.19-4,1.71a17.42,17.42,0,0,1-10.84-6.82C117.57,58.86,117.76,57.5,117.8,56.09Z" transform="translate(5.7 -25.84)"/><path class="cls-15" d="M330.55,381.72l7.14-4.17a1,1,0,0,1,1.16,0l7.06,4.12a51.28,51.28,0,0,0-5.08,3c-1.87,1.42-3.45,1.29-5.28-.06A56,56,0,0,0,330.55,381.72Z" transform="translate(5.7 -25.84)"/><path class="cls-16" d="M253.66,443.79l7-4.11a.87.87,0,0,1,1,0c2.32,1.34,4.66,2.64,7.26,4.11a41,41,0,0,0-4.9,3c-2.14,1.71-4,1.22-5.9-.24a18.93,18.93,0,0,0-2.26-1.34A9.51,9.51,0,0,1,253.66,443.79Z" transform="translate(5.7 -25.84)"/><path class="cls-15" d="M330.32,434.9l7.47-4.27c.36-.21.62,0,.89.18,2,1.17,4.07,2.37,6.12,3.52.82.46.74.74,0,1.17-2,1.12-4,2.29-6,3.46a1.08,1.08,0,0,1-1.26.11C335.2,437.71,332.88,436.38,330.32,434.9Z" transform="translate(5.7 -25.84)"/><path class="cls-15" d="M451.1,302.13l-7.26,4.22c-.46.27-.79,0-1.15-.16l-6.14-3.52c-.56-.32-.84-.58-.07-1,2.14-1.21,4.25-2.45,6.37-3.69a1,1,0,0,1,1.15,0C446.26,299.35,448.55,300.66,451.1,302.13Z" transform="translate(5.7 -25.84)"/><path class="cls-16" d="M132.38,382c-2.56,1.49-4.89,2.8-7.17,4.17A1.06,1.06,0,0,1,124,386c-2-1.17-4.06-2.36-6.11-3.5-.8-.44-.65-.75,0-1.13,2-1.14,4-2.27,6-3.44a1.35,1.35,0,0,1,1.62,0C127.67,379.34,129.93,380.57,132.38,382Z" transform="translate(5.7 -25.84)"/><path class="cls-15" d="M405.09,293.33c-2.53,1.46-4.86,2.78-7.17,4.14a1.14,1.14,0,0,1-1.29-.11l-6.87-3.95c1.28-1.07,2.83-1.53,4-2.51,2.55-2.14,4.89-1.88,7.37.1A32.09,32.09,0,0,0,405.09,293.33Z" transform="translate(5.7 -25.84)"/><path class="cls-15" d="M25,346.63c2.56-1.49,4.89-2.83,7.2-4.19a1,1,0,0,1,1.16.09c2,1.19,4.08,2.38,6.14,3.55.71.4.72.7,0,1.1-2.06,1.17-4.1,2.36-6.15,3.55a1,1,0,0,1-1.15.08C29.85,349.44,27.52,348.11,25,346.63Z" transform="translate(5.7 -25.84)"/><path class="cls-15" d="M466.28,346.44c-2.48,1.44-4.76,2.75-7,4.11a1.34,1.34,0,0,1-1.53-.12c-2.19-1.29-4.39-2.56-6.85-4A31.6,31.6,0,0,0,455.1,344c2.38-2,4.55-1.95,6.94,0A35.18,35.18,0,0,0,466.28,346.44Z" transform="translate(5.7 -25.84)"/><path class="cls-15" d="M109.71,271.17a5.92,5.92,0,0,1-.62-.3c-2.08-1.2-4.14-2.42-6.24-3.6-.87-.49-.5-.73.09-1.07q3.07-1.76,6.11-3.55a1.11,1.11,0,0,1,1.27,0q3,1.8,6.12,3.53c.72.41.92.68,0,1.16-2,1.11-4,2.3-6,3.46C110.24,270.92,110,271,109.71,271.17Z" transform="translate(5.7 -25.84)"/><path class="cls-15" d="M146.26,408.55c-2.53,1.46-4.88,2.8-7.22,4.16a1,1,0,0,1-1.16-.08l-7-4.07a40.57,40.57,0,0,0,4.45-2.66c2.24-1.73,4.26-1.82,6.51,0A34.85,34.85,0,0,0,146.26,408.55Z" transform="translate(5.7 -25.84)"/><path class="cls-15" d="M343.42,337.71c2.58-1.5,4.94-2.85,7.28-4.22a.87.87,0,0,1,1,.07c2.07,1.21,4.14,2.43,6.24,3.6.83.46.58.75,0,1.1l-6.12,3.54a.94.94,0,0,1-1,.12Z" transform="translate(5.7 -25.84)"/><path class="cls-15" d="M299.84,381.76l7.18-4.19a.94.94,0,0,1,1,0l7.16,4.16L307.93,386a.82.82,0,0,1-.9,0Z" transform="translate(5.7 -25.84)"/><path class="cls-15" d="M420.26,337.64,413,341.82a.93.93,0,0,1-.94,0l-7.23-4.17c2-1.15,3.84-2.07,5.52-3.24a3.28,3.28,0,0,1,4.32-.06C416.37,335.54,418.25,336.47,420.26,337.64Z" transform="translate(5.7 -25.84)"/><path class="cls-15" d="M132.68,293.33l-7.19,4.17a1,1,0,0,1-1,0c-2.31-1.35-4.63-2.68-7.2-4.17l7.28-4.2a1,1,0,0,1,1,.09Z" transform="translate(5.7 -25.84)"/><path class="cls-15" d="M389.41,373.13l-7.27,4.24a.84.84,0,0,1-.91-.06l-7-4.07a6.54,6.54,0,0,1,2.07-1.4q.76-.48,1.56-.9c1.34-.72,2.58-2.16,4-2s2.67,1.35,4,2.11C386.92,371.66,388,372.32,389.41,373.13Z" transform="translate(5.7 -25.84)"/><path class="cls-15" d="M86.33,373.17c-2.47,1.42-4.75,2.73-7,4.06a1,1,0,0,1-1.15.12c-2.35-1.37-4.7-2.71-7.24-4.18L78.16,369a.94.94,0,0,1,1,0Z" transform="translate(5.7 -25.84)"/><path class="cls-15" d="M299.79,408.37l-7.38,4.25a.71.71,0,0,1-.78-.07l-7.26-4.18,7.24-4.19a.78.78,0,0,1,.9,0C294.85,405.51,297.2,406.87,299.79,408.37Z" transform="translate(5.7 -25.84)"/><path class="cls-16" d="M237.89,461.69a4.06,4.06,0,0,1-.47.37c-2.11,1.23-4.23,2.45-6.33,3.7a1.16,1.16,0,0,1-1.29-.07l-6.1-3.54c-.64-.37-.8-.65,0-1.09,2.07-1.12,4.1-2.3,6.13-3.49.42-.24.69-.4,1.22-.09,2.09,1.27,4.23,2.45,6.34,3.67C237.59,461.26,237.85,461.3,237.89,461.69Z" transform="translate(5.7 -25.84)"/><path class="cls-15" d="M481.8,302.1l-7.19,4.18a.92.92,0,0,1-1,0c-2.31-1.35-4.63-2.68-7.19-4.16l7.41-4.29a.73.73,0,0,1,.79.1Z" transform="translate(5.7 -25.84)"/><path class="cls-15" d="M389.77,257.88l7.11-4.13a.9.9,0,0,1,1-.09c2.34,1.37,4.7,2.72,7.28,4.21l-7.33,4.25a.82.82,0,0,1-.9-.09Z" transform="translate(5.7 -25.84)"/><path class="cls-15" d="M314.76,452.8c-2.31,1.33-4.59,2.64-6.86,4a1.1,1.1,0,0,1-1.27,0c-2-1.18-4-2.34-6-3.47-.75-.42-1-.71-.07-1.24,2-1.12,4-2.3,6-3.46a1.11,1.11,0,0,1,1.28-.1c2.23,1.32,4.47,2.61,6.7,3.92C314.65,452.48,314.68,452.65,314.76,452.8Z" transform="translate(5.7 -25.84)"/><path class="cls-15" d="M466.18,355.29c2.59-1.49,4.95-2.83,7.29-4.2.46-.26.79,0,1.15.15,2,1.15,4,2.32,6,3.45.76.42.84.73,0,1.19-2.06,1.14-4.1,2.33-6.12,3.54a1.08,1.08,0,0,1-1.26,0C471,358.06,468.72,356.75,466.18,355.29Z" transform="translate(5.7 -25.84)"/><path class="cls-15" d="M126.13,314.92a4.75,4.75,0,0,1-1.69.48,71.39,71.39,0,0,0-6.17-3.7c-.79-.47-1-.74-.06-1.25,2-1.13,4-2.31,6-3.47.32-.18.62-.39,1-.16l7.32,4.2Z" transform="translate(5.7 -25.84)"/><path class="cls-15" d="M9.67,320.05l7.2-4.13A1,1,0,0,1,18,316l7.1,4.07a59.25,59.25,0,0,0-5.36,3.15,3.59,3.59,0,0,1-4.82-.06A59.61,59.61,0,0,0,9.67,320.05Z" transform="translate(5.7 -25.84)"/><path class="cls-15" d="M374,390.85c2.58-1.49,4.93-2.83,7.27-4.2.45-.26.8,0,1.16.15,2,1.18,4.07,2.36,6.12,3.53.73.42.66.68-.05,1.08-2.06,1.14-4.1,2.32-6.12,3.52a1.06,1.06,0,0,1-1.26.06C378.82,393.64,376.53,392.34,374,390.85Z" transform="translate(5.7 -25.84)"/><path class="cls-15" d="M466.41,311c-2.54,1.47-4.83,2.77-7.09,4.11a1,1,0,0,1-1.14.05c-2.11-1.25-4.23-2.49-6.36-3.69-.76-.43-.53-.68.05-1q3.08-1.75,6.13-3.53a1.11,1.11,0,0,1,1.28-.1C461.57,308.2,463.88,309.53,466.41,311Z" transform="translate(5.7 -25.84)"/><path class="cls-15" d="M389.61,320l-7.28,4.22a.84.84,0,0,1-.91-.06l-7.2-4.16c2-1.17,3.88-2.11,5.59-3.31a3.2,3.2,0,0,1,4.19,0C385.7,317.8,387.56,318.75,389.61,320Z" transform="translate(5.7 -25.84)"/><path class="cls-15" d="M55.82,320c-2.55,1.47-4.87,2.79-7.18,4.14a1,1,0,0,1-1.16,0c-2-1.19-4.06-2.38-6.11-3.54-.78-.44-.81-.72,0-1.17,2-1.11,4-2.27,6-3.44.42-.24.76-.43,1.25-.14C50.94,317.2,53.26,318.53,55.82,320Z" transform="translate(5.7 -25.84)"/><path class="cls-17" d="M124.66,368.61c-1.23-.67-2.45-1.33-3.66-2-1-.57-2-1.21-3-1.75-.68-.35-.89-.68-.13-1.12,2.15-1.26,4.32-2.49,6.47-3.76.35-.21.57-.1.87.08,2.07,1.21,4.16,2.38,6.23,3.61.35.21,1.16.51.26,1-2.11,1.24-4.25,2.43-6.39,3.63A5.24,5.24,0,0,1,124.66,368.61Z" transform="translate(5.7 -25.84)"/><path class="cls-15" d="M404.77,355.35l7.11-4.08a1.12,1.12,0,0,1,1.18,0l7.15,4.14-7.34,4.23a.82.82,0,0,1-.9-.07C409.63,358.15,407.28,356.8,404.77,355.35Z" transform="translate(5.7 -25.84)"/><path class="cls-15" d="M116.89,399.69c2.5-1.44,4.82-2.77,7.13-4.12a1,1,0,0,1,1.16,0l7.12,4.12L125,404a.77.77,0,0,1-.79,0Z" transform="translate(5.7 -25.84)"/><path class="cls-15" d="M420.16,373.09c-2.5,1.44-4.75,2.71-7,4a1.27,1.27,0,0,1-1.51,0c-2-1.17-4-2.33-6-3.46-.69-.39-.8-.67-.05-1.1,2.05-1.17,4.08-2.36,6.12-3.54a1,1,0,0,1,1.16-.11C415.25,370.27,417.6,371.62,420.16,373.09Z" transform="translate(5.7 -25.84)"/><path class="cls-15" d="M207.57,417.33c2.53-1.47,4.85-2.79,7.14-4.16a1.11,1.11,0,0,1,1.27.1l6,3.45c.71.4.87.72,0,1.18-2.06,1.15-4.09,2.34-6.12,3.53a1.1,1.1,0,0,1-1.27,0C212.38,420.08,210.09,418.78,207.57,417.33Z" transform="translate(5.7 -25.84)"/><path class="cls-15" d="M40.5,311.16l-7.25,4.21a1,1,0,0,1-1-.09l-7.12-4.12L32.19,307a1,1,0,0,1,1.05-.06Z" transform="translate(5.7 -25.84)"/><path class="cls-17" d="M253.47,461.58c2.56-1.47,4.88-2.78,7.17-4.14a1,1,0,0,1,1.14,0c2,1.17,4.07,2.36,6.11,3.52.76.44.73.79,0,1.21-2.05,1.17-4.07,2.36-6.12,3.52a.9.9,0,0,1-1,.1C258.42,464.42,256.06,463.08,253.47,461.58Z" transform="translate(5.7 -25.84)"/><path class="cls-17" d="M358.88,320l-7,4.11a1,1,0,0,1-1.16,0c-2.08-1.19-4.16-2.38-6.26-3.55-.75-.41-.68-.75,0-1.14l6.23-3.6a.84.84,0,0,1,.91-.05Z" transform="translate(5.7 -25.84)"/><path class="cls-15" d="M481.71,310.94c2.58-1.48,4.93-2.83,7.27-4.2a.9.9,0,0,1,1,.1l6.38,3.66c.65.37.49.62-.06.93-2.13,1.21-4.25,2.44-6.37,3.67-.27.16-.52.35-.88.14C486.69,313.83,484.31,312.45,481.71,310.94Z" transform="translate(5.7 -25.84)"/><path class="cls-15" d="M404.89,319.91c2.56-1.48,4.89-2.81,7.2-4.17a1,1,0,0,1,1.15.07c2,1.19,4.08,2.38,6.15,3.54.87.49.6.79-.08,1.17-2,1.12-3.95,2.25-5.9,3.41a1.32,1.32,0,0,1-1.53,0C409.65,322.62,407.39,321.35,404.89,319.91Z" transform="translate(5.7 -25.84)"/><path class="cls-16" d="M315.17,399.47c-2.52,1.46-4.87,2.82-7.2,4.19a1,1,0,0,1-1.17-.09l-7-4.09c2.13-1.24,4.15-2.31,6-3.56a2.4,2.4,0,0,1,3.08-.1C310.86,397.11,312.94,398.19,315.17,399.47Z" transform="translate(5.7 -25.84)"/><path class="cls-15" d="M435.49,355.32c2.57-1.47,4.92-2.83,7.28-4.17a1.13,1.13,0,0,1,1.18.16c2.05,1.18,4.09,2.37,6.15,3.52.7.4.59.66,0,1-2.05,1.16-4.09,2.35-6.14,3.52-.36.2-.69.44-1.15.17C440.42,358.16,438.07,356.81,435.49,355.32Z" transform="translate(5.7 -25.84)"/><path class="cls-15" d="M435.54,364.2c-2.59,1.49-4.94,2.84-7.28,4.21-.45.27-.8,0-1.15-.15-2.05-1.17-4.08-2.36-6.13-3.51-.81-.46-.59-.73.07-1.1,2.06-1.14,4.1-2.32,6.12-3.52a1,1,0,0,1,1.25,0C430.68,361.43,433,362.72,435.54,364.2Z" transform="translate(5.7 -25.84)"/><path class="cls-15" d="M86.4,355.43l-7.1,4.12a1.1,1.1,0,0,1-1.18,0L71,355.44l7.32-4.22a.84.84,0,0,1,.91.06Z" transform="translate(5.7 -25.84)"/><path class="cls-15" d="M176.78,435.09c2.51-1.45,4.84-2.78,7.14-4.14a1,1,0,0,1,1.16,0c2.3,1.35,4.62,2.68,7.15,4.15l-7.35,4.23a.82.82,0,0,1-.91-.1Z" transform="translate(5.7 -25.84)"/><path class="cls-15" d="M132.74,275.6c-2.6,1.51-5,2.88-7.37,4.27a.7.7,0,0,1-.77,0l-7.27-4.25c2.55-1.47,4.89-2.81,7.23-4.17a.83.83,0,0,1,.91,0Z" transform="translate(5.7 -25.84)"/><path class="cls-15" d="M330.46,426.05c-2.51,1.45-4.8,2.76-7.08,4.09a1.11,1.11,0,0,1-1.28,0c-2.27-1.33-4.56-2.64-7.09-4.1l7.34-4.23a.93.93,0,0,1,.93.1Z" transform="translate(5.7 -25.84)"/><path class="cls-15" d="M404.89,346.51l-7.1,4.11a.87.87,0,0,1-.91.14l-7.43-4.23,7.21-4.18a1,1,0,0,1,1,0C400,343.72,402.34,345,404.89,346.51Z" transform="translate(5.7 -25.84)"/><path class="cls-15" d="M222.91,426.17l7-4.09a1,1,0,0,1,1.16-.1c2.34,1.37,4.7,2.72,7.23,4.18L231,430.4a.71.71,0,0,1-.78,0Z" transform="translate(5.7 -25.84)"/><path class="cls-15" d="M366.59,324.41l.6.34c2,1.15,4,2.34,6,3.45.95.53.72.84-.05,1.27-2,1.11-3.95,2.22-5.88,3.4a1.24,1.24,0,0,1-1.5,0c-2-1.18-4-2.32-6-3.47-.47-.27-1-.54-.2-1,2.15-1.26,4.32-2.49,6.49-3.72C366.22,324.56,366.39,324.5,366.59,324.41Z" transform="translate(5.7 -25.84)"/><path class="cls-15" d="M343.15,346.71c-.11.08-.25.2-.4.29l-6.49,3.76a.89.89,0,0,1-1,0q-3.18-1.86-6.38-3.68c-.74-.42-.53-.68.06-1,2.06-1.17,4.1-2.35,6.13-3.56a1.25,1.25,0,0,1,1.42,0c2,1.19,4.09,2.36,6.14,3.55C342.84,346.21,343.14,346.28,343.15,346.71Z" transform="translate(5.7 -25.84)"/><path class="cls-15" d="M147.74,373.09l-7.26,4.22a.83.83,0,0,1-.91,0l-7-4.09a7.25,7.25,0,0,1,2.17-1.47,15.89,15.89,0,0,0,2.51-1.47c2-1.84,3.89-1.47,5.84.08a18.23,18.23,0,0,0,2.27,1.33Z" transform="translate(5.7 -25.84)"/><path class="cls-15" d="M71.07,346.59,63.8,350.8c-.46.27-.79.05-1.15-.16-2-1.16-4-2.33-6-3.47-.82-.47-.71-.76,0-1.18,2-1.13,4-2.29,6-3.49a1.22,1.22,0,0,1,1.4,0C66.33,343.83,68.57,345.13,71.07,346.59Z" transform="translate(5.7 -25.84)"/><path class="cls-15" d="M192.19,426.2c2.59-1.5,4.95-2.84,7.29-4.22.47-.28.79,0,1.14.19,2,1.16,4.09,2.35,6.14,3.51.61.34.78.59.05,1q-3.21,1.8-6.37,3.66a1,1,0,0,1-1.13,0C197,429,194.76,427.69,192.19,426.2Z" transform="translate(5.7 -25.84)"/><path class="cls-15" d="M9.7,328.93l-7.27,4.22a.85.85,0,0,1-.92,0l-7.21-4.19A40.7,40.7,0,0,0-1,326.2c2.08-1.62,3.92-1.71,6-.05A42.41,42.41,0,0,0,9.7,328.93Z" transform="translate(5.7 -25.84)"/><path class="cls-15" d="M315.09,408.33c2.51-1.46,4.8-2.77,7.06-4.11a1.13,1.13,0,0,1,1.28,0c2.27,1.33,4.55,2.64,7.06,4.09-2.08,1.21-4.07,2.24-5.91,3.49a2.78,2.78,0,0,1-3.58,0C319.17,410.57,317.2,409.56,315.09,408.33Z" transform="translate(5.7 -25.84)"/><path class="cls-16" d="M71.23,284.51c2.56-1.47,4.91-2.82,7.25-4.19a.8.8,0,0,1,.9,0c2.08,1.21,4.14,2.44,6.24,3.61.86.49.67.83,0,1.23l-6,3.47c-.32.18-.64.37-1,.14Z" transform="translate(5.7 -25.84)"/><path class="cls-16" d="M102,293.35l-7,4.14a1.22,1.22,0,0,1-1.31-.08l-7.08-4c2.57-1.48,5-2.86,7.33-4.22a1,1,0,0,1,1,.13Z" transform="translate(5.7 -25.84)"/><path class="cls-15" d="M450.85,373.06c-2.56,1.48-4.85,2.77-7.1,4.12a1.06,1.06,0,0,1-1.25-.05c-2-1.2-4.06-2.39-6.13-3.52-.94-.51-.58-.79.06-1.16l6-3.45c.36-.21.71-.42,1.16-.16Z" transform="translate(5.7 -25.84)"/><path class="cls-17" d="M466.23,293.34a6.84,6.84,0,0,1-.59.44c-2,1.15-4,2.27-6,3.45a1.55,1.55,0,0,1-1.79,0c-1.95-1.15-3.91-2.28-5.89-3.37-.7-.38-.68-.7-.08-1.06,2.15-1.26,4.32-2.49,6.47-3.75a.75.75,0,0,1,.88,0c2.11,1.24,4.24,2.45,6.36,3.68A5,5,0,0,1,466.23,293.34Z" transform="translate(5.7 -25.84)"/><path class="cls-15" d="M435.74,284.41c2.54-1.46,4.86-2.8,7.17-4.15a1,1,0,0,1,1.06,0c2.31,1.35,4.63,2.69,7.18,4.16l-7.36,4.26a.76.76,0,0,1-.79-.06Z" transform="translate(5.7 -25.84)"/><path class="cls-15" d="M343.31,373.16l7.22-4.17a.89.89,0,0,1,.93,0c2.36,1.35,4.71,2.71,7.27,4.2l-7.29,4.19a.82.82,0,0,1-.91,0Z" transform="translate(5.7 -25.84)"/><path class="cls-15" d="M420.46,284.44l-7.23,4.2a1,1,0,0,1-1-.06L405,284.45l7.28-4.21a.84.84,0,0,1,.91.05Z" transform="translate(5.7 -25.84)"/><path class="cls-15" d="M55.84,293.4l7.09-4.1a1,1,0,0,1,1-.12l7.29,4.23L64,297.59a1,1,0,0,1-1.06-.09Z" transform="translate(5.7 -25.84)"/><path class="cls-15" d="M71.2,311.13l-7.1,4.12a.94.94,0,0,1-1,.1l-7.28-4.23c2.55-1.47,4.91-2.84,7.27-4.19a1,1,0,0,1,1.06.09C66.39,308.35,68.67,309.67,71.2,311.13Z" transform="translate(5.7 -25.84)"/><path class="cls-15" d="M497,337.53l7.32-4.2a.93.93,0,0,1,.94.05l7.18,4.15L505,341.78c-.41.23-.71,0-1-.2Z" transform="translate(5.7 -25.84)"/><path class="cls-15" d="M330.38,417.18l7.35-4.21a.88.88,0,0,1,.92.08l7.19,4.13-7.25,4.17a1,1,0,0,1-1,0Z" transform="translate(5.7 -25.84)"/><path class="cls-15" d="M345.78,408.3l7.12-4.13a1.06,1.06,0,0,1,1.17,0c2.31,1.36,4.63,2.7,7.12,4.14l-7.23,4.2a.89.89,0,0,1-.93,0Z" transform="translate(5.7 -25.84)"/><path class="cls-15" d="M404.7,399.7c-2.59,1.49-4.94,2.85-7.31,4.2a1.12,1.12,0,0,1-1.17-.17c-2-1.16-4-2.33-6-3.46-.83-.47-.71-.74.05-1.16,2-1.12,4-2.29,6-3.47a1.1,1.1,0,0,1,1.27-.09C399.81,396.89,402.1,398.2,404.7,399.7Z" transform="translate(5.7 -25.84)"/><path class="cls-15" d="M345.74,426l7.29-4.24a.75.75,0,0,1,.79,0l7.32,4.24c-2.51,1.46-4.83,2.79-7.14,4.14a1,1,0,0,1-1.16,0C350.54,428.8,348.23,427.47,345.74,426Z" transform="translate(5.7 -25.84)"/><path class="cls-15" d="M481.65,328.68l7.11-4.11a.94.94,0,0,1,1-.09l7.26,4.2-7.27,4.21a1,1,0,0,1-1.05-.1Z" transform="translate(5.7 -25.84)"/><path class="cls-15" d="M117,373.11c-2.5,1.46-4.78,2.77-7,4.12a1.17,1.17,0,0,1-1.38-.05q-3-1.79-6-3.46c-.76-.43-.85-.7,0-1.16,2.06-1.15,4.08-2.36,6.12-3.54.28-.16.56-.36.9-.17Z" transform="translate(5.7 -25.84)"/><path class="cls-15" d="M404.94,328.78l-7.38,4.28c-.43.25-.7-.05-1-.22-2.05-1.17-4.08-2.37-6.14-3.51-.71-.4-.79-.66,0-1.09,2.05-1.15,4.08-2.34,6.13-3.51.36-.2.69-.41,1.15-.14C400,326,402.37,327.3,404.94,328.78Z" transform="translate(5.7 -25.84)"/><path class="cls-15" d="M361.28,390.57c-2.6,1.5-4.92,2.82-7.23,4.18a1,1,0,0,1-1.15-.09c-2.07-1.21-4.15-2.42-6.25-3.6-.77-.43-.51-.67.05-1,2.09-1.2,4.17-2.4,6.24-3.62a1,1,0,0,1,1.15,0C356.4,387.77,358.72,389.09,361.28,390.57Z" transform="translate(5.7 -25.84)"/><path class="cls-15" d="M86.51,311.1l7.23-4.21a1,1,0,0,1,1.05.05l7.1,4.16c-2.52,1.46-4.9,2.83-7.26,4.22-.47.27-.8,0-1.15-.18Z" transform="translate(5.7 -25.84)"/><path class="cls-15" d="M101.57,390.85c2.54-1.47,4.89-2.81,7.22-4.19a1,1,0,0,1,1.15.11l7,4.08c-2.56,1.48-5,2.87-7.4,4.28a.73.73,0,0,1-.78-.09Z" transform="translate(5.7 -25.84)"/><path class="cls-15" d="M374.12,364.27c-2.58,1.5-4.9,2.83-7.21,4.18a.9.9,0,0,1-1,0l-7.2-4.13c2.58-1.49,5-2.87,7.37-4.23a.74.74,0,0,1,.65,0C369.11,361.4,371.5,362.77,374.12,364.27Z" transform="translate(5.7 -25.84)"/><path class="cls-15" d="M328,364.31l7.26-4.19a1,1,0,0,1,1,.08c2.27,1.33,4.55,2.64,7,4.05-1.73,1.32-3.64,2.05-5.26,3.21s-2.92,1.31-4.58.08A59.25,59.25,0,0,0,328,364.31Z" transform="translate(5.7 -25.84)"/><path class="cls-15" d="M132.28,390.81l7.21-4.17a.82.82,0,0,1,.91,0l7.3,4.18L140.42,395a.82.82,0,0,1-.91,0C137.2,393.66,134.88,392.32,132.28,390.81Z" transform="translate(5.7 -25.84)"/><path class="cls-15" d="M284.36,435c-2.55,1.46-4.84,2.77-7.12,4.09a1,1,0,0,1-1.16.05c-2.27-1.33-4.55-2.64-6.93-4a7.78,7.78,0,0,1,2.53-1.73c1.33-.83,2.72-1.58,4.09-2.36.45-.26.88-.51,1.42-.19Z" transform="translate(5.7 -25.84)"/><path class="cls-15" d="M315.08,434.94c-2.57,1.48-4.83,2.75-7.06,4.07a1.22,1.22,0,0,1-1.4,0q-3-1.8-6.14-3.53c-.66-.37-.71-.63,0-1l6.26-3.59a1,1,0,0,1,1.06-.11Z" transform="translate(5.7 -25.84)"/><path class="cls-15" d="M40.27,355.47c2.53-1.46,4.86-2.79,7.17-4.15a1.1,1.1,0,0,1,1.27.11c2,1.17,4,2.33,6,3.46.78.44.81.73,0,1.17-1.94,1.07-3.86,2.2-5.78,3.31-.45.25-.9.58-1.43.27Z" transform="translate(5.7 -25.84)"/><path class="cls-15" d="M101.73,364.28c-2.56,1.48-4.89,2.81-7.2,4.16a1,1,0,0,1-1.16-.07l-7.07-4.1c2.58-1.48,5-2.86,7.43-4.23a.87.87,0,0,1,.91.14Z" transform="translate(5.7 -25.84)"/><path class="cls-15" d="M450.83,364.17c2.56-1.49,4.91-2.84,7.25-4.21a.87.87,0,0,1,1,.08c2.07,1.2,4.14,2.42,6.23,3.59.78.44.64.72,0,1.1-2.05,1.16-4.08,2.35-6.12,3.53a1.13,1.13,0,0,1-1.28.05C455.64,367,453.36,365.65,450.83,364.17Z" transform="translate(5.7 -25.84)"/><path class="cls-15" d="M389.58,311.05l7.33-4.2c.44-.26.79,0,1.16.18,2,1.14,3.9,2.31,5.89,3.41.79.45,1,.7,0,1.23-2,1.08-3.94,2.24-5.9,3.39a1.34,1.34,0,0,1-1.53.07C394.35,313.79,392.1,312.51,389.58,311.05Z" transform="translate(5.7 -25.84)"/><path class="cls-15" d="M207.56,443.92l-7.27,4.2a1.07,1.07,0,0,1-1.17-.15L193,444.45c-.59-.34-.74-.61,0-1,2.1-1.17,4.17-2.4,6.25-3.62a.94.94,0,0,1,1-.07Z" transform="translate(5.7 -25.84)"/><path class="cls-15" d="M374.29,311.1c-2.56,1.48-4.92,2.83-7.27,4.2a.89.89,0,0,1-1-.07l-6.95-4c1.33-1.19,3-1.66,4.25-2.7,2.28-1.9,4.37-1.74,6.65,0A36.31,36.31,0,0,0,374.29,311.1Z" transform="translate(5.7 -25.84)"/><path class="cls-17" d="M404.79,364.24c-2.5,1.45-4.8,2.8-7.1,4.15a1,1,0,0,1-1.17,0c-2-1.17-4-2.37-6-3.49-1-.55-.79-.93,0-1.38,2.06-1.15,4.12-2.29,6.16-3.47a.8.8,0,0,1,.89,0Z" transform="translate(5.7 -25.84)"/><path class="cls-15" d="M276.59,448.33c.13.06.27.1.39.17l6.62,3.83c.51.3.35.57-.05.8-2.2,1.28-4.41,2.55-6.61,3.84a.82.82,0,0,1-.9-.1c-2.12-1.24-4.25-2.46-6.38-3.69-.45-.26-.66-.56-.08-.9,2.2-1.28,4.41-2.54,6.63-3.81A2.13,2.13,0,0,1,276.59,448.33Z" transform="translate(5.7 -25.84)"/><path class="cls-15" d="M345.89,399.44c-2.55,1.48-4.83,2.78-7.09,4.11a1.08,1.08,0,0,1-1.26,0c-2.07-1.23-4.15-2.42-6.25-3.59-.71-.4-.6-.66,0-1q3.12-1.79,6.23-3.61a1,1,0,0,1,1.16,0C341,396.65,343.34,398,345.89,399.44Z" transform="translate(5.7 -25.84)"/><path class="cls-15" d="M253.21,470.38c0,.38-.29.45-.48.56-2.12,1.22-4.25,2.42-6.35,3.67a1.09,1.09,0,0,1-1.27-.06c-2-1.19-4.06-2.39-6.12-3.54-.75-.42-.7-.68,0-1.08,2-1.16,4.08-2.34,6.12-3.53a1.13,1.13,0,0,1,1.28-.07c2.1,1.25,4.23,2.46,6.34,3.69A4.27,4.27,0,0,1,253.21,470.38Z" transform="translate(5.7 -25.84)"/><path class="cls-17" d="M435.3,310.91c0,.48-.37.57-.64.73-2,1.15-4,2.28-6,3.48a1.08,1.08,0,0,1-1.26,0l-6.24-3.56c-.65-.37-.63-.73,0-1.09l6.13-3.5a1.06,1.06,0,0,1,1.16-.11l6.48,3.71A1.56,1.56,0,0,1,435.3,310.91Z" transform="translate(5.7 -25.84)"/><path class="cls-15" d="M268.84,479.31c-2.54,1.47-4.89,2.83-7.26,4.17a.92.92,0,0,1-.79,0c-2.41-1.34-4.8-2.72-7.37-4.2l7.18-4.18a.92.92,0,0,1,1,0Z" transform="translate(5.7 -25.84)"/><path class="cls-16" d="M71.09,320c2.47-1.42,4.64-2.65,6.79-3.91a1.77,1.77,0,0,1,2,.05c2,1.14,3.92,2.27,5.9,3.37.7.39.47.65,0,.94l-6.36,3.69a.94.94,0,0,1-1,0C76,322.78,73.67,321.46,71.09,320Z" transform="translate(5.7 -25.84)"/><path class="cls-15" d="M268.8,470.44c2.53-1.47,4.81-2.78,7.08-4.11a1.1,1.1,0,0,1,1.27,0c2,1.2,4.05,2.39,6.11,3.53.86.47.73.74,0,1.16-2,1.13-4,2.31-6,3.47-.36.21-.7.42-1.15.16C273.75,473.28,271.4,471.94,268.8,470.44Z" transform="translate(5.7 -25.84)"/><path class="cls-15" d="M358.78,355.44l-7.2,4.16a1,1,0,0,1-1.05,0l-7.17-4.15c2.54-1.45,4.9-2.79,7.25-4.16a1,1,0,0,1,1.16.1Z" transform="translate(5.7 -25.84)"/><path class="cls-15" d="M497,319.8l7.24-4.21a.94.94,0,0,1,1,.08c2.09,1.21,4.16,2.43,6.25,3.62.62.35.75.62,0,1-2.1,1.18-4.18,2.39-6.27,3.59a1,1,0,0,1-1,.1Z" transform="translate(5.7 -25.84)"/><path class="cls-17" d="M428.25,271.2c.7.38,1.39.73,2.07,1.12,1.52.89,3,1.81,4.54,2.67.64.36.93.58.08,1.06-2.05,1.16-4.08,2.37-6.1,3.58a1.42,1.42,0,0,1-1.57-.09l-5.77-3.31c-.7-.39-1.09-.72-.06-1.27,2-1.07,3.93-2.23,5.9-3.35A9.58,9.58,0,0,1,428.25,271.2Z" transform="translate(5.7 -25.84)"/><path class="cls-15" d="M222.87,452.79c-2.56,1.47-4.85,2.78-7.12,4.1a1,1,0,0,1-1.16,0c-2.27-1.34-4.55-2.65-7-4,1-1,2.31-1.32,3.26-2.14,2.81-2.44,5.55-2.49,8.43-.07A25.26,25.26,0,0,0,222.87,452.79Z" transform="translate(5.7 -25.84)"/><path class="cls-15" d="M238.16,452.74c2.56-1.48,4.89-2.82,7.2-4.17.5-.29.86-.08,1.28.16,2,1.17,4,2.34,6,3.47.72.4.79.64,0,1.08-2,1.12-4,2.31-6,3.47a1.23,1.23,0,0,1-1.41.12C243,455.51,240.69,454.21,238.16,452.74Z" transform="translate(5.7 -25.84)"/><path class="cls-15" d="M361.12,417.14l7.26-4.18a1,1,0,0,1,1.05.08l7.1,4.11-7.46,4.27c-.27.16-.53,0-.78-.11Z" transform="translate(5.7 -25.84)"/><path class="cls-15" d="M420.23,328.75l7.26-4.19a.9.9,0,0,1,1,.06c2.08,1.21,4.15,2.43,6.24,3.6.78.43.67.7,0,1.09-2.05,1.14-4.09,2.33-6.13,3.5-.32.18-.59.43-1,.19C425.2,331.61,422.81,330.24,420.23,328.75Z" transform="translate(5.7 -25.84)"/><path class="cls-15" d="M466.39,328.71c-2.54,1.46-4.83,2.75-7.11,4.08a1.15,1.15,0,0,1-1.29,0c-2.27-1.32-4.56-2.62-7.06-4.06l7.33-4.23a.82.82,0,0,1,.91.08Z" transform="translate(5.7 -25.84)"/><path class="cls-17" d="M330.26,372.79c0,.44-.3.49-.53.63-2,1.12-3.93,2.23-5.88,3.38a1.56,1.56,0,0,1-1.79,0c-2-1.18-4-2.32-6-3.44-.62-.35-.6-.66-.06-1,2.19-1.29,4.4-2.55,6.59-3.84a.63.63,0,0,1,.75,0l6.48,3.75A3.2,3.2,0,0,1,330.26,372.79Z" transform="translate(5.7 -25.84)"/><path class="cls-15" d="M358.77,346.55c2.47-1.44,4.75-2.75,7-4.08a1.13,1.13,0,0,1,1.28,0c2.3,1.35,4.61,2.68,7.09,4.12l-7.33,4.25a.82.82,0,0,1-.9-.08Z" transform="translate(5.7 -25.84)"/><path class="cls-15" d="M207.51,435c2.56-1.47,4.85-2.77,7.13-4.09a1,1,0,0,1,1.16,0c2.27,1.34,4.55,2.66,7.09,4.13a51.17,51.17,0,0,0-4.82,2.89,4.14,4.14,0,0,1-5.69,0A47.85,47.85,0,0,0,207.51,435Z" transform="translate(5.7 -25.84)"/><path class="cls-15" d="M382.1,271.13l-.3-.12L375,267.15c-.5-.29-.32-.61.07-.83l6.63-3.8a.78.78,0,0,1,.89.08c2.08,1.21,4.17,2.42,6.26,3.61.59.33.81.64.08,1.05l-6.27,3.59C382.5,271,382.28,271,382.1,271.13Z" transform="translate(5.7 -25.84)"/><path class="cls-17" d="M40.39,328.91l-7.16,4.15a.82.82,0,0,1-.9.06L25.13,329c1.74-1.34,3.68-2.11,5.32-3.3a3.4,3.4,0,0,1,4.49-.05C36.62,326.84,38.47,327.78,40.39,328.91Z" transform="translate(5.7 -25.84)"/><path class="cls-15" d="M146.22,399.67l7.2-4.18a1,1,0,0,1,1.05,0c2.31,1.36,4.63,2.7,7.15,4.16l-7.21,4.19a.81.81,0,0,1-.81.06Z" transform="translate(5.7 -25.84)"/><path class="cls-15" d="M389.74,284.49c-2.54,1.47-4.94,2.85-7.32,4.24a.82.82,0,0,1-.9-.07l-7.17-4.17c2-1.2,4-2.18,5.79-3.42a3,3,0,0,1,3.84,0C385.76,282.31,387.7,283.3,389.74,284.49Z" transform="translate(5.7 -25.84)"/><path class="cls-15" d="M102,275.64c-2.55,1.48-4.87,2.82-7.16,4.18a1,1,0,0,1-1.15-.06c-2.07-1.21-4.15-2.43-6.23-3.62-.65-.37-.69-.64,0-1q3.14-1.78,6.25-3.6a1.13,1.13,0,0,1,1.28,0C97.24,272.87,99.52,274.18,102,275.64Z" transform="translate(5.7 -25.84)"/><path class="cls-17" d="M443.33,333.24c.37.18.79.36,1.18.59,1.76,1,3.5,2.05,5.27,3,1,.56.9,1,0,1.47-1.77,1-3.52,2-5.26,3.05a2,2,0,0,1-2.4,0c-1.85-1.21-3.82-2.24-5.73-3.34-.37-.21-.89-.43-.21-.84,2.18-1.29,4.38-2.55,6.57-3.82A2.82,2.82,0,0,1,443.33,333.24Z" transform="translate(5.7 -25.84)"/><path class="cls-15" d="M435.78,293.31c-2.56,1.47-4.85,2.77-7.12,4.1a1.1,1.1,0,0,1-1.27,0c-2-1.18-4-2.36-6-3.47-1-.53-.69-.83,0-1.24,1.94-1.09,3.86-2.21,5.78-3.32a1.31,1.31,0,0,1,1.43-.19Z" transform="translate(5.7 -25.84)"/><path class="cls-15" d="M497,346.4c-2.51,1.46-4.81,2.79-7.1,4.15a1.13,1.13,0,0,1-1.28-.08c-2-1.18-4.07-2.37-6.13-3.52-.76-.43-.66-.69,0-1.08,2.05-1.16,4.08-2.36,6.11-3.54.32-.19.6-.41,1-.17C492,343.55,494.42,344.92,497,346.4Z" transform="translate(5.7 -25.84)"/><path class="cls-17" d="M314.7,417.17c-.07.36-.36.52-.64.68l-5.64,3.26a1.74,1.74,0,0,1-2,0c-1.87-1.19-3.82-2.26-5.75-3.35-.61-.34-1-.55-.09-1.05,2-1.11,4-2.28,6-3.43a1.39,1.39,0,0,1,1.55-.13c2,1.19,4,2.35,6,3.52C314.31,416.79,314.61,416.86,314.7,417.17Z" transform="translate(5.7 -25.84)"/><path class="cls-15" d="M389.73,275.6c2.56-1.49,4.87-2.82,7.17-4.18a1.13,1.13,0,0,1,1.28.15l6.93,4-7.38,4.28a.73.73,0,0,1-.78-.07Z" transform="translate(5.7 -25.84)"/><path class="cls-15" d="M376.59,399.42l-7.18,4.13a1,1,0,0,1-1,0l-7.22-4.16,7.37-4.22a.75.75,0,0,1,.79,0Z" transform="translate(5.7 -25.84)"/><path class="cls-15" d="M101.94,284.49l7.31-4.24a.82.82,0,0,1,.91.09l7.21,4.13L110,288.71a.79.79,0,0,1-.8,0Z" transform="translate(5.7 -25.84)"/><path class="cls-15" d="M435.58,346.48l-7.29,4.22a.83.83,0,0,1-.92-.05l-7.19-4.17c2.58-1.48,5-2.87,7.34-4.24a.77.77,0,0,1,.8.05Z" transform="translate(5.7 -25.84)"/><path class="cls-17" d="M443.26,324.15a6.68,6.68,0,0,1-.76-.32c-1.85-1-3.71-2.07-5.54-3.14-1.24-.71-1.23-.86,0-1.56,1.91-1.11,3.84-2.2,5.74-3.34a1,1,0,0,1,1.24,0c2,1.16,4,2.28,6,3.38.95.51.91.88,0,1.39-2,1.09-3.92,2.24-5.89,3.35A4.2,4.2,0,0,1,443.26,324.15Z" transform="translate(5.7 -25.84)"/><path class="cls-15" d="M299.66,443.83c-2.52,1.46-4.81,2.78-7.08,4.11a1.06,1.06,0,0,1-1.17,0c-2.12-1.24-4.25-2.45-6.39-3.67-.59-.34-.57-.6,0-.94q3.21-1.83,6.37-3.7a1,1,0,0,1,1.16.08Z" transform="translate(5.7 -25.84)"/><path class="cls-15" d="M330.36,443.79,323,448a.75.75,0,0,1-.79,0L315,443.78l7.34-4.25a.71.71,0,0,1,.78,0Z" transform="translate(5.7 -25.84)"/><path class="cls-15" d="M222.81,443.91l7.12-4.12a1,1,0,0,1,1-.1l7.26,4.21-7.15,4.16a1,1,0,0,1-1,0Z" transform="translate(5.7 -25.84)"/><path class="cls-15" d="M404.67,390.82l7-4.06a1.23,1.23,0,0,1,1.41,0c2,1.21,4.07,2.39,6.14,3.55.8.46.6.72-.06,1.09-2.07,1.15-4.11,2.33-6.15,3.53a1,1,0,0,1-1.14.07C409.53,393.62,407.21,392.29,404.67,390.82Z" transform="translate(5.7 -25.84)"/><path class="cls-15" d="M86.59,302.26l-7.32,4.2a.84.84,0,0,1-.91-.09l-7.22-4.11L78.5,298a.75.75,0,0,1,.79,0Z" transform="translate(5.7 -25.84)"/><path class="cls-17" d="M63.41,333.22c-.25-.12-.54-.24-.82-.4-2-1.12-3.92-2.27-5.9-3.36-.87-.48-.69-.76.05-1.17,2-1.14,4-2.32,6-3.51a1.16,1.16,0,0,1,1.29,0c2.12,1.22,4.25,2.41,6.37,3.64.37.21.74.51.09.88q-3.37,1.92-6.73,3.86A1.9,1.9,0,0,1,63.41,333.22Z" transform="translate(5.7 -25.84)"/><path class="cls-15" d="M55.88,302.28l-7.27,4.2a.91.91,0,0,1-.93,0l-7.23-4.16L47.81,298a.72.72,0,0,1,.78.06Z" transform="translate(5.7 -25.84)"/><path class="cls-15" d="M466.26,337.56l7.21-4.16a1,1,0,0,1,1.06,0l7.13,4.15c-2.52,1.46-4.87,2.81-7.21,4.18a1.06,1.06,0,0,1-1.17-.1Z" transform="translate(5.7 -25.84)"/><path class="cls-15" d="M101.78,346.54l-7.07,4.11a1,1,0,0,1-1,.1l-7.29-4.19c2.59-1.5,4.95-2.86,7.29-4.23.4-.24.71-.06,1,.12Z" transform="translate(5.7 -25.84)"/><path class="cls-15" d="M481.75,319.84,474.57,324a1,1,0,0,1-1.06,0l-7.18-4.14,7.25-4.21a.94.94,0,0,1,1,.1Z" transform="translate(5.7 -25.84)"/><path class="cls-17" d="M101.25,381.9c0,.43-.29.54-.53.67-2,1.14-4,2.28-6,3.44a1.37,1.37,0,0,1-1.63,0c-1.88-1.17-3.81-2.25-5.74-3.33-.86-.47-.9-.81,0-1.3,2-1.1,3.93-2.22,5.87-3.39a1.07,1.07,0,0,1,1.25-.12l6.22,3.61A6.19,6.19,0,0,1,101.25,381.9Z" transform="translate(5.7 -25.84)"/><path class="cls-15" d="M48.06,333.34c.27.14.55.28.83.44,2,1.12,3.92,2.27,5.9,3.37.82.45.75.76,0,1.18-1.93,1.09-3.85,2.19-5.76,3.33a1.62,1.62,0,0,1-1.89,0c-1.93-1.17-3.91-2.26-5.87-3.4-.38-.23-1-.5-.2-.95,2.19-1.28,4.4-2.54,6.6-3.8A4,4,0,0,1,48.06,333.34Z" transform="translate(5.7 -25.84)"/><path class="cls-15" d="M86.46,337.72l-7.3,4.18c-.44.25-.78.06-1.16-.16-2-1.15-3.89-2.33-5.89-3.4-1.1-.59-.68-.88.06-1.3,1.93-1.1,3.86-2.21,5.77-3.33a1.29,1.29,0,0,1,1.52-.09C81.68,335,83.94,336.25,86.46,337.72Z" transform="translate(5.7 -25.84)"/><path class="cls-17" d="M374.31,293.37l-7.15,4.15a.91.91,0,0,1-.93,0c-2.36-1.35-4.71-2.71-7.27-4.19l7.26-4.24a.83.83,0,0,1,.81,0Z" transform="translate(5.7 -25.84)"/><path class="cls-15" d="M330.57,390.6c-2.53,1.46-4.82,2.77-7.1,4.1a1.15,1.15,0,0,1-1.29,0c-2-1.18-4-2.34-6-3.48-.68-.39-1-.68-.08-1.18,2.06-1.15,4.1-2.35,6.14-3.54a1,1,0,0,1,1.14-.06C325.68,387.8,328,389.13,330.57,390.6Z" transform="translate(5.7 -25.84)"/><path class="cls-16" d="M404.6,381.89c-2.38,1.75-4.82,2.88-7.09,4.27-.42.26-.73.13-1.13-.1-2-1.19-4-2.34-6-3.47-.68-.39-.84-.73-.07-1.17,2.08-1.2,4.16-2.4,6.24-3.62a.69.69,0,0,1,.76-.1Z" transform="translate(5.7 -25.84)"/><path class="cls-15" d="M284.32,426.1l7.24-4.2a.87.87,0,0,1,.92,0l7.23,4.2-7.22,4.19a.89.89,0,0,1-.93,0Z" transform="translate(5.7 -25.84)"/><path class="cls-15" d="M70.77,364.31a6,6,0,0,1-.68.56c-2,1.18-4.1,2.33-6.13,3.53a1.23,1.23,0,0,1-1.41-.07c-2-1.19-4.07-2.37-6.13-3.52-.7-.39-.67-.62,0-1,2.06-1.16,4.1-2.33,6.13-3.53a1.36,1.36,0,0,1,1.54,0c2,1.17,4,2.31,6,3.47A7.18,7.18,0,0,1,70.77,364.31Z" transform="translate(5.7 -25.84)"/><path class="cls-17" d="M374,382c-2.53,1.47-4.85,2.81-7.14,4.17a1.13,1.13,0,0,1-1.29-.12c-2-1.18-4.06-2.38-6.13-3.51-.72-.4-.65-.64,0-1,2.13-1.21,4.26-2.42,6.38-3.66a.81.81,0,0,1,1,0C369.12,379.19,371.44,380.51,374,382Z" transform="translate(5.7 -25.84)"/><path class="cls-15" d="M313.5,356.07a5.78,5.78,0,0,1,1.52-2.16,30.37,30.37,0,0,0,4.5-2.41c.46-.24.83-.52,1.39-.18,2.31,1.36,4.63,2.68,7.18,4.15-2.54,1.46-4.89,2.83-7.24,4.17-.59.34-1.07-.06-1.55-.33Z" transform="translate(5.7 -25.84)"/><path class="cls-15" d="M145.82,282.91a14.66,14.66,0,0,1,.6,2.54l-5.17,2.95a1.34,1.34,0,0,1-1.54.15c-2.25-1.34-4.54-2.64-7.05-4.1,2.18-1.26,4.23-2.36,6.17-3.61a2.5,2.5,0,0,1,3.11,0A12.57,12.57,0,0,0,145.82,282.91Z" transform="translate(5.7 -25.84)"/><path class="cls-18" d="M164.19,389.47a26.35,26.35,0,0,1,4.71-2.87,1.08,1.08,0,0,1,1.17.13c2,1.16,4,2.35,6,3.47.91.51.61.83,0,1.21-2,1.12-3.94,2.22-5.88,3.38a1.63,1.63,0,0,1-1.81-.07c-1.07-.64-2.15-1.24-3.23-1.86l-.27-.29C164.23,391.61,163.65,390.65,164.19,389.47Z" transform="translate(5.7 -25.84)"/><path class="cls-18" d="M315.42,336.05c1.37-.74,2.8-1.4,4.1-2.25a1.63,1.63,0,0,1,2,.05c1.57,1,3.17,1.88,4.75,2.82.17,1.42-1,2.11-1.7,3l-.84.78a2.75,2.75,0,0,0-.88.35c-1.76,1.63-3.42,1.12-5.1-.14-1.2-.91-2.67-1.41-3.83-2.41A10.2,10.2,0,0,1,315.42,336.05Z" transform="translate(5.7 -25.84)"/><path class="cls-15" d="M174.27,427.65a2.34,2.34,0,0,1,0,.26,28.92,28.92,0,0,0-4.12,2.27,1.49,1.49,0,0,1-1.76.06c-1.94-1.17-3.91-2.31-5.9-3.4-.83-.46-.76-.74,0-1.17,2-1.12,4-2.24,5.89-3.42a1.43,1.43,0,0,1,1.75,0c1,.62,2,1.12,3,1.67l.12.32A4.62,4.62,0,0,1,174.27,427.65Z" transform="translate(5.7 -25.84)"/><path class="cls-17" d="M330.66,330.45l3.64-5.51c2.88-1,4.44,1.7,6.72,2.4,0,0,.07.06.11.08,2.44,1.54,2.43,1.53-.07,2.91-1.5.82-3,1.65-4.44,2.55a1.19,1.19,0,0,1-1.48,0C333.69,332,332.16,331.26,330.66,330.45Z" transform="translate(5.7 -25.84)"/><path class="cls-18" d="M343,311.59c-2,1.12-4,2.2-6,3.38a1.86,1.86,0,0,1-2.26,0c-1.23-.81-2.51-1.52-3.77-2.27a46.14,46.14,0,0,1,3.63-5.35,2.24,2.24,0,0,1,2.76.13c1.64,1.07,3.39,2,5.09,3,.35.2.77.33.83.83Z" transform="translate(5.7 -25.84)"/><path class="cls-15" d="M271.71,418.91a1.52,1.52,0,0,0,0-.21,12,12,0,0,1,3.07-4.7l.56-.52a2.36,2.36,0,0,1,2.9.15c2,1.21,4,2.34,6.17,3.62l-7.25,4.19c-.54.31-1-.06-1.41-.3C274.38,420.41,273.05,419.66,271.71,418.91Z" transform="translate(5.7 -25.84)"/><path class="cls-15" d="M347.74,304.77l0-.19a4.42,4.42,0,0,1,1.21-2.26c1-1.37,1.65-3,3-4.07l.24,0,6.8,4.06c-2.48,1.42-4.8,2.74-7.11,4.08a1.27,1.27,0,0,1-1.42-.13Z" transform="translate(5.7 -25.84)"/><path class="cls-16" d="M288.68,393.37l4.46-6.65c1.79,1,3.59,2.06,5.37,3.1.34.2.87.27.92.75s-.5.59-.83.79c-1.74,1-3.52,2-5.23,3.08a1.89,1.89,0,0,1-2.49,0A3.46,3.46,0,0,0,288.68,393.37Z" transform="translate(5.7 -25.84)"/><path class="cls-15" d="M267.29,425.17l.23,0,1.43,1c-1.91,1.11-3.8,2-5.5,3.25a3.21,3.21,0,0,1-4.3,0,63.47,63.47,0,0,0-5.53-3.22l4.17-2.48h.31c1.34,0,2.21,1,3.32,1.56s1.91,1.1,2.86,1.66,1.44.37,1.92-.51A2.56,2.56,0,0,1,267.29,425.17Z" transform="translate(5.7 -25.84)"/><path class="cls-15" d="M227.14,405.91h.32c2.52.83,4.63,2.4,6.89,3.69a.67.67,0,0,1,.4.8,35,35,0,0,1-3.65,2.24c-.4.27-.7.07-1-.11-2.09-1.19-4.17-2.4-6.27-3.58-.65-.37-.64-.68,0-1.06C224.93,407.25,226,406.58,227.14,405.91Z" transform="translate(5.7 -25.84)"/><path class="cls-19" d="M124.77,46.66A8.64,8.64,0,0,1,123.7,51c-.34.66-.65,1.22-1.51,1.13s-1-.64-1.18-1.32a4,4,0,0,0-1.79-2.68c-1.69-1-3.18-.36-3.66,1.55a2.25,2.25,0,0,1-.24.46,20.5,20.5,0,0,1-2.27-4.13.71.71,0,0,1,.87-.21,17.11,17.11,0,0,0,9.36-.3C124.36,45.26,124.91,45.43,124.77,46.66Z" transform="translate(5.7 -25.84)"/><path class="cls-18" d="M305.68,367.55a50.07,50.07,0,0,0-4.7-2.88c-.67-.44-1.13-.66-.09-1.23,2-1.11,4-2.31,6-3.48a1.23,1.23,0,0,1,1.42,0,4.27,4.27,0,0,0,1.86.88.71.71,0,0,0,0,.25,1.4,1.4,0,0,1-.39,1.13l-3,4.44a1.7,1.7,0,0,1-.89.82A1.1,1.1,0,0,1,305.68,367.55Z" transform="translate(5.7 -25.84)"/><path class="cls-18" d="M364.69,279.06c-1.72-1.25-3.62-2.18-5.56-3.33a25.92,25.92,0,0,1,3.73-2.33,10.64,10.64,0,0,0,1.31-.76c1.64-1.42,3.28-1.58,5-.09l0,.06a1.13,1.13,0,0,1-.29,1c-1.05,1.61-2.12,3.2-3.19,4.79a1.1,1.1,0,0,1-.73.58Z" transform="translate(5.7 -25.84)"/><path class="cls-18" d="M120.87,344.4a1.84,1.84,0,0,1,.19-.2c2.31-1.82,4.61-2.46,7.1-.22a17.19,17.19,0,0,0,2.87,1.66c1.46.85,1.46.88-.05,1.76a11.77,11.77,0,0,0-2.34,1.46h-.29c-1.35-.15-2.33-1.08-3.45-1.69s-2-1.14-3-1.71C121.44,345.21,121,345,120.87,344.4Z" transform="translate(5.7 -25.84)"/><path class="cls-20" d="M168.17,404.53a2.5,2.5,0,0,1,2.57.4c1.67,1.06,3.45,2,5.18,2.93.72.4,1.07.77,0,1.27-2,1-3.73,2.38-5.81,3.18,0,0-.1,0-.12-.06a18.15,18.15,0,0,1-1.93-7.47C168.12,404.7,168.15,404.62,168.17,404.53Z" transform="translate(5.7 -25.84)"/><path class="cls-16" d="M168.1,404.78c.68,2.51,1.37,5,2.05,7.53,0,.1,0,.19-.05.29a1.94,1.94,0,0,1-1.82-.2c-1.95-1.15-3.91-2.27-5.88-3.38-1-.55-.28-.86.16-1.12C164.4,406.84,166.25,405.82,168.1,404.78Z" transform="translate(5.7 -25.84)"/><path class="cls-15" d="M97.75,331.05a1.34,1.34,0,0,0,0,.2c-2.57,2.23-5,1.87-7.53-.18a18.39,18.39,0,0,0-3-1.76c-.71-.38-.61-.62,0-1A13.58,13.58,0,0,0,90,326.64l.29,0A29.93,29.93,0,0,1,97.75,331.05Z" transform="translate(5.7 -25.84)"/><path class="cls-15" d="M143.69,357.55a1.48,1.48,0,0,0,0,.21c-2.49,2.26-4.89,1.92-7.38-.09a27.41,27.41,0,0,0-3.78-2.21,25.4,25.4,0,0,1,3.38-2.18h.27c1.88.35,3.29,1.63,4.91,2.5C142,356.26,143.1,356.55,143.69,357.55Z" transform="translate(5.7 -25.84)"/><path class="cls-15" d="M120.87,344.4l7.48,4.45c-3.34,2.23-3.35,2.23-6.79.26-1.44-.82-2.86-1.67-4.42-2.58l3.43-2.13Z" transform="translate(5.7 -25.84)"/><path class="cls-15" d="M151.23,362.16a1.22,1.22,0,0,0,.27,0,1.25,1.25,0,0,1,1.16.24c1.49.88,3,1.71,4.5,2.62.68.41,1.49.86,1,1.93a2,2,0,0,0-.05.24c-2,1.79-3.91,1.11-5.84-.29-1.33-1-2.83-1.71-4.25-2.55a1.16,1.16,0,0,1-.06-.27Z" transform="translate(5.7 -25.84)"/><path class="cls-15" d="M364.94,279q2.12-3.18,4.21-6.38c1.45.82,2.89,1.67,4.35,2.47.73.4.72.7,0,1.11-2.05,1.16-4.09,2.35-6.13,3.54C366.28,280.36,365.7,279.41,364.94,279Z" transform="translate(5.7 -25.84)"/><path class="cls-15" d="M305.94,367.49q2.12-3.19,4.24-6.39L315.3,364c-2.55,1.49-4.89,2.88-7.26,4.21C307.16,368.7,306.63,367.78,305.94,367.49Z" transform="translate(5.7 -25.84)"/><path class="cls-18" d="M234.75,410.41c-2-1.67-4.45-2.61-6.62-4-.23-.15-.45-.32-.67-.48.86-.52,1.73-1,2.57-1.58a1.19,1.19,0,0,1,1.4.08c2,1.15,4,2.3,6,3.43.69.39.78.72,0,1.15s-1.47.92-2.2,1.39Z" transform="translate(5.7 -25.84)"/><path class="cls-14" d="M209.65,160.14c.16-.39.51-.44.88-.55,3.82-1.19,7.83-1.49,11.7-2.48.13,0,.28,0,.41,0,2.71-.57,2.86-.76,2.86-3.54,0-.87,0-1.75.05-2.63.57,2.07.78,4.23,1.79,6.16a57.86,57.86,0,0,1-5.91,1.86c-1.34.25-2.67.05-4,.25-1.7.26-3.24,1-4.91,1.38A2.94,2.94,0,0,1,209.65,160.14Z" transform="translate(5.7 -25.84)"/><path class="cls-21" d="M130.67,70.52c2.27,1.54,4.25,3.2,5.29,6,2.14,5.71,4.58,11.31,6.89,17,.14.34.22.71.33,1.06a60.33,60.33,0,0,1-3.68-5.88c-1.19-3.35-2.68-6.58-4-9.89a21,21,0,0,1-1-2.73c-.42-1.68-1.84-2.5-3-3.56-.43-.4-.66-.08-.77.34-.34,1.29-1,1-1.84.45A31.79,31.79,0,0,0,126,71.12a2.88,2.88,0,0,1-1-1.07,8.59,8.59,0,0,1,3.21,1.42c1,.59,1.76.92,2.14-.58C130.34,70.75,130.55,70.65,130.67,70.52Z" transform="translate(5.7 -25.84)"/><path class="cls-22" d="M102.53,320.25l-.35,0c-.31-.64.33-.67.61-.84,2-1.18,4-2.29,6-3.49a1.27,1.27,0,0,1,1.51,0c1.08.63,2.18,1.22,3.27,1.83v.19c-.37.5-1,.52-1.48.63-2.56.54-5.12,1.06-7.66,1.69A3.05,3.05,0,0,1,102.53,320.25Z" transform="translate(5.7 -25.84)"/><path class="cls-16" d="M211.8,402a2,2,0,0,0,0-.24c.6-1.34,1.92-1.93,2.95-2.82a.9.9,0,0,1,1.05,0c1.39.81,2.93,1.36,4.07,2.55,0,.08,0,.15,0,.23-1.41.11-2.41,1.1-3.56,1.74a1.72,1.72,0,0,1-2.09,0C213.49,402.91,212.63,402.47,211.8,402Z" transform="translate(5.7 -25.84)"/><path class="cls-23" d="M205.49,407.06h.25c0,.08.1.15.14.23.26.65,1.52.51,1.31,1.31-.17.62-1.11.72-1.7,1.07-1.58.94-3.17,1.86-4.75,2.78-.45.26-.89.52-1.4.14a1.89,1.89,0,0,0,0-.23A27.35,27.35,0,0,1,205.49,407.06Z" transform="translate(5.7 -25.84)"/><path class="cls-24" d="M164.19,389.47l.63,3.1-3.22-1.76c.93-.54,1.65-1,2.36-1.39A.64.64,0,0,0,164.19,389.47Z" transform="translate(5.7 -25.84)"/><path class="cls-25" d="M324.57,339.71c.3-1.17,1.36-1.9,1.7-3a.83.83,0,0,1,.22,0c1.63,1.16,1.63,1.16-.22,2.18C325.72,339.15,325.14,339.42,324.57,339.71Z" transform="translate(5.7 -25.84)"/><path class="cls-1" d="M122.83,172.7a16.9,16.9,0,0,1,0,6.38Z" transform="translate(5.7 -25.84)"/><path class="cls-26" d="M292.29,280.4A37.63,37.63,0,0,1,302,286c3.39,2.74,6.1,6,6.87,10.43a14.08,14.08,0,0,1-3,11.46c-3.43,4.41-8,7.17-13.1,9.23a57.53,57.53,0,0,1-19.95,4,63.6,63.6,0,0,1-20.73-2.6c-6.23-1.9-11.94-4.8-16.28-9.84-5.18-6-5.34-13.47,0-19.6,5.72-6.5,13.39-9.26,21.49-11.14a26.94,26.94,0,0,1,5.87-.87.58.58,0,0,0,.66-.55l.27.28c.59.88,1,1.77,0,2.63-3.16,1.64-3.53,4.08-1.09,6.74a39.56,39.56,0,0,0,4.08,3.36,3.65,3.65,0,0,1,.73,2.05c.49,3.09,1,6.19,1.36,9.3a2.28,2.28,0,0,1-.15,1.48,2.86,2.86,0,0,1-1.89.73c-2.79.48-5.63.47-8.42.94a31.54,31.54,0,0,0-5.75,1.57c-3.73,1.42-4.32,3.32-2,6.59a13.67,13.67,0,0,0,7,5c3.45,1.2,7,1.05,10.59.8,3.78-.27,7.53-.92,11.34-1,4.12-.07,6.54-3.14,5.63-7.18a21.38,21.38,0,0,0-.94-4.88,16,16,0,0,1-.8-5.58,2.3,2.3,0,0,1,.48-1.68c.61-.39,1.15,0,1.69.2a6.79,6.79,0,0,0,2.27.49c3.76.07,5.29-2.3,3.65-5.66a10,10,0,0,1-.58-4.65c.09-1.8.32-3.59.3-5.4a1.29,1.29,0,0,1,.43-1.13C292.38,281.22,292.25,280.79,292.29,280.4Z" transform="translate(5.7 -25.84)"/><path class="cls-7" d="M263.87,279.26c1.28-.68,0-1.68.31-2.48,1.43,0,2.86-.12,4.28-.21a59.2,59.2,0,0,1,11,.63l1.37.15c1.71.2,1.71.2,1.41-1.57-.63-3.67-1.29-7.34-1.89-11-.27-1.63.5-3.17.6-4.78.15-2.29.55-4.57.72-6.86.25-3.4.35-6.81.61-10.21a9,9,0,0,1,.81-2.34c.11-.3.37-.6.11-.9s-.59-.18-.9-.08c-4.34,1.45-8.83,1.34-13.32,1.28a33.25,33.25,0,0,1-5.07-.51c-1.32-.21-2.34,0-2.88,1.43a11.9,11.9,0,0,1-3.32,4.56,1.57,1.57,0,0,1-1.6.59c-.73-.21-.54-.86-.62-1.39a16.77,16.77,0,0,1-1.19-6c-.77.49-1.35,1.34-2.32.94a1.25,1.25,0,0,1-1-1.2c1-2.47,2.57-4.58,3.91-6.83,4.38-7.35,8.9-14.61,12.69-22.28,1.49-3,2.48-6.26,3.77-9.38,1.72-4.14,3.53-8.24,4.86-12.53a48.7,48.7,0,0,0,2.62-14.79,26.77,26.77,0,0,0-.41-3.56c-.05-.4-.25-.78.12-1.31a10.8,10.8,0,0,1,2.25,6c.79,8.69-1,17.06-3.2,25.37-1.52,5.71-3.27,11.36-5.19,16.95-2.25,6.6-4.57,13.17-7.16,19.65-.44,1.12-.07,1.39.92,1.53a36.74,36.74,0,0,0,15.75-.83,38.48,38.48,0,0,0,6-2.57c.46-.23,1-1.17,1.42-.38a1.65,1.65,0,0,1-.4,2.24,11.56,11.56,0,0,1-2,1.2,1.54,1.54,0,0,0-1.06,1.47c-.21,3-.43,6.07-.56,9.11-.12,2.72-.48,5.41-.76,8.11a23.64,23.64,0,0,0,.08,6.23c.27,1.69.09,3.4.34,5.11.4,2.74.57,5.5,1.66,8.09a.21.21,0,0,1,0,.13c-.11,2.83,2,3.34,4.06,3.9.88.24,1.4.67,1.28,1.64-.1,2.52-.17,5-.31,7.56a9.46,9.46,0,0,0,.61,3.77c-.25,1.95-1.52,3.05-3.92,3.41a2.6,2.6,0,0,1-1.11,0,2,2,0,0,0-2.81,1.35c-.73,2.39-.17,4.7.46,7a17.72,17.72,0,0,1,.92,5.25c.06,2.16-2.54,3.83-4.89,3.67-6.34-.44-10.66-5.49-12.09-10.38a1.63,1.63,0,0,1,0-.82c-.29-4.11-1.1-8.15-1.72-12.22,0-.22-.33-.4-.5-.61-.49-2.67-1-5.33-1.69-8A5.25,5.25,0,0,0,263.87,279.26Z" transform="translate(5.7 -25.84)"/><path class="cls-27" d="M198,308.82l26.07,15.09.83.5a18.72,18.72,0,0,1-2.76,2.5c-1,1.74-2.73,2.66-4.1,4a4.85,4.85,0,0,1-2.05,1.55,22.67,22.67,0,0,0-4.18,3.38q-15.14,12.93-30.23,25.92c-.28.24-.53.51-.8.77a3.66,3.66,0,0,1-2.32,1.91l-5.88,5.05-3.16,2.59c1.52-4,2.89-7.68,4.28-11.34q4.51-11.91,9-23.83,5.18-13.67,10.34-27.34a6.65,6.65,0,0,1,1.25-2.74A5,5,0,0,1,198,308.82Z" transform="translate(5.7 -25.84)"/><path class="cls-28" d="M198,308.82l-3.67-2c-.1-.57.4-.67.72-.89l62.74-43.15c.19-.13.39-.24.75-.46l.89,3.36L232.7,284.6l-33.45,23.66A2.06,2.06,0,0,1,198,308.82Z" transform="translate(5.7 -25.84)"/><path class="cls-29" d="M436.49,140.11a23.74,23.74,0,0,1-4.6,3.51Q411,158.5,390,173.28L339.5,209q-11.85,8.37-23.7,16.75Q303.4,234.49,291,243.32c-.45.32-.95.57-1.42.86-.46-2.24.36-3.6,2.34-5q67.72-46.39,135.34-93c2.64-1.81,5.26-3.64,7.91-5.44C435.59,140.56,435.93,140.12,436.49,140.11Z" transform="translate(5.7 -25.84)"/><path class="cls-29" d="M295.64,202.2l41.63-19.53,31.06-14.58,41.75-19.61L433,137.74a2.55,2.55,0,0,1,1.45-.39c-4,2-8,4-12.05,6q-38.94,18.88-77.88,37.74l-47.25,22.89c-1.39.67-1.41.66-1.58-.91C295.63,202.76,295.65,202.48,295.64,202.2Z" transform="translate(5.7 -25.84)"/><path class="cls-30" d="M272,137.84c2.71-.74,5.44-1.43,8.13-2.22a12.25,12.25,0,0,0,4.1-2c2-1.59,2.58-3.82,2.51-6.28.44.41.91.79,1.31,1.23a4.47,4.47,0,0,1-.26,6.83,27.34,27.34,0,0,1-5.73,3.84c-2,1.1-4.09,2.08-6.15,3.11-.54-.18-.71-.69-1-1.11A13.43,13.43,0,0,0,272,137.84Z" transform="translate(5.7 -25.84)"/><path class="cls-31" d="M251.07,239.28c1.41,1.5,1.41,1.5,3.67-.73-.3,2.54.64,4.72.79,7a14.15,14.15,0,0,1-4.63-2.8,21.43,21.43,0,0,1-4-4.4,4.07,4.07,0,0,1-.4-4.86C247.34,236,249.22,237.62,251.07,239.28Z" transform="translate(5.7 -25.84)"/><path class="cls-32" d="M272,137.84c1.31.08,1.76,1.21,2.4,2.06a27.57,27.57,0,0,1,1.51,2.44l-7.06,3.6c-.12-2.79-.1-5.4,1.48-7.75A3.85,3.85,0,0,1,272,137.84Z" transform="translate(5.7 -25.84)"/><path class="cls-29" d="M435.38,136.94a5.5,5.5,0,0,1,3.32-1.59Z" transform="translate(5.7 -25.84)"/><path class="cls-29" d="M438.46,138.73a3.41,3.41,0,0,1-2,1.39A4.43,4.43,0,0,1,438.46,138.73Z" transform="translate(5.7 -25.84)"/><path class="cls-18" d="M178.48,364.42c.86-.53,1.36-1.5,2.32-1.91,1.66-.38,2.93-1.53,4.4-2.28a1.64,1.64,0,0,1,1.88,0c1.87,1.19,3.81,2.26,5.75,3.35.81.45.76.78,0,1.22-1.94,1.08-3.87,2.18-5.77,3.32a1.69,1.69,0,0,1-1.9,0A54.71,54.71,0,0,0,178.48,364.42Z" transform="translate(5.7 -25.84)"/><path class="cls-33" d="M222.85,364.18c-.07.33-.38.37-.61.51q-3,1.76-6,3.5c-.39.23-.72.48-1.26.16q-3.14-1.89-6.35-3.66c-.82-.44-.62-.73,0-1.09,2.07-1.2,4.15-2.39,6.22-3.6a1.06,1.06,0,0,1,1.17,0l6.22,3.61C222.5,363.75,222.81,363.84,222.85,364.18Z" transform="translate(5.7 -25.84)"/><path class="cls-18" d="M223.16,355.25c2.53-1.47,4.87-2.83,7.19-4.2a.94.94,0,0,1,1,.05c2.08,1.21,4.15,2.42,6.24,3.61.71.4.73.7,0,1.11-2.09,1.18-4.16,2.4-6.24,3.59-.27.16-.53.33-.89.12C228.12,358.13,225.74,356.76,223.16,355.25Z" transform="translate(5.7 -25.84)"/><path class="cls-18" d="M268.8,408.32c-.05.38-.3.44-.49.55-2.16,1.25-4.33,2.47-6.48,3.75-.48.28-.79.07-1.14-.13-2-1.18-4.07-2.39-6.11-3.55-.7-.39-.82-.67,0-1.1,2.06-1.15,4.1-2.33,6.14-3.51a1.11,1.11,0,0,1,1.28-.07c2.1,1.25,4.23,2.47,6.34,3.71A4.15,4.15,0,0,1,268.8,408.32Z" transform="translate(5.7 -25.84)"/><path class="cls-18" d="M261.48,386.25l.45.26c2.12,1.22,4.24,2.45,6.37,3.65.66.37.69.65,0,1-2.05,1.16-4.1,2.33-6.13,3.52a1.37,1.37,0,0,1-1.54,0c-2-1.19-4.08-2.35-6.13-3.51-.44-.25-.75-.52-.16-.88,2.26-1.34,4.54-2.65,6.82-4A2,2,0,0,1,261.48,386.25Z" transform="translate(5.7 -25.84)"/><path class="cls-18" d="M209.27,355.28c-2.61,1.51-5,2.86-7.31,4.23-.46.28-.79,0-1.14-.16l-6-3.46c-.65-.38-.95-.67,0-1.17,2.06-1.14,4.07-2.36,6.1-3.55a1,1,0,0,1,1.15-.06C204.33,352.47,206.65,353.78,209.27,355.28Z" transform="translate(5.7 -25.84)"/><path class="cls-18" d="M209.2,346.41l7.37-4.3c.37-.22.59,0,.87.18,2.08,1.2,4.16,2.4,6.26,3.57.7.4.8.66,0,1.1-2,1.12-4,2.3-6,3.44-.39.22-.76.5-1.28.2C214.09,349.23,211.75,347.88,209.2,346.41Z" transform="translate(5.7 -25.84)"/><path class="cls-18" d="M117.14,328.78l7.09-4.13a1,1,0,0,1,1.15,0c2,1.2,4.07,2.39,6.12,3.55.7.39,1,.71.09,1.2-2.05,1.17-4.09,2.36-6.12,3.55a1.08,1.08,0,0,1-1.17,0C122,331.59,119.68,330.25,117.14,328.78Z" transform="translate(5.7 -25.84)"/><path class="cls-18" d="M240,337.54c-2.49,1.43-4.82,2.75-7.12,4.11a1,1,0,0,1-1.15,0l-7.14-4.13,7.21-4.2a.83.83,0,0,1,.92,0Z" transform="translate(5.7 -25.84)"/><path class="cls-18" d="M132.46,337.63c2.52-1.45,4.84-2.79,7.15-4.14a1,1,0,0,1,1,0l7.21,4.19c-2.49,1.45-4.79,2.8-7.11,4.13a1.26,1.26,0,0,1-1.32-.07Z" transform="translate(5.7 -25.84)"/><path class="cls-18" d="M284.51,372.9l7.32-4.24a.57.57,0,0,1,.64,0c2.42,1.4,4.85,2.78,7.49,4.29-2.57,1.46-4.9,2.77-7.21,4.12a1.16,1.16,0,0,1-1.29-.08Z" transform="translate(5.7 -25.84)"/><path class="cls-18" d="M269.29,355.21l-7.08,4.1a1,1,0,0,1-1.16.09c-2.33-1.37-4.68-2.72-7.2-4.19,2.54-1.47,4.89-2.82,7.23-4.19a.89.89,0,0,1,1,.06C264.41,352.42,266.73,353.75,269.29,355.21Z" transform="translate(5.7 -25.84)"/><path class="cls-18" d="M192.41,381.9c-2.51,1.45-4.86,2.83-7.21,4.18a1.07,1.07,0,0,1-1.08-.05c-2.31-1.33-4.62-2.68-7.12-4.14,2.54-1.47,4.9-2.82,7.25-4.19a1,1,0,0,1,1,.06Z" transform="translate(5.7 -25.84)"/><path class="cls-18" d="M253.87,364.09l-7.16,4.21a.94.94,0,0,1-1,0l-7.19-4.17c2.61-1.51,5-2.9,7.43-4.28a.77.77,0,0,1,.78.1C249,361.29,251.38,362.65,253.87,364.09Z" transform="translate(5.7 -25.84)"/><path class="cls-18" d="M148,319.9c-2.55,1.48-4.87,2.81-7.17,4.18a1,1,0,0,1-1.15-.05c-2-1.18-4.07-2.37-6.12-3.54-.72-.41-.85-.73,0-1.19,2-1.12,4-2.3,6-3.45a1.09,1.09,0,0,1,1.27-.09C143.09,317.13,145.42,318.45,148,319.9Z" transform="translate(5.7 -25.84)"/><path class="cls-18" d="M269.15,364.09c2.49-1.45,4.72-2.74,7-4.06a1.27,1.27,0,0,1,1.42-.06c2.27,1.34,4.55,2.64,7.07,4.1-2.57,1.48-4.94,2.86-7.32,4.22a1.09,1.09,0,0,1-1.06-.18Z" transform="translate(5.7 -25.84)"/><path class="cls-18" d="M253.55,346.24c0,.41-.26.53-.5.67-2,1.17-4.1,2.33-6.13,3.52a1.34,1.34,0,0,1-1.53-.09c-1.95-1.14-3.92-2.28-5.89-3.38-.86-.49-.68-.8.06-1.21,2-1.14,4-2.31,6-3.48.33-.19.6-.38,1-.15l6.63,3.79A1.94,1.94,0,0,1,253.55,346.24Z" transform="translate(5.7 -25.84)"/><path class="cls-18" d="M192,417.24c0,.42-.35.49-.56.62-2.06,1.22-4.15,2.41-6.21,3.62a1.13,1.13,0,0,1-1.29,0c-2-1.19-4.06-2.37-6.11-3.54-.79-.45-.7-.73.06-1.15,2.06-1.13,4.1-2.32,6.13-3.51.33-.19.58-.37,1-.13,2.18,1.29,4.39,2.54,6.59,3.81A3.31,3.31,0,0,1,192,417.24Z" transform="translate(5.7 -25.84)"/><path class="cls-18" d="M253.74,372.94c2.55-1.46,4.8-2.73,7-4a1.42,1.42,0,0,1,1.56,0c1.95,1.14,3.92,2.28,5.89,3.4.84.47.64.85-.06,1.25l-5.78,3.31a1.25,1.25,0,0,1-1.41.16C258.65,375.72,256.32,374.41,253.74,372.94Z" transform="translate(5.7 -25.84)"/><path class="cls-18" d="M223.13,381.84,216,386a1.22,1.22,0,0,1-1.31-.11l-6-3.46c-.68-.38-.74-.7,0-1.13,2.06-1.15,4.09-2.36,6.12-3.56a1,1,0,0,1,1.05-.06Z" transform="translate(5.7 -25.84)"/><path class="cls-18" d="M176.89,399.64l7.24-4.18a.94.94,0,0,1,.93,0l7.3,4.19c-2.47,1.42-4.78,2.74-7.09,4.09a1,1,0,0,1-1.16,0Z" transform="translate(5.7 -25.84)"/><path class="cls-18" d="M192.27,390.75c2.56-1.45,4.91-2.79,7.25-4.14a1.06,1.06,0,0,1,1.17.08c2.13,1.21,4.25,2.43,6.38,3.63.51.29.59.53,0,.85-2.13,1.2-4.25,2.42-6.38,3.63a1.06,1.06,0,0,1-1.16.11C197.2,393.55,194.84,392.22,192.27,390.75Z" transform="translate(5.7 -25.84)"/><path class="cls-18" d="M238.14,390.87a6.34,6.34,0,0,1-.54.35l-6,3.46a1.39,1.39,0,0,1-1.55.14c-2-1.22-4.05-2.42-6.11-3.58-.72-.41-.6-.71,0-1.05l6.14-3.53a1.28,1.28,0,0,1,1.43,0l6.12,3.57C237.83,390.38,238.13,390.44,238.14,390.87Z" transform="translate(5.7 -25.84)"/><path class="cls-18" d="M284.23,399.79a63,63,0,0,0-6.15,3.47,2,2,0,0,1-2.49.07c-2-1.3-4.2-2.46-6.51-3.8l7.2-4.22a.83.83,0,0,1,.91,0l6.6,3.83a.76.76,0,0,1,.44.66Z" transform="translate(5.7 -25.84)"/><path class="cls-18" d="M253.77,399.56l-7.37,4.26c-.41.23-.72,0-1-.21-2-1.14-4-2.31-6-3.45-.82-.47-.84-.76,0-1.24,2-1.11,4-2.31,6-3.48a1.06,1.06,0,0,1,1.26,0C248.91,396.78,251.2,398.08,253.77,399.56Z" transform="translate(5.7 -25.84)"/><path class="cls-33" d="M238.14,373a1.45,1.45,0,0,1-.73.68l-5.76,3.3a1.46,1.46,0,0,1-1.57.08c-2.06-1.23-4.13-2.44-6.2-3.65-.66-.38-.5-.61.06-.92,2-1.13,4-2.28,6-3.43a1.37,1.37,0,0,1,1.54-.08c2.07,1.21,4.17,2.38,6.25,3.56C237.94,372.64,238.15,372.74,238.14,373Z" transform="translate(5.7 -25.84)"/><path class="cls-18" d="M207.78,373c-2.52,1.46-4.83,2.79-7.14,4.14a1,1,0,0,1-1.14-.05q-3.1-1.83-6.26-3.58c-.71-.4-.61-.68,0-1,2.09-1.19,4.18-2.39,6.24-3.62a1.14,1.14,0,0,1,1.29.07Z" transform="translate(5.7 -25.84)"/><path class="cls-33" d="M205.49,407.06a64.08,64.08,0,0,1-6.1,5.31c-2.49-.9-4.57-2.52-7.12-3.89l4.65-2.74c.16-.1.36-.13.49-.26,1.93-1.91,3.71-1.13,5.53.23A17.19,17.19,0,0,0,205.49,407.06Z" transform="translate(5.7 -25.84)"/><path class="cls-18" d="M102.53,320.25c3.68-.77,7.3-1.79,11-2.32a8.14,8.14,0,0,1,1,.49c.79.51,2.25.71,2.19,1.6s-1.48,1.08-2.31,1.56a20.55,20.55,0,0,0-2.63,1.53c-1.56,1.29-3,1.18-4.55,0S104,321.41,102.53,320.25Z" transform="translate(5.7 -25.84)"/><path class="cls-20" d="M219.9,401.48a21.61,21.61,0,0,1-3.75-2,1.26,1.26,0,0,0-1.8.17c-.77.78-1.68,1.43-2.52,2.13-1.56-.25-2.57-1.53-4.34-2.07,2.65-1.53,5-2.9,7.32-4.22a1.2,1.2,0,0,1,1.2.06l7,4.05Z" transform="translate(5.7 -25.84)"/><path class="cls-18" d="M158.19,366.94a1.93,1.93,0,0,0-1.15-1.62l-5.54-3.17c1-.94,2.39-1.37,3.5-2.19.39-.29.7-.07,1,.11,2,1.14,4,2.3,6,3.43,1,.55,1,1-.06,1.42C160.64,365.49,159.57,366.51,158.19,366.94Z" transform="translate(5.7 -25.84)"/><path class="cls-18" d="M97.75,331.05a86.58,86.58,0,0,1-7.51-4.39c2.43-2,4.85-2.67,7.49-.26a17,17,0,0,0,3.2,1.91c.58.31.87.6.1,1A19.43,19.43,0,0,1,97.75,331.05Z" transform="translate(5.7 -25.84)"/><path class="cls-34" d="M143.69,357.55l-7.5-4.28,3.29-2a1.08,1.08,0,0,1,1.18,0l7.19,4.09A21.55,21.55,0,0,1,143.69,357.55Z" transform="translate(5.7 -25.84)"/><path class="cls-35" d="M267.29,425.17a1.63,1.63,0,0,1-.07.26c-2.06,3-1,2.83-4.25,1.09-1.66-.89-3.25-1.89-4.87-2.85a16,16,0,0,1,2.78-1.75c.42-.29.8,0,1.16.18Z" transform="translate(5.7 -25.84)"/><path class="cls-36" d="M216,332.44c1.86-2.05,4.11-3.68,6.15-5.53.49.93,1.6,1,2.48,1.81-2.5,1.44-4.89,2.83-7.31,4.18C216.81,333.18,216.37,332.83,216,332.44Z" transform="translate(5.7 -25.84)"/><path class="cls-37" d="M305.69,350.56c1.24-1.93,2.44-3.89,3.86-5.7l3.27,1.76C310.22,348,308.11,349.53,305.69,350.56Z" transform="translate(5.7 -25.84)"/><path class="cls-38" d="M274.75,414a46.79,46.79,0,0,1-3.07,4.7c-.86-.32-2.12-.66-2.24-1.37s1.22-1,1.93-1.46C272.46,415.19,273.62,414.62,274.75,414Z" transform="translate(5.7 -25.84)"/><path class="cls-39" d="M174.27,427.65c-.65-1-.58-2.27-1-3.37a21.12,21.12,0,0,1,3.59,1.94A8.81,8.81,0,0,1,174.27,427.65Z" transform="translate(5.7 -25.84)"/><path class="cls-33" d="M352.39,280.65c1.92,1.11,3.82,2.24,5.76,3.3.74.41.58.74,0,1.07-2.1,1.26-4.21,2.48-6.31,3.72a.87.87,0,0,1-1,0c-.93-.6-1.9-1.11-2.86-1.66C349.44,284.93,350.76,282.68,352.39,280.65Z" transform="translate(5.7 -25.84)"/><path class="cls-40" d="M150.87,201.33c0,.51.16.84.8.87a63.51,63.51,0,0,1,16.48,3.34c4.81,2,9.39,4.29,13,8.13a15.75,15.75,0,0,1,4.73,10.49,14,14,0,0,1-3.07,8.86c-3.27,4.34-7.68,7.12-12.58,9.26a63.55,63.55,0,0,1-15.87,4.13,14.42,14.42,0,0,1-2.08.05,24.9,24.9,0,0,0-3.45.24,64.11,64.11,0,0,1-10.08-.58,56.36,56.36,0,0,1-13.24-3.32c-5.23-2-9.93-4.85-13.44-9.22-4.4-5.47-4.77-12-.36-18,3-4,7-6.54,11.33-8.7a118.06,118.06,0,0,0,3.29,12.41,6.23,6.23,0,0,1,.08,1.79.93.93,0,0,1,.18.91c-.46,1.69.32,2.92,1.34,4.15,2.54,3.06,5.22,6,7.51,9.27a13.89,13.89,0,0,0,11,5.9c1.47.09,2.92.4,4.39-.13,1.8-.66,2.52-1.74,2.07-3.64a12.28,12.28,0,0,0-2.06-4.22c-1.74-2.47-4.08-4.41-6-6.75-1.54-1.89-3.33-3.59-4.74-5.59.24-1.9-.43-3.62-1-5.38-.3-.93-1.1-1.87-.35-2.95,4,1.45,8.32,1.81,12.15,3.8,1.56.81,2.95,1.89,4.56,2.63a15.31,15.31,0,0,0,7.51,1.62,6.2,6.2,0,0,0,4.3-2,2.39,2.39,0,0,0,.45-2.82,6.39,6.39,0,0,0-1.51-2.15c-2.7-2.41-5.47-4.7-9.13-5.58-1.84-.45-3.59-1.23-5.39-1.84a2.54,2.54,0,0,1-1.38-.87C150.52,204.11,150.69,202.72,150.87,201.33Z" transform="translate(5.7 -25.84)"/><path class="cls-32" d="M126,71.12A8.58,8.58,0,0,1,129.17,73c.8.57,1.12.69,1.25-.41.17-1.4.61-1,1.47-.37,2.08,1.49,3,3.64,3.79,5.92,1.12,3.07,2.45,6.07,3.64,9.12.16.41.63.86.18,1.38-2.92-4.94-5.94-9.81-10-13.92C128.29,73.53,127.15,72.32,126,71.12Z" transform="translate(5.7 -25.84)"/><path class="cls-1" d="M138.88,212.82a6.9,6.9,0,0,0,.71,3c.55,1.73,1.43,3.41.74,5.31.39.73,0,1.27-.5,1.7a9.06,9.06,0,0,1-8.66,2.35c-.5-.13-1.13-.21-1.14-1-.47-2.78-1.43-5.44-2.14-8.15q-2-7.56-3.18-15.27a53.78,53.78,0,0,1-.48-11.61c.26-4.59.63-9.18,1.28-13.75a61,61,0,0,0,.57-7.15,1.82,1.82,0,0,1,1.45-2c6.29-2.34,12.17-5.39,17-10.19a18.64,18.64,0,0,0,5.22-9.16c.27-1.22.72-1.18,1.55-.63l2.83,1.85c-1.84.69-2.65,2.35-3.74,3.66-3.47,4.19-4.82,9.31-5.79,14.49-1.06,5.62-2.31,11.19-3.85,16.69a106.34,106.34,0,0,1-3.38,10.84,16.69,16.69,0,0,0-.9,9.51c.49,2.71.79,5.48,1.93,8C138.74,211.81,139.24,212.17,138.88,212.82Z" transform="translate(5.7 -25.84)"/><path class="cls-27" d="M130,224.18c2.67,1.49,5.26,1,7.77-.4,1.1-.63,2.32-1.21,2.53-2.69a40.29,40.29,0,0,1,4.56,5c2,2.4,4.42,4.5,6.29,7a13.52,13.52,0,0,1,2,3.8c.81,2.51-.13,4.24-2.73,4.72a17.78,17.78,0,0,1-9-1.07,12.62,12.62,0,0,1-6.25-4.9,96.82,96.82,0,0,0-7.64-9.36,5.14,5.14,0,0,1-1.14-5.24c.76-.33.66.42.88.73C128,222.85,128.6,224,130,224.18Z" transform="translate(5.7 -25.84)"/><path class="cls-27" d="M138.88,212.82c-.16-.47-.33-.95-.49-1.43.81.09,1.32,1,2.22.81a7.11,7.11,0,0,0,8.69-2.76c.81-1.15.76-2.61,1-3.94,2.85.95,5.71,1.88,8.54,2.89a19.2,19.2,0,0,1,8.62,6.35c1.6,2,1.2,3.83-1,5.27a8.79,8.79,0,0,1-6.71,1,19.76,19.76,0,0,1-7.35-3.16,24.36,24.36,0,0,0-8.9-3.37A12.27,12.27,0,0,1,138.88,212.82Z" transform="translate(5.7 -25.84)"/><path class="cls-37" d="M351.9,298.25a64.78,64.78,0,0,1-4.19,6.33c-1.09-.59-2.19-1.17-3.28-1.78-.58-.33-.72-.64,0-1.05,2.09-1.17,4.15-2.4,6.22-3.61C351.1,297.88,351.53,297.79,351.9,298.25Z" transform="translate(5.7 -25.84)"/><path class="cls-41" d="M268.91,302.38c1,2.88,2.33,5.62,4.75,7.66,2.59,2.2,5.45,3.57,9,3,1.8-.31,2.52-1.69,3.24-3.09,1.11,2.77-.65,7.2-4.76,7.42-6,.32-11.95,1.46-18,1.18-5.6-.26-10.27-2.29-13.23-7.3-1.43-2.44-1-3.92,1.45-5.27a24.68,24.68,0,0,1,9.84-2.67C263.78,303,266.36,302.82,268.91,302.38Z" transform="translate(5.7 -25.84)"/><path class="cls-41" d="M263.87,279.26c.61,0,1,.17,1.18.89.59,2.79,1.25,5.57,1.88,8.35a1.35,1.35,0,0,1-.24,1.05,21.48,21.48,0,0,1-4.13-3.41,5.35,5.35,0,0,1-1.46-2.92C260.87,281.09,261.61,280,263.87,279.26Z" transform="translate(5.7 -25.84)"/><path class="cls-41" d="M284.51,297.66c.12-1.82.43-2.15,1.82-1.93,3.16.49,4.48-.13,6-2.85,1.11,2.06,1.06,2.83-.32,4.52a4.66,4.66,0,0,1-5.21,1.21C286,298.35,285.28,298,284.51,297.66Z" transform="translate(5.7 -25.84)"/></g></svg>