<svg id="Layer_1" data-name="Layer 1" xmlns="http://www.w3.org/2000/svg" viewBox="0 0 112.94 31.46"><defs><style>.cls-1{fill:#fff;}</style></defs><g id="sit"><path class="cls-1" d="M-105.57,38.72a8.83,8.83,0,0,1,.33,1A36.86,36.86,0,0,0-113,43.51a30,30,0,0,1,7.43-4.79" transform="translate(125.39 -21.94)"/><path class="cls-1" d="M-104.88,42.56s-.1-1.24-.1-1.24a31.14,31.14,0,0,0-8.64,4.55,40.28,40.28,0,0,1,8.74-3.31" transform="translate(125.39 -21.94)"/><path class="cls-1" d="M-105.07,45.71s.19-1.53.17-1.52c-6.46,1.81-9.41,3.89-9.41,3.89a54.45,54.45,0,0,1,9.24-2.37" transform="translate(125.39 -21.94)"/><path class="cls-1" d="M-105.65,47.39s-1.8,3.9-10.79,3.43c0,0,2.78-1.91,10.79-3.43" transform="translate(125.39 -21.94)"/><path class="cls-1" d="M-102.12,35.56V22.49h8.93V33a73.23,73.23,0,0,0-8.93,2.55" transform="translate(125.39 -21.94)"/><path class="cls-1" d="M-102.12,37.23v1.49a78.56,78.56,0,0,1,8.92-2.07v-2a58,58,0,0,0-8.92,2.61" transform="translate(125.39 -21.94)"/><path class="cls-1" d="M-102.12,41.86V40.35a67.22,67.22,0,0,1,8.92-2.11v2s-5.26.72-8.92,1.57" transform="translate(125.39 -21.94)"/><path class="cls-1" d="M-102.12,43.47c3.61-.9,8.92-1.61,8.92-1.61v2.32s-4.18.31-8.92,1Z" transform="translate(125.39 -21.94)"/><path class="cls-1" d="M-102.12,46.8v3.5h8.92V45.74S-97,46-102.12,46.8" transform="translate(125.39 -21.94)"/><path class="cls-1" d="M-85.5,50.3v-5c2.12-.14,8.92-.2,8.92-.2V50.3Z" transform="translate(125.39 -21.94)"/><path class="cls-1" d="M-85.5,43.69V41.1c4.5-.32,8.92-.31,8.92-.31V43.5s-4.07,0-8.92.19" transform="translate(125.39 -21.94)"/><path class="cls-1" d="M-85.5,39.54v-2.3c4.1-.41,8.92-.41,8.92-.41v2.4s-4.6,0-8.92.31" transform="translate(125.39 -21.94)"/><path class="cls-1" d="M-85.5,35.66V33.37a81.79,81.79,0,0,1,8.92-.5v2.4s-3.55,0-8.92.39" transform="translate(125.39 -21.94)"/><path class="cls-1" d="M-85.5,31.81c3.93-.47,8.92-.5,8.92-.5V28h5.32V22.49H-90.78V28h5.28Z" transform="translate(125.39 -21.94)"/><path class="cls-1" d="M-116.79,40.34h-8.33v1.82a11.7,11.7,0,0,0,.79,4.83,6.08,6.08,0,0,0,3.34,2.8,10.7,10.7,0,0,0,1.84.62,12.51,12.51,0,0,1,2.48-5.22,8.83,8.83,0,0,1-.12-1.45Z" transform="translate(125.39 -21.94)"/><path class="cls-1" d="M-105.64,30.92v-1.1a9.83,9.83,0,0,0-.8-4.68,6,6,0,0,0-3.26-2.29,17.35,17.35,0,0,0-6-.91,15.75,15.75,0,0,0-5.46.84,6.54,6.54,0,0,0-3.27,2.31,8.47,8.47,0,0,0-1,4.67,8.19,8.19,0,0,0,.71,3.64,6.36,6.36,0,0,0,1.81,2.23,39.9,39.9,0,0,0,4.46,2.59,27.15,27.15,0,0,1,4.21,2.52,2.13,2.13,0,0,1,.63,1.2,33.65,33.65,0,0,1,7.21-4.58l-.07-.09c-.87-1.1-3.56-2.8-7.56-4.73a6.61,6.61,0,0,1-2.54-1.7,3.67,3.67,0,0,1-.48-2.08,2.6,2.6,0,0,1,.42-1.61,1.47,1.47,0,0,1,1.23-.53,1.31,1.31,0,0,1,1.07.4,3.26,3.26,0,0,1,.33,1.84v2.06Z" transform="translate(125.39 -21.94)"/></g><path class="cls-1" d="M-64.52,31.58A4.73,4.73,0,0,1-65.84,28a5,5,0,0,1,1.29-3.71A5.18,5.18,0,0,1-60.73,23a7.9,7.9,0,0,1,1.52.13,8.77,8.77,0,0,1,1.38.36v2.09a7.16,7.16,0,0,0-2.72-.53,2.92,2.92,0,0,0-2.17.71A3.11,3.11,0,0,0-63.41,28a2.83,2.83,0,0,0,.72,2.13,3,3,0,0,0,2.17.69,7,7,0,0,0,2.7-.52v2.11a9.08,9.08,0,0,1-2.89.44A5.26,5.26,0,0,1-64.52,31.58Z" transform="translate(125.39 -21.94)"/><path class="cls-1" d="M-53.62,23.16H-51l3.65,9.55h-2.49l-.86-2.16h-3.19l-.85,2.16h-2.49Zm2.55,5.62-1.27-3.32-1.27,3.32Z" transform="translate(125.39 -21.94)"/><path class="cls-1" d="M-46.17,23.16h4.77a3.24,3.24,0,0,1,2.47.87,3.35,3.35,0,0,1,.82,2.41,3,3,0,0,1-.48,1.69,2.94,2.94,0,0,1-1.34,1.08,1.53,1.53,0,0,1,.32.36,4.55,4.55,0,0,1,.29.56l1.13,2.58h-2.5l-1.06-2.43a1,1,0,0,0-.34-.46,1.11,1.11,0,0,0-.6-.13h-1.1v3h-2.38ZM-42,27.85a1.57,1.57,0,0,0,1.1-.36,1.39,1.39,0,0,0,.38-1q0-1.44-1.38-1.44h-1.87v2.85Z" transform="translate(125.39 -21.94)"/><path class="cls-1" d="M-36.89,23.16h7.05V25H-34.5v2h4.11v1.87H-34.5v2h4.66v1.84h-7Z" transform="translate(125.39 -21.94)"/><path class="cls-1" d="M-28.7,23.16h7V25h-4.65v2h4.1v1.87h-4.1v2h4.65v1.84h-7Z" transform="translate(125.39 -21.94)"/><path class="cls-1" d="M-20.51,23.16h4.77a3.24,3.24,0,0,1,2.47.87,3.35,3.35,0,0,1,.82,2.41,3,3,0,0,1-.48,1.69,2.94,2.94,0,0,1-1.34,1.08,1.53,1.53,0,0,1,.32.36,4.55,4.55,0,0,1,.29.56l1.13,2.58H-15l-1.06-2.43a1,1,0,0,0-.34-.46,1.11,1.11,0,0,0-.6-.13h-1.1v3h-2.38Zm4.15,4.69a1.57,1.57,0,0,0,1.1-.36,1.39,1.39,0,0,0,.38-1q0-1.44-1.38-1.44h-1.87v2.85Z" transform="translate(125.39 -21.94)"/><path class="cls-1" d="M-64.52,49.38a4.73,4.73,0,0,1-1.32-3.57,5,5,0,0,1,1.29-3.71,5.18,5.18,0,0,1,3.82-1.29,7.9,7.9,0,0,1,1.52.13,8.77,8.77,0,0,1,1.38.36v2.09a7.16,7.16,0,0,0-2.72-.53,2.88,2.88,0,0,0-2.17.71,3.11,3.11,0,0,0-.69,2.24,2.83,2.83,0,0,0,.72,2.13,3,3,0,0,0,2.17.69,7.13,7.13,0,0,0,2.7-.52v2.1a8.81,8.81,0,0,1-2.89.45A5.3,5.3,0,0,1-64.52,49.38Z" transform="translate(125.39 -21.94)"/><path class="cls-1" d="M-56.6,41h7V42.8h-4.65v2h4.1v1.87h-4.1v2h4.65v1.84h-7Z" transform="translate(125.39 -21.94)"/><path class="cls-1" d="M-48.41,41h2l4.07,5.71V41h2.4v9.55H-42L-46,44.82v5.69h-2.38Z" transform="translate(125.39 -21.94)"/><path class="cls-1" d="M-30.07,41H-23V42.8h-4.66v2h4.11v1.87h-4.11v2H-23v1.84h-7Z" transform="translate(125.39 -21.94)"/><path class="cls-1" d="M-21.88,41h4.78a3.24,3.24,0,0,1,2.47.87,3.34,3.34,0,0,1,.82,2.41,3,3,0,0,1-.48,1.69A2.94,2.94,0,0,1-15.63,47a1.8,1.8,0,0,1,.32.36,3.59,3.59,0,0,1,.28.56l1.13,2.58h-2.49l-1.07-2.43a.94.94,0,0,0-.34-.46,1.1,1.1,0,0,0-.59-.13h-1.1v3h-2.39Zm4.16,4.69a1.52,1.52,0,0,0,1.09-.36,1.36,1.36,0,0,0,.39-1q0-1.44-1.38-1.44h-1.87v2.85Z" transform="translate(125.39 -21.94)"/><path class="cls-1" d="M-31,42.8V41h-8V42.8h2.8v.8c0,.33,0,.67-.09,1-.08.62-.17,1.23-.24,1.85s-.14,1.38-.21,2.07a.37.37,0,0,0,0,.11c-.06.41-.11.83-.16,1.25S-37,50.62-37,51a.34.34,0,0,0,.07.24l.9,1,.94,1.07c.07.08.12.08.19,0,.19-.24.39-.46.58-.69l1.25-1.45a1,1,0,0,0,.07-.12c0-.23-.06-.41-.08-.6l-.12-1.28c0-.28,0-.56-.08-.83-.06-.44-.12-.87-.16-1.31s-.07-.8-.11-1.2a.06.06,0,0,0,0,0c0-.47-.11-.94-.16-1.41,0-.21-.05-.43-.07-.65v-1Z" transform="translate(125.39 -21.94)"/></svg>