<svg id="Layer_1" data-name="Layer 1" xmlns="http://www.w3.org/2000/svg" viewBox="0 0 112.94 31.46"><defs><style>.cls-1{fill:#2a5b8d;}</style></defs><path class="cls-1" d="M22.55,55.91a9.49,9.49,0,0,1,.33,1,37.18,37.18,0,0,0-7.76,3.76,30,30,0,0,1,7.43-4.79" transform="translate(-2.73 -39.13)"/><path class="cls-1" d="M23.24,59.75s-.1-1.24-.1-1.24a31,31,0,0,0-8.63,4.55,40,40,0,0,1,8.73-3.31" transform="translate(-2.73 -39.13)"/><path class="cls-1" d="M23.06,62.9s.18-1.53.16-1.52c-6.46,1.81-9.41,3.89-9.41,3.89a54.42,54.42,0,0,1,9.25-2.37" transform="translate(-2.73 -39.13)"/><path class="cls-1" d="M22.48,64.58S20.67,68.48,11.69,68c0,0,2.77-1.91,10.79-3.44" transform="translate(-2.73 -39.13)"/><path class="cls-1" d="M26,52.75V39.68h8.93V50.21A72.26,72.26,0,0,0,26,52.75" transform="translate(-2.73 -39.13)"/><path class="cls-1" d="M26,54.42v1.49a78.44,78.44,0,0,1,8.93-2.07v-2A57.9,57.9,0,0,0,26,54.42" transform="translate(-2.73 -39.13)"/><path class="cls-1" d="M26,59.06V57.54a67.13,67.13,0,0,1,8.93-2.11v2s-5.27.72-8.93,1.58" transform="translate(-2.73 -39.13)"/><path class="cls-1" d="M26,60.66c3.61-.9,8.93-1.6,8.93-1.6v2.31s-4.18.31-8.93,1Z" transform="translate(-2.73 -39.13)"/><path class="cls-1" d="M26,64v3.5h8.93V62.93S31.11,63.21,26,64" transform="translate(-2.73 -39.13)"/><path class="cls-1" d="M42.62,67.49v-5c2.12-.14,8.92-.2,8.92-.2v5.25Z" transform="translate(-2.73 -39.13)"/><path class="cls-1" d="M42.62,60.88V58.29c4.5-.32,8.92-.31,8.92-.31v2.71s-4.07,0-8.92.19" transform="translate(-2.73 -39.13)"/><path class="cls-1" d="M42.62,56.73V54.44c4.1-.42,8.92-.42,8.92-.42v2.4s-4.59,0-8.92.31" transform="translate(-2.73 -39.13)"/><path class="cls-1" d="M42.62,52.85V50.56a81.79,81.79,0,0,1,8.92-.5v2.4s-3.55,0-8.92.39" transform="translate(-2.73 -39.13)"/><path class="cls-1" d="M42.62,49c3.93-.47,8.92-.5,8.92-.5V45.23h5.33V39.68H37.35v5.55h5.27Z" transform="translate(-2.73 -39.13)"/><path class="cls-1" d="M11.33,57.53H3v1.82a12,12,0,0,0,.79,4.84A6.18,6.18,0,0,0,7.13,67,10.7,10.7,0,0,0,9,67.6a12.51,12.51,0,0,1,2.48-5.22,8.83,8.83,0,0,1-.12-1.45Z" transform="translate(-2.73 -39.13)"/><path class="cls-1" d="M22.49,48.11V47a10,10,0,0,0-.8-4.69A6.06,6.06,0,0,0,18.42,40a17.31,17.31,0,0,0-6-.91A15.65,15.65,0,0,0,7,40a6.58,6.58,0,0,0-3.28,2.31,8.47,8.47,0,0,0-1,4.67,8.19,8.19,0,0,0,.71,3.64,6.28,6.28,0,0,0,1.82,2.23,39.46,39.46,0,0,0,4.45,2.59,26.12,26.12,0,0,1,4.21,2.53,2,2,0,0,1,.63,1.19,33.9,33.9,0,0,1,7.21-4.58l-.07-.08c-.87-1.11-3.56-2.81-7.55-4.73A6.78,6.78,0,0,1,11.59,48,3.67,3.67,0,0,1,11.11,46a2.6,2.6,0,0,1,.42-1.61,1.49,1.49,0,0,1,1.24-.53,1.32,1.32,0,0,1,1.07.4,3.38,3.38,0,0,1,.32,1.84v2.06Z" transform="translate(-2.73 -39.13)"/><path class="cls-1" d="M63.61,48.78a4.72,4.72,0,0,1-1.33-3.58,5,5,0,0,1,1.29-3.71A5.2,5.2,0,0,1,67.4,40.2a8,8,0,0,1,1.52.13,8.66,8.66,0,0,1,1.37.36v2.09a7.15,7.15,0,0,0-2.71-.53A3,3,0,0,0,65.4,43a3.13,3.13,0,0,0-.69,2.24,2.83,2.83,0,0,0,.72,2.13,3,3,0,0,0,2.18.69,6.93,6.93,0,0,0,2.69-.52v2.11a9.08,9.08,0,0,1-2.89.44A5.26,5.26,0,0,1,63.61,48.78Z" transform="translate(-2.73 -39.13)"/><path class="cls-1" d="M74.5,40.35h2.58l3.65,9.55H78.24l-.86-2.16H74.19l-.84,2.16h-2.5ZM77.05,46l-1.27-3.32L74.52,46Z" transform="translate(-2.73 -39.13)"/><path class="cls-1" d="M82,40.35h4.77a3.23,3.23,0,0,1,2.47.87A3.36,3.36,0,0,1,90,43.63a3,3,0,0,1-.48,1.69,3,3,0,0,1-1.35,1.08,1.53,1.53,0,0,1,.32.36,3.48,3.48,0,0,1,.29.56l1.13,2.58H87.44l-1.07-2.43A.94.94,0,0,0,86,47a1.11,1.11,0,0,0-.6-.13H84.34v3H82ZM86.1,45a1.55,1.55,0,0,0,1.1-.36,1.35,1.35,0,0,0,.38-1c0-1-.45-1.44-1.37-1.44H84.34V45Z" transform="translate(-2.73 -39.13)"/><path class="cls-1" d="M91.23,40.35h7v1.84H93.62v2h4.11v1.87H93.62v2h4.66V49.9h-7Z" transform="translate(-2.73 -39.13)"/><path class="cls-1" d="M99.42,40.35h7v1.84h-4.66v2h4.11v1.87h-4.11v2h4.66V49.9h-7Z" transform="translate(-2.73 -39.13)"/><path class="cls-1" d="M107.61,40.35h4.77a3.23,3.23,0,0,1,2.47.87,3.36,3.36,0,0,1,.83,2.41,3,3,0,0,1-.48,1.69,3,3,0,0,1-1.35,1.08,1.53,1.53,0,0,1,.32.36,3.48,3.48,0,0,1,.29.56l1.13,2.58H113.1L112,47.47a.94.94,0,0,0-.34-.46,1.11,1.11,0,0,0-.6-.13H110v3h-2.39ZM111.76,45a1.55,1.55,0,0,0,1.1-.36,1.36,1.36,0,0,0,.39-1q0-1.44-1.38-1.44H110V45Z" transform="translate(-2.73 -39.13)"/><path class="cls-1" d="M63.61,66.57A4.7,4.7,0,0,1,62.28,63a5,5,0,0,1,1.29-3.71A5.2,5.2,0,0,1,67.4,58a8,8,0,0,1,1.52.13,8.66,8.66,0,0,1,1.37.36v2.09a7.15,7.15,0,0,0-2.71-.53,3,3,0,0,0-2.18.71A3.11,3.11,0,0,0,64.71,63a2.83,2.83,0,0,0,.72,2.13,3,3,0,0,0,2.18.69,6.93,6.93,0,0,0,2.69-.52v2.11a9.08,9.08,0,0,1-2.89.44A5.22,5.22,0,0,1,63.61,66.57Z" transform="translate(-2.73 -39.13)"/><path class="cls-1" d="M71.52,58.15h7V60H73.91v2H78v1.87H73.91v2h4.66V67.7h-7Z" transform="translate(-2.73 -39.13)"/><path class="cls-1" d="M79.71,58.15h2.05l4.06,5.71V58.15h2.4V67.7H86.16L82.1,62V67.7H79.71Z" transform="translate(-2.73 -39.13)"/><path class="cls-1" d="M98.06,58.15h7V60h-4.66v2h4.11v1.87h-4.11v2h4.66V67.7h-7Z" transform="translate(-2.73 -39.13)"/><path class="cls-1" d="M106.25,58.15H111a3.24,3.24,0,0,1,2.47.87,3.35,3.35,0,0,1,.82,2.41,3,3,0,0,1-.48,1.69,2.94,2.94,0,0,1-1.34,1.08,1.8,1.8,0,0,1,.32.36,4.55,4.55,0,0,1,.29.56l1.12,2.58h-2.49l-1.06-2.43a1,1,0,0,0-.35-.46,1.05,1.05,0,0,0-.59-.13h-1.1v3h-2.38Zm4.15,4.69a1.57,1.57,0,0,0,1.1-.36,1.39,1.39,0,0,0,.38-1q0-1.44-1.38-1.44h-1.87v2.85Z" transform="translate(-2.73 -39.13)"/><path class="cls-1" d="M97.14,60V58.15h-8V60H92v.8c0,.33-.06.67-.1,1-.07.62-.16,1.23-.23,1.85s-.15,1.38-.22,2.07c0,0,0,.07,0,.11,0,.41-.11.83-.16,1.25s-.08.74-.11,1.12a.4.4,0,0,0,.08.23c.29.35.59.69.89,1L93,70.53c.07.08.12.08.19,0l.59-.69c.41-.48.83-1,1.24-1.45a.4.4,0,0,0,.07-.12c0-.23-.05-.41-.07-.6,0-.43-.08-.85-.12-1.28l-.09-.83c0-.44-.11-.87-.16-1.31s-.07-.8-.11-1.2v0c-.06-.47-.12-.94-.17-1.41,0-.21,0-.43-.07-.65V60Z" transform="translate(-2.73 -39.13)"/></svg>